  0
SECTION
  2
HEADER
  9
$ANGBASE
  50
0.0
  9
$ANGDIR
  70
1
  9
$MEASUREMENT
  70
0
  0
ENDSEC
  0
SECTION
  2
TABLES
  0
TABLE
  2
LTYPE
  70
4
  0
LTYPE
  5
40F
  2
CONTINUOUS
  70
0
  3
Solid line
  72
65
  73
0
  40
0.0
  0
LTYPE
  5
410
  2
DASHDOT
 70
0
  3
Dash Dot ____ _ ____ _
 72
65
 73
4
 40
2.0
 49
1.25
 49
-0.25
 49
0.25
 49
-0.25
  0
LTYPE
  5
411
  2
DASHED
 70
0
  3
Dashed __ __ __ __ __
 72
65
 73
2
 40
0.75
 49
0.5
 49
-0.25
  0
LTYPE
  5
43B
  2
DOTTED
 70
0
  3
Dotted .  .  .  .
 72
65
 73
2
 40
0.2
 49
0.0
 49
-0.2
  0
ENDTAB
  0
TABLE
  2
STYLE
  70
4
  0
STYLE
  2
KICAD
  70
0
  40
0
  41
1
  42
1
  50
0
  71
0
  3
isocp.shx
  0
STYLE
  2
KICADB
  70
0
  40
0
  41
1
  42
1
  50
0
  71
0
  3
isocp.shx
  0
STYLE
  2
KICADI
  70
0
  40
0
  41
1
  42
1
  50
15
  71
0
  3
isocp.shx
  0
STYLE
  2
KICADBI
  70
0
  40
0
  41
1
  42
1
  50
15
  71
0
  3
isocp.shx
  0
ENDTAB
  0
TABLE
  2
LAYER
  70
1
  0
LAYER
  2
BLACK
  70
0
  62
7
  6
CONTINUOUS
  0
ENDTAB
  0
ENDSEC
  0
SECTION
  2
ENTITIES
0
LINE
8
BLACK
6
CONTINUOUS
10
5.9222173622047238
20
-5.3097162204724411
11
5.933036653543307
21
-5.3126152362204726
0
LINE
8
BLACK
6
CONTINUOUS
10
5.933036653543307
20
-5.3126152362204726
11
5.9433849606299214
21
-5.3169016535433071
0
LINE
8
BLACK
6
CONTINUOUS
10
5.9433849606299214
20
-5.3169016535433071
11
5.9530852362204723
21
-5.3225021259842515
0
LINE
8
BLACK
6
CONTINUOUS
10
5.9530852362204723
20
-5.3225021259842515
11
5.9619715354330705
21
-5.3293207874015751
0
LINE
8
BLACK
6
CONTINUOUS
10
5.9619715354330705
20
-5.3293207874015751
11
5.9698918110236221
21
-5.3372410629921259
0
LINE
8
BLACK
6
CONTINUOUS
10
5.9698918110236221
20
-5.3372410629921259
11
5.9767104724409448
21
-5.3461273622047241
0
LINE
8
BLACK
6
CONTINUOUS
10
5.9767104724409448
20
-5.3461273622047241
11
5.9823109448818892
21
-5.3558276377952758
0
LINE
8
BLACK
6
CONTINUOUS
10
5.9823109448818892
20
-5.3558276377952758
11
5.9865973622047246
21
-5.3661759448818893
0
LINE
8
BLACK
6
CONTINUOUS
10
5.9865973622047246
20
-5.3661759448818893
11
5.9894963779527561
21
-5.3769952362204725
0
LINE
8
BLACK
6
CONTINUOUS
10
5.9894963779527561
20
-5.3769952362204725
11
5.9909583858267714
21
-5.3881003149606297
0
LINE
8
BLACK
6
CONTINUOUS
10
5.9909583858267714
20
-5.3881003149606297
11
5.9909583858267714
21
-5.3993012598425194
0
LINE
8
BLACK
6
CONTINUOUS
10
5.9909583858267714
20
-5.3993012598425194
11
5.9894963779527561
21
-5.4104063385826766
0
LINE
8
BLACK
6
CONTINUOUS
10
5.9894963779527561
20
-5.4104063385826766
11
5.9865973622047246
21
-5.4212256299212598
0
LINE
8
BLACK
6
CONTINUOUS
10
5.9865973622047246
20
-5.4212256299212598
11
5.9823109448818892
21
-5.4315739370078742
0
LINE
8
BLACK
6
CONTINUOUS
10
5.9823109448818892
20
-5.4315739370078742
11
5.9767104724409448
21
-5.441274212598425
0
LINE
8
BLACK
6
CONTINUOUS
10
5.9767104724409448
20
-5.441274212598425
11
5.9698918110236221
21
-5.4501605118110232
0
LINE
8
BLACK
6
CONTINUOUS
10
5.9698918110236221
20
-5.4501605118110232
11
5.9619715354330705
21
-5.4580807874015749
0
LINE
8
BLACK
6
CONTINUOUS
10
5.9619715354330705
20
-5.4580807874015749
11
5.9530852362204723
21
-5.4648994488188976
0
LINE
8
BLACK
6
CONTINUOUS
10
5.9530852362204723
20
-5.4648994488188976
11
5.9433849606299214
21
-5.470499921259842
0
LINE
8
BLACK
6
CONTINUOUS
10
5.9433849606299214
20
-5.470499921259842
11
5.933036653543307
21
-5.4747863385826774
0
LINE
8
BLACK
6
CONTINUOUS
10
5.933036653543307
20
-5.4747863385826774
11
5.9222173622047238
21
-5.4776853543307089
0
LINE
8
BLACK
6
CONTINUOUS
10
5.9222173622047238
20
-5.4776853543307089
11
5.9111122834645666
21
-5.4791473622047242
0
LINE
8
BLACK
6
CONTINUOUS
10
5.9111122834645666
20
-5.4791473622047242
11
5.8999113385826769
21
-5.4791473622047242
0
LINE
8
BLACK
6
CONTINUOUS
10
5.8999113385826769
20
-5.4791473622047242
11
5.8888062598425197
21
-5.4776853543307089
0
LINE
8
BLACK
6
CONTINUOUS
10
5.8888062598425197
20
-5.4776853543307089
11
5.8779869685039365
21
-5.4747863385826774
0
LINE
8
BLACK
6
CONTINUOUS
10
5.8779869685039365
20
-5.4747863385826774
11
5.867638661417323
21
-5.470499921259842
0
LINE
8
BLACK
6
CONTINUOUS
10
5.867638661417323
20
-5.470499921259842
11
5.8579383858267713
21
-5.4648994488188976
0
LINE
8
BLACK
6
CONTINUOUS
10
5.8579383858267713
20
-5.4648994488188976
11
5.8490520866141731
21
-5.4580807874015749
0
LINE
8
BLACK
6
CONTINUOUS
10
5.8490520866141731
20
-5.4580807874015749
11
5.8411318110236223
21
-5.4501605118110232
0
LINE
8
BLACK
6
CONTINUOUS
10
5.8411318110236223
20
-5.4501605118110232
11
5.8343131496062988
21
-5.441274212598425
0
LINE
8
BLACK
6
CONTINUOUS
10
5.8343131496062988
20
-5.441274212598425
11
5.8287126771653543
21
-5.4315739370078742
0
LINE
8
BLACK
6
CONTINUOUS
10
5.8287126771653543
20
-5.4315739370078742
11
5.8244262598425198
21
-5.4212256299212598
0
LINE
8
BLACK
6
CONTINUOUS
10
5.8244262598425198
20
-5.4212256299212598
11
5.8215272440944883
21
-5.4104063385826766
0
LINE
8
BLACK
6
CONTINUOUS
10
5.8215272440944883
20
-5.4104063385826766
11
5.8200652362204721
21
-5.3993012598425194
0
LINE
8
BLACK
6
CONTINUOUS
10
5.8200652362204721
20
-5.3993012598425194
11
5.8200652362204721
21
-5.3884753543307085
0
LINE
8
BLACK
6
CONTINUOUS
10
5.8200652362204721
20
-5.3884753543307085
11
5.8200652362204721
21
-5.3881003149606297
0
LINE
8
BLACK
6
CONTINUOUS
10
5.8200652362204721
20
-5.3881003149606297
11
5.8215272440944883
21
-5.3769952362204725
0
LINE
8
BLACK
6
CONTINUOUS
10
5.8215272440944883
20
-5.3769952362204725
11
5.8244262598425198
21
-5.3661759448818893
0
LINE
8
BLACK
6
CONTINUOUS
10
5.8244262598425198
20
-5.3661759448818893
11
5.8287126771653543
21
-5.3558276377952758
0
LINE
8
BLACK
6
CONTINUOUS
10
5.8287126771653543
20
-5.3558276377952758
11
5.8343131496062988
21
-5.3461273622047241
0
LINE
8
BLACK
6
CONTINUOUS
10
5.8343131496062988
20
-5.3461273622047241
11
5.8411318110236223
21
-5.3372410629921259
0
LINE
8
BLACK
6
CONTINUOUS
10
5.8411318110236223
20
-5.3372410629921259
11
5.8490520866141731
21
-5.3293207874015751
0
LINE
8
BLACK
6
CONTINUOUS
10
5.8490520866141731
20
-5.3293207874015751
11
5.8579383858267713
21
-5.3225021259842515
0
LINE
8
BLACK
6
CONTINUOUS
10
5.8579383858267713
20
-5.3225021259842515
11
5.867638661417323
21
-5.3169016535433071
0
LINE
8
BLACK
6
CONTINUOUS
10
5.867638661417323
20
-5.3169016535433071
11
5.8779869685039365
21
-5.3126152362204726
0
LINE
8
BLACK
6
CONTINUOUS
10
5.8779869685039365
20
-5.3126152362204726
11
5.8888062598425197
21
-5.3097162204724411
0
LINE
8
BLACK
6
CONTINUOUS
10
5.8888062598425197
20
-5.3097162204724411
11
5.8999113385826769
21
-5.3082542125984249
0
LINE
8
BLACK
6
CONTINUOUS
10
5.8999113385826769
20
-5.3082542125984249
11
5.9111122834645666
21
-5.3082542125984249
0
LINE
8
BLACK
6
CONTINUOUS
10
5.9111122834645666
20
-5.3082542125984249
11
5.9222173622047238
21
-5.3097162204724411
0
LINE
8
BLACK
6
CONTINUOUS
10
5.8257874015748028
20
-5.3989262204724406
11
5.8271514960629922
21
-5.4092876377952752
0
LINE
8
BLACK
6
CONTINUOUS
10
5.8271514960629922
20
-5.4092876377952752
11
5.8298563779527557
21
-5.4193823622047246
0
LINE
8
BLACK
6
CONTINUOUS
10
5.8298563779527557
20
-5.4193823622047246
11
5.8338557480314961
21
-5.4290376377952754
0
LINE
8
BLACK
6
CONTINUOUS
10
5.8338557480314961
20
-5.4290376377952754
11
5.839081141732283
21
-5.4380883464566931
0
LINE
8
BLACK
6
CONTINUOUS
10
5.839081141732283
20
-5.4380883464566931
11
5.8454432283464568
21
-5.4463795275590554
0
LINE
8
BLACK
6
CONTINUOUS
10
5.8454432283464568
20
-5.4463795275590554
11
5.8528330708661418
21
-5.4537693700787404
0
LINE
8
BLACK
6
CONTINUOUS
10
5.8528330708661418
20
-5.4537693700787404
11
5.8611242519685041
21
-5.4601314566929133
0
LINE
8
BLACK
6
CONTINUOUS
10
5.8611242519685041
20
-5.4601314566929133
11
5.8701749606299209
21
-5.4653568503937002
0
LINE
8
BLACK
6
CONTINUOUS
10
5.8701749606299209
20
-5.4653568503937002
11
5.8798302362204726
21
-5.4693562204724406
0
LINE
8
BLACK
6
CONTINUOUS
10
5.8798302362204726
20
-5.4693562204724406
11
5.8899249606299211
21
-5.472061102362205
0
LINE
8
BLACK
6
CONTINUOUS
10
5.8899249606299211
20
-5.472061102362205
11
5.9002863779527557
21
-5.4734251968503935
0
LINE
8
BLACK
6
CONTINUOUS
10
5.9002863779527557
20
-5.4734251968503935
11
5.9107372440944879
21
-5.4734251968503935
0
LINE
8
BLACK
6
CONTINUOUS
10
5.9107372440944879
20
-5.4734251968503935
11
5.9210986614173224
21
-5.472061102362205
0
LINE
8
BLACK
6
CONTINUOUS
10
5.9210986614173224
20
-5.472061102362205
11
5.9311933858267718
21
-5.4693562204724406
0
LINE
8
BLACK
6
CONTINUOUS
10
5.9311933858267718
20
-5.4693562204724406
11
5.9408486614173226
21
-5.4653568503937002
0
LINE
8
BLACK
6
CONTINUOUS
10
5.9408486614173226
20
-5.4653568503937002
11
5.9498993700787404
21
-5.4601314566929133
0
LINE
8
BLACK
6
CONTINUOUS
10
5.9498993700787404
20
-5.4601314566929133
11
5.9581905511811026
21
-5.4537693700787404
0
LINE
8
BLACK
6
CONTINUOUS
10
5.9581905511811026
20
-5.4537693700787404
11
5.9655803937007876
21
-5.4463795275590554
0
LINE
8
BLACK
6
CONTINUOUS
10
5.9655803937007876
20
-5.4463795275590554
11
5.9719424803149606
21
-5.4380883464566931
0
LINE
8
BLACK
6
CONTINUOUS
10
5.9719424803149606
20
-5.4380883464566931
11
5.9771678740157483
21
-5.4290376377952754
0
LINE
8
BLACK
6
CONTINUOUS
10
5.9771678740157483
20
-5.4290376377952754
11
5.9811672440944879
21
-5.4193823622047246
0
LINE
8
BLACK
6
CONTINUOUS
10
5.9811672440944879
20
-5.4193823622047246
11
5.9838721259842522
21
-5.4092876377952752
0
LINE
8
BLACK
6
CONTINUOUS
10
5.9838721259842522
20
-5.4092876377952752
11
5.9852362204724407
21
-5.3989262204724406
0
LINE
8
BLACK
6
CONTINUOUS
10
5.9852362204724407
20
-5.3989262204724406
11
5.9852362204724407
21
-5.3884753543307085
0
LINE
8
BLACK
6
CONTINUOUS
10
5.9852362204724407
20
-5.3884753543307085
11
5.9838721259842522
21
-5.3781139370078739
0
LINE
8
BLACK
6
CONTINUOUS
10
5.9838721259842522
20
-5.3781139370078739
11
5.9811672440944879
21
-5.3680192125984254
0
LINE
8
BLACK
6
CONTINUOUS
10
5.9811672440944879
20
-5.3680192125984254
11
5.9771678740157483
21
-5.3583639370078737
0
LINE
8
BLACK
6
CONTINUOUS
10
5.9771678740157483
20
-5.3583639370078737
11
5.9719424803149606
21
-5.3493132283464568
0
LINE
8
BLACK
6
CONTINUOUS
10
5.9719424803149606
20
-5.3493132283464568
11
5.9655803937007876
21
-5.3410220472440946
0
LINE
8
BLACK
6
CONTINUOUS
10
5.9655803937007876
20
-5.3410220472440946
11
5.9581905511811026
21
-5.3336322047244096
0
LINE
8
BLACK
6
CONTINUOUS
10
5.9581905511811026
20
-5.3336322047244096
11
5.9498993700787404
21
-5.3272701181102358
0
LINE
8
BLACK
6
CONTINUOUS
10
5.9498993700787404
20
-5.3272701181102358
11
5.9408486614173226
21
-5.3220447244094489
0
LINE
8
BLACK
6
CONTINUOUS
10
5.9408486614173226
20
-5.3220447244094489
11
5.9311933858267718
21
-5.3180453543307085
0
LINE
8
BLACK
6
CONTINUOUS
10
5.9311933858267718
20
-5.3180453543307085
11
5.9210986614173224
21
-5.315340472440945
0
LINE
8
BLACK
6
CONTINUOUS
10
5.9210986614173224
20
-5.315340472440945
11
5.9107372440944879
21
-5.3139763779527556
0
LINE
8
BLACK
6
CONTINUOUS
10
5.9107372440944879
20
-5.3139763779527556
11
5.9002863779527557
21
-5.3139763779527556
0
LINE
8
BLACK
6
CONTINUOUS
10
5.9002863779527557
20
-5.3139763779527556
11
5.8899249606299211
21
-5.315340472440945
0
LINE
8
BLACK
6
CONTINUOUS
10
5.8899249606299211
20
-5.315340472440945
11
5.8798302362204726
21
-5.3180453543307085
0
LINE
8
BLACK
6
CONTINUOUS
10
5.8798302362204726
20
-5.3180453543307085
11
5.8701749606299209
21
-5.3220447244094489
0
LINE
8
BLACK
6
CONTINUOUS
10
5.8701749606299209
20
-5.3220447244094489
11
5.8611242519685041
21
-5.3272701181102358
0
LINE
8
BLACK
6
CONTINUOUS
10
5.8611242519685041
20
-5.3272701181102358
11
5.8528330708661418
21
-5.3336322047244096
0
LINE
8
BLACK
6
CONTINUOUS
10
5.8528330708661418
20
-5.3336322047244096
11
5.8454432283464568
21
-5.3410220472440946
0
LINE
8
BLACK
6
CONTINUOUS
10
5.8454432283464568
20
-5.3410220472440946
11
5.839081141732283
21
-5.3493132283464568
0
LINE
8
BLACK
6
CONTINUOUS
10
5.839081141732283
20
-5.3493132283464568
11
5.8338557480314961
21
-5.3583639370078737
0
LINE
8
BLACK
6
CONTINUOUS
10
5.8338557480314961
20
-5.3583639370078737
11
5.8298563779527557
21
-5.3680192125984254
0
LINE
8
BLACK
6
CONTINUOUS
10
5.8298563779527557
20
-5.3680192125984254
11
5.8271514960629922
21
-5.3781139370078739
0
LINE
8
BLACK
6
CONTINUOUS
10
5.8271514960629922
20
-5.3781139370078739
11
5.8257874015748028
21
-5.3884753543307085
0
LINE
8
BLACK
6
CONTINUOUS
10
5.8257874015748028
20
-5.3884753543307085
11
5.8257874015748028
21
-5.3989262204724406
0
LINE
8
BLACK
6
CONTINUOUS
10
4.4655244488188979
20
-3.8530233070866142
11
4.4763437401574802
21
-3.8559223228346458
0
LINE
8
BLACK
6
CONTINUOUS
10
4.4763437401574802
20
-3.8559223228346458
11
4.4866920472440945
21
-3.8602087401574803
0
LINE
8
BLACK
6
CONTINUOUS
10
4.4866920472440945
20
-3.8602087401574803
11
4.4963923228346454
21
-3.8658092125984251
0
LINE
8
BLACK
6
CONTINUOUS
10
4.4963923228346454
20
-3.8658092125984251
11
4.5052786220472436
21
-3.8726278740157478
0
LINE
8
BLACK
6
CONTINUOUS
10
4.5052786220472436
20
-3.8726278740157478
11
4.5131988976377952
21
-3.880548149606299
0
LINE
8
BLACK
6
CONTINUOUS
10
4.5131988976377952
20
-3.880548149606299
11
4.5200175590551179
21
-3.8894344488188977
0
LINE
8
BLACK
6
CONTINUOUS
10
4.5200175590551179
20
-3.8894344488188977
11
4.5256180314960632
21
-3.8991347244094485
0
LINE
8
BLACK
6
CONTINUOUS
10
4.5256180314960632
20
-3.8991347244094485
11
4.5299044488188978
21
-3.9094830314960629
0
LINE
8
BLACK
6
CONTINUOUS
10
4.5299044488188978
20
-3.9094830314960629
11
4.5328034645669293
21
-3.9203023228346456
0
LINE
8
BLACK
6
CONTINUOUS
10
4.5328034645669293
20
-3.9203023228346456
11
4.5342654724409446
21
-3.9314074015748028
0
LINE
8
BLACK
6
CONTINUOUS
10
4.5342654724409446
20
-3.9314074015748028
11
4.5342654724409446
21
-3.942608346456693
0
LINE
8
BLACK
6
CONTINUOUS
10
4.5342654724409446
20
-3.942608346456693
11
4.5328034645669293
21
-3.9537134251968502
0
LINE
8
BLACK
6
CONTINUOUS
10
4.5328034645669293
20
-3.9537134251968502
11
4.5299044488188978
21
-3.9645327165354329
0
LINE
8
BLACK
6
CONTINUOUS
10
4.5299044488188978
20
-3.9645327165354329
11
4.5256180314960632
21
-3.9748810236220473
0
LINE
8
BLACK
6
CONTINUOUS
10
4.5256180314960632
20
-3.9748810236220473
11
4.5200175590551179
21
-3.9845812992125982
0
LINE
8
BLACK
6
CONTINUOUS
10
4.5200175590551179
20
-3.9845812992125982
11
4.5131988976377952
21
-3.9934675984251968
0
LINE
8
BLACK
6
CONTINUOUS
10
4.5131988976377952
20
-3.9934675984251968
11
4.5052786220472436
21
-4.001387874015748
0
LINE
8
BLACK
6
CONTINUOUS
10
4.5052786220472436
20
-4.001387874015748
11
4.4963923228346454
21
-4.0082065354330707
0
LINE
8
BLACK
6
CONTINUOUS
10
4.4963923228346454
20
-4.0082065354330707
11
4.4866920472440945
21
-4.013807007874016
0
LINE
8
BLACK
6
CONTINUOUS
10
4.4866920472440945
20
-4.013807007874016
11
4.4763437401574802
21
-4.0180934251968505
0
LINE
8
BLACK
6
CONTINUOUS
10
4.4763437401574802
20
-4.0180934251968505
11
4.4655244488188979
21
-4.0209924409448821
0
LINE
8
BLACK
6
CONTINUOUS
10
4.4655244488188979
20
-4.0209924409448821
11
4.4544193700787398
21
-4.0224544488188974
0
LINE
8
BLACK
6
CONTINUOUS
10
4.4544193700787398
20
-4.0224544488188974
11
4.4432184251968501
21
-4.0224544488188974
0
LINE
8
BLACK
6
CONTINUOUS
10
4.4432184251968501
20
-4.0224544488188974
11
4.4321133464566929
21
-4.0209924409448821
0
LINE
8
BLACK
6
CONTINUOUS
10
4.4321133464566929
20
-4.0209924409448821
11
4.4212940551181106
21
-4.0180934251968505
0
LINE
8
BLACK
6
CONTINUOUS
10
4.4212940551181106
20
-4.0180934251968505
11
4.4109457480314962
21
-4.013807007874016
0
LINE
8
BLACK
6
CONTINUOUS
10
4.4109457480314962
20
-4.013807007874016
11
4.4012454724409444
21
-4.0082065354330707
0
LINE
8
BLACK
6
CONTINUOUS
10
4.4012454724409444
20
-4.0082065354330707
11
4.3923591732283462
21
-4.001387874015748
0
LINE
8
BLACK
6
CONTINUOUS
10
4.3923591732283462
20
-4.001387874015748
11
4.3844388976377955
21
-3.9934675984251968
0
LINE
8
BLACK
6
CONTINUOUS
10
4.3844388976377955
20
-3.9934675984251968
11
4.3776202362204719
21
-3.9845812992125982
0
LINE
8
BLACK
6
CONTINUOUS
10
4.3776202362204719
20
-3.9845812992125982
11
4.3720197637795275
21
-3.9748810236220473
0
LINE
8
BLACK
6
CONTINUOUS
10
4.3720197637795275
20
-3.9748810236220473
11
4.367733346456693
21
-3.9645327165354329
0
LINE
8
BLACK
6
CONTINUOUS
10
4.367733346456693
20
-3.9645327165354329
11
4.3648343307086614
21
-3.9537134251968502
0
LINE
8
BLACK
6
CONTINUOUS
10
4.3648343307086614
20
-3.9537134251968502
11
4.3633723228346453
21
-3.942608346456693
0
LINE
8
BLACK
6
CONTINUOUS
10
4.3633723228346453
20
-3.942608346456693
11
4.3633723228346453
21
-3.9317824409448816
0
LINE
8
BLACK
6
CONTINUOUS
10
4.3633723228346453
20
-3.9317824409448816
11
4.3633723228346453
21
-3.9314074015748028
0
LINE
8
BLACK
6
CONTINUOUS
10
4.3633723228346453
20
-3.9314074015748028
11
4.3648343307086614
21
-3.9203023228346456
0
LINE
8
BLACK
6
CONTINUOUS
10
4.3648343307086614
20
-3.9203023228346456
11
4.367733346456693
21
-3.9094830314960629
0
LINE
8
BLACK
6
CONTINUOUS
10
4.367733346456693
20
-3.9094830314960629
11
4.3720197637795275
21
-3.8991347244094485
0
LINE
8
BLACK
6
CONTINUOUS
10
4.3720197637795275
20
-3.8991347244094485
11
4.3776202362204719
21
-3.8894344488188977
0
LINE
8
BLACK
6
CONTINUOUS
10
4.3776202362204719
20
-3.8894344488188977
11
4.3844388976377955
21
-3.880548149606299
0
LINE
8
BLACK
6
CONTINUOUS
10
4.3844388976377955
20
-3.880548149606299
11
4.3923591732283462
21
-3.8726278740157478
0
LINE
8
BLACK
6
CONTINUOUS
10
4.3923591732283462
20
-3.8726278740157478
11
4.4012454724409444
21
-3.8658092125984251
0
LINE
8
BLACK
6
CONTINUOUS
10
4.4012454724409444
20
-3.8658092125984251
11
4.4109457480314962
21
-3.8602087401574803
0
LINE
8
BLACK
6
CONTINUOUS
10
4.4109457480314962
20
-3.8602087401574803
11
4.4212940551181106
21
-3.8559223228346458
0
LINE
8
BLACK
6
CONTINUOUS
10
4.4212940551181106
20
-3.8559223228346458
11
4.4321133464566929
21
-3.8530233070866142
0
LINE
8
BLACK
6
CONTINUOUS
10
4.4321133464566929
20
-3.8530233070866142
11
4.4432184251968501
21
-3.8515612992125985
0
LINE
8
BLACK
6
CONTINUOUS
10
4.4432184251968501
20
-3.8515612992125985
11
4.4544193700787398
21
-3.8515612992125985
0
LINE
8
BLACK
6
CONTINUOUS
10
4.4544193700787398
20
-3.8515612992125985
11
4.4655244488188979
21
-3.8530233070866142
0
LINE
8
BLACK
6
CONTINUOUS
10
4.3690944881889759
20
-3.9422333070866142
11
4.3704585826771654
21
-3.9525947244094488
0
LINE
8
BLACK
6
CONTINUOUS
10
4.3704585826771654
20
-3.9525947244094488
11
4.3731634645669288
21
-3.9626894488188977
0
LINE
8
BLACK
6
CONTINUOUS
10
4.3731634645669288
20
-3.9626894488188977
11
4.3771628346456692
21
-3.9723447244094485
0
LINE
8
BLACK
6
CONTINUOUS
10
4.3771628346456692
20
-3.9723447244094485
11
4.382388228346457
21
-3.9813954330708659
0
LINE
8
BLACK
6
CONTINUOUS
10
4.382388228346457
20
-3.9813954330708659
11
4.38875031496063
21
-3.9896866141732281
0
LINE
8
BLACK
6
CONTINUOUS
10
4.38875031496063
20
-3.9896866141732281
11
4.3961401574803149
21
-3.9970764566929131
0
LINE
8
BLACK
6
CONTINUOUS
10
4.3961401574803149
20
-3.9970764566929131
11
4.4044313385826772
21
-4.0034385433070865
0
LINE
8
BLACK
6
CONTINUOUS
10
4.4044313385826772
20
-4.0034385433070865
11
4.4134820472440941
21
-4.0086639370078743
0
LINE
8
BLACK
6
CONTINUOUS
10
4.4134820472440941
20
-4.0086639370078743
11
4.4231373228346458
21
-4.0126633070866138
0
LINE
8
BLACK
6
CONTINUOUS
10
4.4231373228346458
20
-4.0126633070866138
11
4.4332320472440943
21
-4.0153681889763781
0
LINE
8
BLACK
6
CONTINUOUS
10
4.4332320472440943
20
-4.0153681889763781
11
4.4435934645669288
21
-4.0167322834645667
0
LINE
8
BLACK
6
CONTINUOUS
10
4.4435934645669288
20
-4.0167322834645667
11
4.454044330708661
21
-4.0167322834645667
0
LINE
8
BLACK
6
CONTINUOUS
10
4.454044330708661
20
-4.0167322834645667
11
4.4644057480314956
21
-4.0153681889763781
0
LINE
8
BLACK
6
CONTINUOUS
10
4.4644057480314956
20
-4.0153681889763781
11
4.474500472440945
21
-4.0126633070866138
0
LINE
8
BLACK
6
CONTINUOUS
10
4.474500472440945
20
-4.0126633070866138
11
4.4841557480314957
21
-4.0086639370078743
0
LINE
8
BLACK
6
CONTINUOUS
10
4.4841557480314957
20
-4.0086639370078743
11
4.4932064566929135
21
-4.0034385433070865
0
LINE
8
BLACK
6
CONTINUOUS
10
4.4932064566929135
20
-4.0034385433070865
11
4.5014976377952758
21
-3.9970764566929131
0
LINE
8
BLACK
6
CONTINUOUS
10
4.5014976377952758
20
-3.9970764566929131
11
4.5088874803149608
21
-3.9896866141732281
0
LINE
8
BLACK
6
CONTINUOUS
10
4.5088874803149608
20
-3.9896866141732281
11
4.5152495669291337
21
-3.9813954330708659
0
LINE
8
BLACK
6
CONTINUOUS
10
4.5152495669291337
20
-3.9813954330708659
11
4.5204749606299215
21
-3.9723447244094485
0
LINE
8
BLACK
6
CONTINUOUS
10
4.5204749606299215
20
-3.9723447244094485
11
4.524474330708661
21
-3.9626894488188977
0
LINE
8
BLACK
6
CONTINUOUS
10
4.524474330708661
20
-3.9626894488188977
11
4.5271792125984254
21
-3.9525947244094488
0
LINE
8
BLACK
6
CONTINUOUS
10
4.5271792125984254
20
-3.9525947244094488
11
4.5285433070866139
21
-3.9422333070866142
0
LINE
8
BLACK
6
CONTINUOUS
10
4.5285433070866139
20
-3.9422333070866142
11
4.5285433070866139
21
-3.9317824409448816
0
LINE
8
BLACK
6
CONTINUOUS
10
4.5285433070866139
20
-3.9317824409448816
11
4.5271792125984254
21
-3.921421023622047
0
LINE
8
BLACK
6
CONTINUOUS
10
4.5271792125984254
20
-3.921421023622047
11
4.524474330708661
21
-3.9113262992125986
0
LINE
8
BLACK
6
CONTINUOUS
10
4.524474330708661
20
-3.9113262992125986
11
4.5204749606299215
21
-3.9016710236220473
0
LINE
8
BLACK
6
CONTINUOUS
10
4.5204749606299215
20
-3.9016710236220473
11
4.5152495669291337
21
-3.89262031496063
0
LINE
8
BLACK
6
CONTINUOUS
10
4.5152495669291337
20
-3.89262031496063
11
4.5088874803149608
21
-3.8843291338582677
0
LINE
8
BLACK
6
CONTINUOUS
10
4.5088874803149608
20
-3.8843291338582677
11
4.5014976377952758
21
-3.8769392913385827
0
LINE
8
BLACK
6
CONTINUOUS
10
4.5014976377952758
20
-3.8769392913385827
11
4.4932064566929135
21
-3.8705772047244094
0
LINE
8
BLACK
6
CONTINUOUS
10
4.4932064566929135
20
-3.8705772047244094
11
4.4841557480314957
21
-3.865351811023622
0
LINE
8
BLACK
6
CONTINUOUS
10
4.4841557480314957
20
-3.865351811023622
11
4.474500472440945
21
-3.8613524409448816
0
LINE
8
BLACK
6
CONTINUOUS
10
4.474500472440945
20
-3.8613524409448816
11
4.4644057480314956
21
-3.8586475590551181
0
LINE
8
BLACK
6
CONTINUOUS
10
4.4644057480314956
20
-3.8586475590551181
11
4.454044330708661
21
-3.8572834645669292
0
LINE
8
BLACK
6
CONTINUOUS
10
4.454044330708661
20
-3.8572834645669292
11
4.4435934645669288
21
-3.8572834645669292
0
LINE
8
BLACK
6
CONTINUOUS
10
4.4435934645669288
20
-3.8572834645669292
11
4.4332320472440943
21
-3.8586475590551181
0
LINE
8
BLACK
6
CONTINUOUS
10
4.4332320472440943
20
-3.8586475590551181
11
4.4231373228346458
21
-3.8613524409448816
0
LINE
8
BLACK
6
CONTINUOUS
10
4.4231373228346458
20
-3.8613524409448816
11
4.4134820472440941
21
-3.865351811023622
0
LINE
8
BLACK
6
CONTINUOUS
10
4.4134820472440941
20
-3.865351811023622
11
4.4044313385826772
21
-3.8705772047244094
0
LINE
8
BLACK
6
CONTINUOUS
10
4.4044313385826772
20
-3.8705772047244094
11
4.3961401574803149
21
-3.8769392913385827
0
LINE
8
BLACK
6
CONTINUOUS
10
4.3961401574803149
20
-3.8769392913385827
11
4.38875031496063
21
-3.8843291338582677
0
LINE
8
BLACK
6
CONTINUOUS
10
4.38875031496063
20
-3.8843291338582677
11
4.382388228346457
21
-3.89262031496063
0
LINE
8
BLACK
6
CONTINUOUS
10
4.382388228346457
20
-3.89262031496063
11
4.3771628346456692
21
-3.9016710236220473
0
LINE
8
BLACK
6
CONTINUOUS
10
4.3771628346456692
20
-3.9016710236220473
11
4.3731634645669288
21
-3.9113262992125986
0
LINE
8
BLACK
6
CONTINUOUS
10
4.3731634645669288
20
-3.9113262992125986
11
4.3704585826771654
21
-3.921421023622047
0
LINE
8
BLACK
6
CONTINUOUS
10
4.3704585826771654
20
-3.921421023622047
11
4.3690944881889759
21
-3.9317824409448816
0
LINE
8
BLACK
6
CONTINUOUS
10
4.3690944881889759
20
-3.9317824409448816
11
4.3690944881889759
21
-3.9422333070866142
0
LINE
8
BLACK
6
CONTINUOUS
10
7.3789102755905507
20
-3.8530233070866142
11
7.3897295669291339
21
-3.8559223228346458
0
LINE
8
BLACK
6
CONTINUOUS
10
7.3897295669291339
20
-3.8559223228346458
11
7.4000778740157482
21
-3.8602087401574803
0
LINE
8
BLACK
6
CONTINUOUS
10
7.4000778740157482
20
-3.8602087401574803
11
7.4097781496062991
21
-3.8658092125984251
0
LINE
8
BLACK
6
CONTINUOUS
10
7.4097781496062991
20
-3.8658092125984251
11
7.4186644488188973
21
-3.8726278740157478
0
LINE
8
BLACK
6
CONTINUOUS
10
7.4186644488188973
20
-3.8726278740157478
11
7.4265847244094489
21
-3.880548149606299
0
LINE
8
BLACK
6
CONTINUOUS
10
7.4265847244094489
20
-3.880548149606299
11
7.4334033858267716
21
-3.8894344488188977
0
LINE
8
BLACK
6
CONTINUOUS
10
7.4334033858267716
20
-3.8894344488188977
11
7.439003858267716
21
-3.8991347244094485
0
LINE
8
BLACK
6
CONTINUOUS
10
7.439003858267716
20
-3.8991347244094485
11
7.4432902755905515
21
-3.9094830314960629
0
LINE
8
BLACK
6
CONTINUOUS
10
7.4432902755905515
20
-3.9094830314960629
11
7.4461892913385821
21
-3.9203023228346456
0
LINE
8
BLACK
6
CONTINUOUS
10
7.4461892913385821
20
-3.9203023228346456
11
7.4476512992125983
21
-3.9314074015748028
0
LINE
8
BLACK
6
CONTINUOUS
10
7.4476512992125983
20
-3.9314074015748028
11
7.4476512992125983
21
-3.942608346456693
0
LINE
8
BLACK
6
CONTINUOUS
10
7.4476512992125983
20
-3.942608346456693
11
7.4461892913385821
21
-3.9537134251968502
0
LINE
8
BLACK
6
CONTINUOUS
10
7.4461892913385821
20
-3.9537134251968502
11
7.4432902755905515
21
-3.9645327165354329
0
LINE
8
BLACK
6
CONTINUOUS
10
7.4432902755905515
20
-3.9645327165354329
11
7.439003858267716
21
-3.9748810236220473
0
LINE
8
BLACK
6
CONTINUOUS
10
7.439003858267716
20
-3.9748810236220473
11
7.4334033858267716
21
-3.9845812992125982
0
LINE
8
BLACK
6
CONTINUOUS
10
7.4334033858267716
20
-3.9845812992125982
11
7.4265847244094489
21
-3.9934675984251968
0
LINE
8
BLACK
6
CONTINUOUS
10
7.4265847244094489
20
-3.9934675984251968
11
7.4186644488188973
21
-4.001387874015748
0
LINE
8
BLACK
6
CONTINUOUS
10
7.4186644488188973
20
-4.001387874015748
11
7.4097781496062991
21
-4.0082065354330707
0
LINE
8
BLACK
6
CONTINUOUS
10
7.4097781496062991
20
-4.0082065354330707
11
7.4000778740157482
21
-4.013807007874016
0
LINE
8
BLACK
6
CONTINUOUS
10
7.4000778740157482
20
-4.013807007874016
11
7.3897295669291339
21
-4.0180934251968505
0
LINE
8
BLACK
6
CONTINUOUS
10
7.3897295669291339
20
-4.0180934251968505
11
7.3789102755905507
21
-4.0209924409448821
0
LINE
8
BLACK
6
CONTINUOUS
10
7.3789102755905507
20
-4.0209924409448821
11
7.3678051968503935
21
-4.0224544488188974
0
LINE
8
BLACK
6
CONTINUOUS
10
7.3678051968503935
20
-4.0224544488188974
11
7.3566042519685038
21
-4.0224544488188974
0
LINE
8
BLACK
6
CONTINUOUS
10
7.3566042519685038
20
-4.0224544488188974
11
7.3454991732283466
21
-4.0209924409448821
0
LINE
8
BLACK
6
CONTINUOUS
10
7.3454991732283466
20
-4.0209924409448821
11
7.3346798818897634
21
-4.0180934251968505
0
LINE
8
BLACK
6
CONTINUOUS
10
7.3346798818897634
20
-4.0180934251968505
11
7.324331574803149
21
-4.013807007874016
0
LINE
8
BLACK
6
CONTINUOUS
10
7.324331574803149
20
-4.013807007874016
11
7.3146312992125981
21
-4.0082065354330707
0
LINE
8
BLACK
6
CONTINUOUS
10
7.3146312992125981
20
-4.0082065354330707
11
7.3057449999999999
21
-4.001387874015748
0
LINE
8
BLACK
6
CONTINUOUS
10
7.3057449999999999
20
-4.001387874015748
11
7.2978247244094483
21
-3.9934675984251968
0
LINE
8
BLACK
6
CONTINUOUS
10
7.2978247244094483
20
-3.9934675984251968
11
7.2910060629921256
21
-3.9845812992125982
0
LINE
8
BLACK
6
CONTINUOUS
10
7.2910060629921256
20
-3.9845812992125982
11
7.2854055905511812
21
-3.9748810236220473
0
LINE
8
BLACK
6
CONTINUOUS
10
7.2854055905511812
20
-3.9748810236220473
11
7.2811191732283467
21
-3.9645327165354329
0
LINE
8
BLACK
6
CONTINUOUS
10
7.2811191732283467
20
-3.9645327165354329
11
7.2782201574803151
21
-3.9537134251968502
0
LINE
8
BLACK
6
CONTINUOUS
10
7.2782201574803151
20
-3.9537134251968502
11
7.276758149606299
21
-3.942608346456693
0
LINE
8
BLACK
6
CONTINUOUS
10
7.276758149606299
20
-3.942608346456693
11
7.276758149606299
21
-3.9317824409448816
0
LINE
8
BLACK
6
CONTINUOUS
10
7.276758149606299
20
-3.9317824409448816
11
7.276758149606299
21
-3.9314074015748028
0
LINE
8
BLACK
6
CONTINUOUS
10
7.276758149606299
20
-3.9314074015748028
11
7.2782201574803151
21
-3.9203023228346456
0
LINE
8
BLACK
6
CONTINUOUS
10
7.2782201574803151
20
-3.9203023228346456
11
7.2811191732283467
21
-3.9094830314960629
0
LINE
8
BLACK
6
CONTINUOUS
10
7.2811191732283467
20
-3.9094830314960629
11
7.2854055905511812
21
-3.8991347244094485
0
LINE
8
BLACK
6
CONTINUOUS
10
7.2854055905511812
20
-3.8991347244094485
11
7.2910060629921256
21
-3.8894344488188977
0
LINE
8
BLACK
6
CONTINUOUS
10
7.2910060629921256
20
-3.8894344488188977
11
7.2978247244094483
21
-3.880548149606299
0
LINE
8
BLACK
6
CONTINUOUS
10
7.2978247244094483
20
-3.880548149606299
11
7.3057449999999999
21
-3.8726278740157478
0
LINE
8
BLACK
6
CONTINUOUS
10
7.3057449999999999
20
-3.8726278740157478
11
7.3146312992125981
21
-3.8658092125984251
0
LINE
8
BLACK
6
CONTINUOUS
10
7.3146312992125981
20
-3.8658092125984251
11
7.324331574803149
21
-3.8602087401574803
0
LINE
8
BLACK
6
CONTINUOUS
10
7.324331574803149
20
-3.8602087401574803
11
7.3346798818897634
21
-3.8559223228346458
0
LINE
8
BLACK
6
CONTINUOUS
10
7.3346798818897634
20
-3.8559223228346458
11
7.3454991732283466
21
-3.8530233070866142
0
LINE
8
BLACK
6
CONTINUOUS
10
7.3454991732283466
20
-3.8530233070866142
11
7.3566042519685038
21
-3.8515612992125985
0
LINE
8
BLACK
6
CONTINUOUS
10
7.3566042519685038
20
-3.8515612992125985
11
7.3678051968503935
21
-3.8515612992125985
0
LINE
8
BLACK
6
CONTINUOUS
10
7.3678051968503935
20
-3.8515612992125985
11
7.3789102755905507
21
-3.8530233070866142
0
LINE
8
BLACK
6
CONTINUOUS
10
7.2824803149606296
20
-3.9422333070866142
11
7.2838444094488191
21
-3.9525947244094488
0
LINE
8
BLACK
6
CONTINUOUS
10
7.2838444094488191
20
-3.9525947244094488
11
7.2865492913385825
21
-3.9626894488188977
0
LINE
8
BLACK
6
CONTINUOUS
10
7.2865492913385825
20
-3.9626894488188977
11
7.2905486614173229
21
-3.9723447244094485
0
LINE
8
BLACK
6
CONTINUOUS
10
7.2905486614173229
20
-3.9723447244094485
11
7.2957740551181098
21
-3.9813954330708659
0
LINE
8
BLACK
6
CONTINUOUS
10
7.2957740551181098
20
-3.9813954330708659
11
7.3021361417322836
21
-3.9896866141732281
0
LINE
8
BLACK
6
CONTINUOUS
10
7.3021361417322836
20
-3.9896866141732281
11
7.3095259842519686
21
-3.9970764566929131
0
LINE
8
BLACK
6
CONTINUOUS
10
7.3095259842519686
20
-3.9970764566929131
11
7.3178171653543309
21
-4.0034385433070865
0
LINE
8
BLACK
6
CONTINUOUS
10
7.3178171653543309
20
-4.0034385433070865
11
7.3268678740157478
21
-4.0086639370078743
0
LINE
8
BLACK
6
CONTINUOUS
10
7.3268678740157478
20
-4.0086639370078743
11
7.3365231496062995
21
-4.0126633070866138
0
LINE
8
BLACK
6
CONTINUOUS
10
7.3365231496062995
20
-4.0126633070866138
11
7.346617874015748
21
-4.0153681889763781
0
LINE
8
BLACK
6
CONTINUOUS
10
7.346617874015748
20
-4.0153681889763781
11
7.3569792913385825
21
-4.0167322834645667
0
LINE
8
BLACK
6
CONTINUOUS
10
7.3569792913385825
20
-4.0167322834645667
11
7.3674301574803147
21
-4.0167322834645667
0
LINE
8
BLACK
6
CONTINUOUS
10
7.3674301574803147
20
-4.0167322834645667
11
7.3777915748031493
21
-4.0153681889763781
0
LINE
8
BLACK
6
CONTINUOUS
10
7.3777915748031493
20
-4.0153681889763781
11
7.3878862992125987
21
-4.0126633070866138
0
LINE
8
BLACK
6
CONTINUOUS
10
7.3878862992125987
20
-4.0126633070866138
11
7.3975415748031494
21
-4.0086639370078743
0
LINE
8
BLACK
6
CONTINUOUS
10
7.3975415748031494
20
-4.0086639370078743
11
7.4065922834645663
21
-4.0034385433070865
0
LINE
8
BLACK
6
CONTINUOUS
10
7.4065922834645663
20
-4.0034385433070865
11
7.4148834645669286
21
-3.9970764566929131
0
LINE
8
BLACK
6
CONTINUOUS
10
7.4148834645669286
20
-3.9970764566929131
11
7.4222733070866136
21
-3.9896866141732281
0
LINE
8
BLACK
6
CONTINUOUS
10
7.4222733070866136
20
-3.9896866141732281
11
7.4286353937007874
21
-3.9813954330708659
0
LINE
8
BLACK
6
CONTINUOUS
10
7.4286353937007874
20
-3.9813954330708659
11
7.4338607874015743
21
-3.9723447244094485
0
LINE
8
BLACK
6
CONTINUOUS
10
7.4338607874015743
20
-3.9723447244094485
11
7.4378601574803147
21
-3.9626894488188977
0
LINE
8
BLACK
6
CONTINUOUS
10
7.4378601574803147
20
-3.9626894488188977
11
7.4405650393700782
21
-3.9525947244094488
0
LINE
8
BLACK
6
CONTINUOUS
10
7.4405650393700782
20
-3.9525947244094488
11
7.4419291338582676
21
-3.9422333070866142
0
LINE
8
BLACK
6
CONTINUOUS
10
7.4419291338582676
20
-3.9422333070866142
11
7.4419291338582676
21
-3.9317824409448816
0
LINE
8
BLACK
6
CONTINUOUS
10
7.4419291338582676
20
-3.9317824409448816
11
7.4405650393700782
21
-3.921421023622047
0
LINE
8
BLACK
6
CONTINUOUS
10
7.4405650393700782
20
-3.921421023622047
11
7.4378601574803147
21
-3.9113262992125986
0
LINE
8
BLACK
6
CONTINUOUS
10
7.4378601574803147
20
-3.9113262992125986
11
7.4338607874015743
21
-3.9016710236220473
0
LINE
8
BLACK
6
CONTINUOUS
10
7.4338607874015743
20
-3.9016710236220473
11
7.4286353937007874
21
-3.89262031496063
0
LINE
8
BLACK
6
CONTINUOUS
10
7.4286353937007874
20
-3.89262031496063
11
7.4222733070866136
21
-3.8843291338582677
0
LINE
8
BLACK
6
CONTINUOUS
10
7.4222733070866136
20
-3.8843291338582677
11
7.4148834645669286
21
-3.8769392913385827
0
LINE
8
BLACK
6
CONTINUOUS
10
7.4148834645669286
20
-3.8769392913385827
11
7.4065922834645663
21
-3.8705772047244094
0
LINE
8
BLACK
6
CONTINUOUS
10
7.4065922834645663
20
-3.8705772047244094
11
7.3975415748031494
21
-3.865351811023622
0
LINE
8
BLACK
6
CONTINUOUS
10
7.3975415748031494
20
-3.865351811023622
11
7.3878862992125987
21
-3.8613524409448816
0
LINE
8
BLACK
6
CONTINUOUS
10
7.3878862992125987
20
-3.8613524409448816
11
7.3777915748031493
21
-3.8586475590551181
0
LINE
8
BLACK
6
CONTINUOUS
10
7.3777915748031493
20
-3.8586475590551181
11
7.3674301574803147
21
-3.8572834645669292
0
LINE
8
BLACK
6
CONTINUOUS
10
7.3674301574803147
20
-3.8572834645669292
11
7.3569792913385825
21
-3.8572834645669292
0
LINE
8
BLACK
6
CONTINUOUS
10
7.3569792913385825
20
-3.8572834645669292
11
7.346617874015748
21
-3.8586475590551181
0
LINE
8
BLACK
6
CONTINUOUS
10
7.346617874015748
20
-3.8586475590551181
11
7.3365231496062995
21
-3.8613524409448816
0
LINE
8
BLACK
6
CONTINUOUS
10
7.3365231496062995
20
-3.8613524409448816
11
7.3268678740157478
21
-3.865351811023622
0
LINE
8
BLACK
6
CONTINUOUS
10
7.3268678740157478
20
-3.865351811023622
11
7.3178171653543309
21
-3.8705772047244094
0
LINE
8
BLACK
6
CONTINUOUS
10
7.3178171653543309
20
-3.8705772047244094
11
7.3095259842519686
21
-3.8769392913385827
0
LINE
8
BLACK
6
CONTINUOUS
10
7.3095259842519686
20
-3.8769392913385827
11
7.3021361417322836
21
-3.8843291338582677
0
LINE
8
BLACK
6
CONTINUOUS
10
7.3021361417322836
20
-3.8843291338582677
11
7.2957740551181098
21
-3.89262031496063
0
LINE
8
BLACK
6
CONTINUOUS
10
7.2957740551181098
20
-3.89262031496063
11
7.2905486614173229
21
-3.9016710236220473
0
LINE
8
BLACK
6
CONTINUOUS
10
7.2905486614173229
20
-3.9016710236220473
11
7.2865492913385825
21
-3.9113262992125986
0
LINE
8
BLACK
6
CONTINUOUS
10
7.2865492913385825
20
-3.9113262992125986
11
7.2838444094488191
21
-3.921421023622047
0
LINE
8
BLACK
6
CONTINUOUS
10
7.2838444094488191
20
-3.921421023622047
11
7.2824803149606296
21
-3.9317824409448816
0
LINE
8
BLACK
6
CONTINUOUS
10
7.2824803149606296
20
-3.9317824409448816
11
7.2824803149606296
21
-3.9422333070866142
0
LINE
8
BLACK
6
CONTINUOUS
10
5.9222173622047238
20
-2.3963303937007874
11
5.933036653543307
21
-2.3992294094488189
0
LINE
8
BLACK
6
CONTINUOUS
10
5.933036653543307
20
-2.3992294094488189
11
5.9433849606299214
21
-2.4035158267716534
0
LINE
8
BLACK
6
CONTINUOUS
10
5.9433849606299214
20
-2.4035158267716534
11
5.9530852362204723
21
-2.4091162992125983
0
LINE
8
BLACK
6
CONTINUOUS
10
5.9530852362204723
20
-2.4091162992125983
11
5.9619715354330705
21
-2.4159349606299214
0
LINE
8
BLACK
6
CONTINUOUS
10
5.9619715354330705
20
-2.4159349606299214
11
5.9698918110236221
21
-2.4238552362204722
0
LINE
8
BLACK
6
CONTINUOUS
10
5.9698918110236221
20
-2.4238552362204722
11
5.9767104724409448
21
-2.4327415354330708
0
LINE
8
BLACK
6
CONTINUOUS
10
5.9767104724409448
20
-2.4327415354330708
11
5.9823109448818892
21
-2.4424418110236221
0
LINE
8
BLACK
6
CONTINUOUS
10
5.9823109448818892
20
-2.4424418110236221
11
5.9865973622047246
21
-2.4527901181102361
0
LINE
8
BLACK
6
CONTINUOUS
10
5.9865973622047246
20
-2.4527901181102361
11
5.9894963779527561
21
-2.4636094094488188
0
LINE
8
BLACK
6
CONTINUOUS
10
5.9894963779527561
20
-2.4636094094488188
11
5.9909583858267714
21
-2.4747144881889764
0
LINE
8
BLACK
6
CONTINUOUS
10
5.9909583858267714
20
-2.4747144881889764
11
5.9909583858267714
21
-2.4859154330708662
0
LINE
8
BLACK
6
CONTINUOUS
10
5.9909583858267714
20
-2.4859154330708662
11
5.9894963779527561
21
-2.4970205118110234
0
LINE
8
BLACK
6
CONTINUOUS
10
5.9894963779527561
20
-2.4970205118110234
11
5.9865973622047246
21
-2.5078398031496061
0
LINE
8
BLACK
6
CONTINUOUS
10
5.9865973622047246
20
-2.5078398031496061
11
5.9823109448818892
21
-2.5181881102362205
0
LINE
8
BLACK
6
CONTINUOUS
10
5.9823109448818892
20
-2.5181881102362205
11
5.9767104724409448
21
-2.5278883858267718
0
LINE
8
BLACK
6
CONTINUOUS
10
5.9767104724409448
20
-2.5278883858267718
11
5.9698918110236221
21
-2.53677468503937
0
LINE
8
BLACK
6
CONTINUOUS
10
5.9698918110236221
20
-2.53677468503937
11
5.9619715354330705
21
-2.5446949606299212
0
LINE
8
BLACK
6
CONTINUOUS
10
5.9619715354330705
20
-2.5446949606299212
11
5.9530852362204723
21
-2.5515136220472439
0
LINE
8
BLACK
6
CONTINUOUS
10
5.9530852362204723
20
-2.5515136220472439
11
5.9433849606299214
21
-2.5571140944881887
0
LINE
8
BLACK
6
CONTINUOUS
10
5.9433849606299214
20
-2.5571140944881887
11
5.933036653543307
21
-2.5614005118110237
0
LINE
8
BLACK
6
CONTINUOUS
10
5.933036653543307
20
-2.5614005118110237
11
5.9222173622047238
21
-2.5642995275590552
0
LINE
8
BLACK
6
CONTINUOUS
10
5.9222173622047238
20
-2.5642995275590552
11
5.9111122834645666
21
-2.565761535433071
0
LINE
8
BLACK
6
CONTINUOUS
10
5.9111122834645666
20
-2.565761535433071
11
5.8999113385826769
21
-2.565761535433071
0
LINE
8
BLACK
6
CONTINUOUS
10
5.8999113385826769
20
-2.565761535433071
11
5.8888062598425197
21
-2.5642995275590552
0
LINE
8
BLACK
6
CONTINUOUS
10
5.8888062598425197
20
-2.5642995275590552
11
5.8779869685039365
21
-2.5614005118110237
0
LINE
8
BLACK
6
CONTINUOUS
10
5.8779869685039365
20
-2.5614005118110237
11
5.867638661417323
21
-2.5571140944881887
0
LINE
8
BLACK
6
CONTINUOUS
10
5.867638661417323
20
-2.5571140944881887
11
5.8579383858267713
21
-2.5515136220472439
0
LINE
8
BLACK
6
CONTINUOUS
10
5.8579383858267713
20
-2.5515136220472439
11
5.8490520866141731
21
-2.5446949606299212
0
LINE
8
BLACK
6
CONTINUOUS
10
5.8490520866141731
20
-2.5446949606299212
11
5.8411318110236223
21
-2.53677468503937
0
LINE
8
BLACK
6
CONTINUOUS
10
5.8411318110236223
20
-2.53677468503937
11
5.8343131496062988
21
-2.5278883858267718
0
LINE
8
BLACK
6
CONTINUOUS
10
5.8343131496062988
20
-2.5278883858267718
11
5.8287126771653543
21
-2.5181881102362205
0
LINE
8
BLACK
6
CONTINUOUS
10
5.8287126771653543
20
-2.5181881102362205
11
5.8244262598425198
21
-2.5078398031496061
0
LINE
8
BLACK
6
CONTINUOUS
10
5.8244262598425198
20
-2.5078398031496061
11
5.8215272440944883
21
-2.4970205118110234
0
LINE
8
BLACK
6
CONTINUOUS
10
5.8215272440944883
20
-2.4970205118110234
11
5.8200652362204721
21
-2.4859154330708662
0
LINE
8
BLACK
6
CONTINUOUS
10
5.8200652362204721
20
-2.4859154330708662
11
5.8200652362204721
21
-2.4750895275590552
0
LINE
8
BLACK
6
CONTINUOUS
10
5.8200652362204721
20
-2.4750895275590552
11
5.8200652362204721
21
-2.4747144881889764
0
LINE
8
BLACK
6
CONTINUOUS
10
5.8200652362204721
20
-2.4747144881889764
11
5.8215272440944883
21
-2.4636094094488188
0
LINE
8
BLACK
6
CONTINUOUS
10
5.8215272440944883
20
-2.4636094094488188
11
5.8244262598425198
21
-2.4527901181102361
0
LINE
8
BLACK
6
CONTINUOUS
10
5.8244262598425198
20
-2.4527901181102361
11
5.8287126771653543
21
-2.4424418110236221
0
LINE
8
BLACK
6
CONTINUOUS
10
5.8287126771653543
20
-2.4424418110236221
11
5.8343131496062988
21
-2.4327415354330708
0
LINE
8
BLACK
6
CONTINUOUS
10
5.8343131496062988
20
-2.4327415354330708
11
5.8411318110236223
21
-2.4238552362204722
0
LINE
8
BLACK
6
CONTINUOUS
10
5.8411318110236223
20
-2.4238552362204722
11
5.8490520866141731
21
-2.4159349606299214
0
LINE
8
BLACK
6
CONTINUOUS
10
5.8490520866141731
20
-2.4159349606299214
11
5.8579383858267713
21
-2.4091162992125983
0
LINE
8
BLACK
6
CONTINUOUS
10
5.8579383858267713
20
-2.4091162992125983
11
5.867638661417323
21
-2.4035158267716534
0
LINE
8
BLACK
6
CONTINUOUS
10
5.867638661417323
20
-2.4035158267716534
11
5.8779869685039365
21
-2.3992294094488189
0
LINE
8
BLACK
6
CONTINUOUS
10
5.8779869685039365
20
-2.3992294094488189
11
5.8888062598425197
21
-2.3963303937007874
0
LINE
8
BLACK
6
CONTINUOUS
10
5.8888062598425197
20
-2.3963303937007874
11
5.8999113385826769
21
-2.3948683858267716
0
LINE
8
BLACK
6
CONTINUOUS
10
5.8999113385826769
20
-2.3948683858267716
11
5.9111122834645666
21
-2.3948683858267716
0
LINE
8
BLACK
6
CONTINUOUS
10
5.9111122834645666
20
-2.3948683858267716
11
5.9222173622047238
21
-2.3963303937007874
0
LINE
8
BLACK
6
CONTINUOUS
10
5.8257874015748028
20
-2.4855403937007874
11
5.8271514960629922
21
-2.495901811023622
0
LINE
8
BLACK
6
CONTINUOUS
10
5.8271514960629922
20
-2.495901811023622
11
5.8298563779527557
21
-2.5059965354330709
0
LINE
8
BLACK
6
CONTINUOUS
10
5.8298563779527557
20
-2.5059965354330709
11
5.8338557480314961
21
-2.5156518110236221
0
LINE
8
BLACK
6
CONTINUOUS
10
5.8338557480314961
20
-2.5156518110236221
11
5.839081141732283
21
-2.5247025196850394
0
LINE
8
BLACK
6
CONTINUOUS
10
5.839081141732283
20
-2.5247025196850394
11
5.8454432283464568
21
-2.5329937007874017
0
LINE
8
BLACK
6
CONTINUOUS
10
5.8454432283464568
20
-2.5329937007874017
11
5.8528330708661418
21
-2.5403835433070867
0
LINE
8
BLACK
6
CONTINUOUS
10
5.8528330708661418
20
-2.5403835433070867
11
5.8611242519685041
21
-2.5467456299212596
0
LINE
8
BLACK
6
CONTINUOUS
10
5.8611242519685041
20
-2.5467456299212596
11
5.8701749606299209
21
-2.551971023622047
0
LINE
8
BLACK
6
CONTINUOUS
10
5.8701749606299209
20
-2.551971023622047
11
5.8798302362204726
21
-2.5559703937007874
0
LINE
8
BLACK
6
CONTINUOUS
10
5.8798302362204726
20
-2.5559703937007874
11
5.8899249606299211
21
-2.5586752755905513
0
LINE
8
BLACK
6
CONTINUOUS
10
5.8899249606299211
20
-2.5586752755905513
11
5.9002863779527557
21
-2.5600393700787403
0
LINE
8
BLACK
6
CONTINUOUS
10
5.9002863779527557
20
-2.5600393700787403
11
5.9107372440944879
21
-2.5600393700787403
0
LINE
8
BLACK
6
CONTINUOUS
10
5.9107372440944879
20
-2.5600393700787403
11
5.9210986614173224
21
-2.5586752755905513
0
LINE
8
BLACK
6
CONTINUOUS
10
5.9210986614173224
20
-2.5586752755905513
11
5.9311933858267718
21
-2.5559703937007874
0
LINE
8
BLACK
6
CONTINUOUS
10
5.9311933858267718
20
-2.5559703937007874
11
5.9408486614173226
21
-2.551971023622047
0
LINE
8
BLACK
6
CONTINUOUS
10
5.9408486614173226
20
-2.551971023622047
11
5.9498993700787404
21
-2.5467456299212596
0
LINE
8
BLACK
6
CONTINUOUS
10
5.9498993700787404
20
-2.5467456299212596
11
5.9581905511811026
21
-2.5403835433070867
0
LINE
8
BLACK
6
CONTINUOUS
10
5.9581905511811026
20
-2.5403835433070867
11
5.9655803937007876
21
-2.5329937007874017
0
LINE
8
BLACK
6
CONTINUOUS
10
5.9655803937007876
20
-2.5329937007874017
11
5.9719424803149606
21
-2.5247025196850394
0
LINE
8
BLACK
6
CONTINUOUS
10
5.9719424803149606
20
-2.5247025196850394
11
5.9771678740157483
21
-2.5156518110236221
0
LINE
8
BLACK
6
CONTINUOUS
10
5.9771678740157483
20
-2.5156518110236221
11
5.9811672440944879
21
-2.5059965354330709
0
LINE
8
BLACK
6
CONTINUOUS
10
5.9811672440944879
20
-2.5059965354330709
11
5.9838721259842522
21
-2.495901811023622
0
LINE
8
BLACK
6
CONTINUOUS
10
5.9838721259842522
20
-2.495901811023622
11
5.9852362204724407
21
-2.4855403937007874
0
LINE
8
BLACK
6
CONTINUOUS
10
5.9852362204724407
20
-2.4855403937007874
11
5.9852362204724407
21
-2.4750895275590552
0
LINE
8
BLACK
6
CONTINUOUS
10
5.9852362204724407
20
-2.4750895275590552
11
5.9838721259842522
21
-2.4647281102362206
0
LINE
8
BLACK
6
CONTINUOUS
10
5.9838721259842522
20
-2.4647281102362206
11
5.9811672440944879
21
-2.4546333858267717
0
LINE
8
BLACK
6
CONTINUOUS
10
5.9811672440944879
20
-2.4546333858267717
11
5.9771678740157483
21
-2.4449781102362205
0
LINE
8
BLACK
6
CONTINUOUS
10
5.9771678740157483
20
-2.4449781102362205
11
5.9719424803149606
21
-2.4359274015748031
0
LINE
8
BLACK
6
CONTINUOUS
10
5.9719424803149606
20
-2.4359274015748031
11
5.9655803937007876
21
-2.4276362204724409
0
LINE
8
BLACK
6
CONTINUOUS
10
5.9655803937007876
20
-2.4276362204724409
11
5.9581905511811026
21
-2.4202463779527559
0
LINE
8
BLACK
6
CONTINUOUS
10
5.9581905511811026
20
-2.4202463779527559
11
5.9498993700787404
21
-2.4138842913385825
0
LINE
8
BLACK
6
CONTINUOUS
10
5.9498993700787404
20
-2.4138842913385825
11
5.9408486614173226
21
-2.4086588976377952
0
LINE
8
BLACK
6
CONTINUOUS
10
5.9408486614173226
20
-2.4086588976377952
11
5.9311933858267718
21
-2.4046595275590552
0
LINE
8
BLACK
6
CONTINUOUS
10
5.9311933858267718
20
-2.4046595275590552
11
5.9210986614173224
21
-2.4019546456692913
0
LINE
8
BLACK
6
CONTINUOUS
10
5.9210986614173224
20
-2.4019546456692913
11
5.9107372440944879
21
-2.4005905511811023
0
LINE
8
BLACK
6
CONTINUOUS
10
5.9107372440944879
20
-2.4005905511811023
11
5.9002863779527557
21
-2.4005905511811023
0
LINE
8
BLACK
6
CONTINUOUS
10
5.9002863779527557
20
-2.4005905511811023
11
5.8899249606299211
21
-2.4019546456692913
0
LINE
8
BLACK
6
CONTINUOUS
10
5.8899249606299211
20
-2.4019546456692913
11
5.8798302362204726
21
-2.4046595275590552
0
LINE
8
BLACK
6
CONTINUOUS
10
5.8798302362204726
20
-2.4046595275590552
11
5.8701749606299209
21
-2.4086588976377952
0
LINE
8
BLACK
6
CONTINUOUS
10
5.8701749606299209
20
-2.4086588976377952
11
5.8611242519685041
21
-2.4138842913385825
0
LINE
8
BLACK
6
CONTINUOUS
10
5.8611242519685041
20
-2.4138842913385825
11
5.8528330708661418
21
-2.4202463779527559
0
LINE
8
BLACK
6
CONTINUOUS
10
5.8528330708661418
20
-2.4202463779527559
11
5.8454432283464568
21
-2.4276362204724409
0
LINE
8
BLACK
6
CONTINUOUS
10
5.8454432283464568
20
-2.4276362204724409
11
5.839081141732283
21
-2.4359274015748031
0
LINE
8
BLACK
6
CONTINUOUS
10
5.839081141732283
20
-2.4359274015748031
11
5.8338557480314961
21
-2.4449781102362205
0
LINE
8
BLACK
6
CONTINUOUS
10
5.8338557480314961
20
-2.4449781102362205
11
5.8298563779527557
21
-2.4546333858267717
0
LINE
8
BLACK
6
CONTINUOUS
10
5.8298563779527557
20
-2.4546333858267717
11
5.8271514960629922
21
-2.4647281102362206
0
LINE
8
BLACK
6
CONTINUOUS
10
5.8271514960629922
20
-2.4647281102362206
11
5.8257874015748028
21
-2.4750895275590552
0
LINE
8
BLACK
6
CONTINUOUS
10
5.8257874015748028
20
-2.4750895275590552
11
5.8257874015748028
21
-2.4855403937007874
  0
ENDSEC
  0
EOF
