  0
SECTION
  2
HEADER
  9
$ANGBASE
  50
0.0
  9
$ANGDIR
  70
1
  9
$MEASUREMENT
  70
0
  0
ENDSEC
  0
SECTION
  2
TABLES
  0
TABLE
  2
LTYPE
  70
4
  0
LTYPE
  5
40F
  2
CONTINUOUS
  70
0
  3
Solid line
  72
65
  73
0
  40
0.0
  0
LTYPE
  5
410
  2
DASHDOT
 70
0
  3
Dash Dot ____ _ ____ _
 72
65
 73
4
 40
2.0
 49
1.25
 49
-0.25
 49
0.25
 49
-0.25
  0
LTYPE
  5
411
  2
DASHED
 70
0
  3
Dashed __ __ __ __ __
 72
65
 73
2
 40
0.75
 49
0.5
 49
-0.25
  0
LTYPE
  5
43B
  2
DOTTED
 70
0
  3
Dotted .  .  .  .
 72
65
 73
2
 40
0.2
 49
0.0
 49
-0.2
  0
ENDTAB
  0
TABLE
  2
STYLE
  70
4
  0
STYLE
  2
KICAD
  70
0
  40
0
  41
1
  42
1
  50
0
  71
0
  3
isocp.shx
  0
STYLE
  2
KICADB
  70
0
  40
0
  41
1
  42
1
  50
0
  71
0
  3
isocp.shx
  0
STYLE
  2
KICADI
  70
0
  40
0
  41
1
  42
1
  50
15
  71
0
  3
isocp.shx
  0
STYLE
  2
KICADBI
  70
0
  40
0
  41
1
  42
1
  50
15
  71
0
  3
isocp.shx
  0
ENDTAB
  0
TABLE
  2
LAYER
  70
1
  0
LAYER
  2
BLACK
  70
0
  62
7
  6
CONTINUOUS
  0
ENDTAB
  0
ENDSEC
  0
SECTION
  2
ENTITIES
0
LINE
8
BLACK
6
CONTINUOUS
10
4.9676550393700785
20
-4.3096108661417318
11
4.9723039763779528
21
-4.3122688188976381
0
LINE
8
BLACK
6
CONTINUOUS
10
4.9723039763779528
20
-4.3122688188976381
11
4.97611405511811
21
-4.316031850393701
0
LINE
8
BLACK
6
CONTINUOUS
10
4.97611405511811
20
-4.316031850393701
11
4.9788295275590553
21
-4.3206474409448816
0
LINE
8
BLACK
6
CONTINUOUS
10
4.9788295275590553
20
-4.3206474409448816
11
4.978829566929134
21
-4.3206474015748029
0
LINE
8
BLACK
6
CONTINUOUS
10
4.978829566929134
20
-4.3206474015748029
11
4.978829566929134
21
-4.3206477559055116
0
LINE
8
BLACK
6
CONTINUOUS
10
4.978829566929134
20
-4.3206477559055116
11
4.9788351181102364
21
-4.3206542519685041
0
LINE
8
BLACK
6
CONTINUOUS
10
4.9788351181102364
20
-4.3206542519685041
11
4.9861263779527558
21
-4.3382676377952754
0
LINE
8
BLACK
6
CONTINUOUS
10
4.9861263779527558
20
-4.3382676377952754
11
5.0020381889763774
21
-4.3729142913385823
0
LINE
8
BLACK
6
CONTINUOUS
10
5.0020381889763774
20
-4.3729142913385823
11
5.0192551181102365
21
-4.4069312598425192
0
LINE
8
BLACK
6
CONTINUOUS
10
5.0192551181102365
20
-4.4069312598425192
11
5.0377522047244092
21
-4.4402694488188974
0
LINE
8
BLACK
6
CONTINUOUS
10
5.0377522047244092
20
-4.4402694488188974
11
5.0575027952755907
21
-4.4728806692913388
0
LINE
8
BLACK
6
CONTINUOUS
10
5.0575027952755907
20
-4.4728806692913388
11
5.0784783070866144
21
-4.5047177952755906
0
LINE
8
BLACK
6
CONTINUOUS
10
5.0784783070866144
20
-4.5047177952755906
11
5.1006485039370082
21
-4.5357348818897636
0
LINE
8
BLACK
6
CONTINUOUS
10
5.1006485039370082
20
-4.5357348818897636
11
5.1239813385826771
21
-4.5658870866141728
0
LINE
8
BLACK
6
CONTINUOUS
10
5.1239813385826771
20
-4.5658870866141728
11
5.1484430708661417
21
-4.5951308661417318
0
LINE
8
BLACK
6
CONTINUOUS
10
5.1484430708661417
20
-4.5951308661417318
11
5.1739984251968503
21
-4.6234240157480313
0
LINE
8
BLACK
6
CONTINUOUS
10
5.1739984251968503
20
-4.6234240157480313
11
5.2006104330708665
21
-4.6507255905511808
0
LINE
8
BLACK
6
CONTINUOUS
10
5.2006104330708665
20
-4.6507255905511808
11
5.2282406692913383
21
-4.6769962204724411
0
LINE
8
BLACK
6
CONTINUOUS
10
5.2282406692913383
20
-4.6769962204724411
11
5.2568492519685037
21
-4.7021979527559052
0
LINE
8
BLACK
6
CONTINUOUS
10
5.2568492519685037
20
-4.7021979527559052
11
5.286394803149606
21
-4.7262943307086616
0
LINE
8
BLACK
6
CONTINUOUS
10
5.286394803149606
20
-4.7262943307086616
11
5.3168346850393702
21
-4.7492505905511813
0
LINE
8
BLACK
6
CONTINUOUS
10
5.3168346850393702
20
-4.7492505905511813
11
5.3481249212598421
21
-4.7710335433070865
0
LINE
8
BLACK
6
CONTINUOUS
10
5.3481249212598421
20
-4.7710335433070865
11
5.3802203149606296
21
-4.7916117716535434
0
LINE
8
BLACK
6
CONTINUOUS
10
5.3802203149606296
20
-4.7916117716535434
11
5.4130744881889763
21
-4.8109555118110237
0
LINE
8
BLACK
6
CONTINUOUS
10
5.4130744881889763
20
-4.8109555118110237
11
5.4466399999999995
21
-4.8290368110236219
0
LINE
8
BLACK
6
CONTINUOUS
10
5.4466399999999995
20
-4.8290368110236219
11
5.4808683464566927
21
-4.845829566929134
0
LINE
8
BLACK
6
CONTINUOUS
10
5.4808683464566927
20
-4.845829566929134
11
5.515710078740157
21
-4.8613095275590554
0
LINE
8
BLACK
6
CONTINUOUS
10
5.515710078740157
20
-4.8613095275590554
11
5.551114881889764
21
-4.8754543307086617
0
LINE
8
BLACK
6
CONTINUOUS
10
5.551114881889764
20
-4.8754543307086617
11
5.5870316535433071
21
-4.8882435826771653
0
LINE
8
BLACK
6
CONTINUOUS
10
5.5870316535433071
20
-4.8882435826771653
11
5.6234084251968506
21
-4.8996587007874011
0
LINE
8
BLACK
6
CONTINUOUS
10
5.6234084251968506
20
-4.8996587007874011
11
5.6601927165354331
21
-4.9096833070866142
0
LINE
8
BLACK
6
CONTINUOUS
10
5.6601927165354331
20
-4.9096833070866142
11
5.6973313779527555
21
-4.9183028740157475
0
LINE
8
BLACK
6
CONTINUOUS
10
5.6973313779527555
20
-4.9183028740157475
11
5.7347707480314956
21
-4.9255049212598427
0
LINE
8
BLACK
6
CONTINUOUS
10
5.7347707480314956
20
-4.9255049212598427
11
5.7724567322834641
21
-4.9312791338582675
0
LINE
8
BLACK
6
CONTINUOUS
10
5.7724567322834641
20
-4.9312791338582675
11
5.8103349606299215
21
-4.9356170866141733
0
LINE
8
BLACK
6
CONTINUOUS
10
5.8103349606299215
20
-4.9356170866141733
11
5.8483506692913387
21
-4.9385125196850392
0
LINE
8
BLACK
6
CONTINUOUS
10
5.8483506692913387
20
-4.9385125196850392
11
5.8864488976377949
21
-4.9399612992125981
0
LINE
8
BLACK
6
CONTINUOUS
10
5.8864488976377949
20
-4.9399612992125981
11
5.9055118110236222
21
-4.9399606299212602
0
LINE
8
BLACK
6
CONTINUOUS
10
5.9055118110236222
20
-4.9399606299212602
11
5.9108614173228347
21
-4.9406649212598426
0
LINE
8
BLACK
6
CONTINUOUS
10
5.9108614173228347
20
-4.9406649212598426
11
5.915846456692913
21
-4.9427298031496063
0
LINE
8
BLACK
6
CONTINUOUS
10
5.915846456692913
20
-4.9427298031496063
11
5.9201272047244089
21
-4.946014527559055
0
LINE
8
BLACK
6
CONTINUOUS
10
5.9201272047244089
20
-4.946014527559055
11
5.9234119291338585
21
-4.9502952755905509
0
LINE
8
BLACK
6
CONTINUOUS
10
5.9234119291338585
20
-4.9502952755905509
11
5.9254768110236222
21
-4.9552803149606302
0
LINE
8
BLACK
6
CONTINUOUS
10
5.9254768110236222
20
-4.9552803149606302
11
5.9261811023622046
21
-4.9606299212598426
0
LINE
8
BLACK
6
CONTINUOUS
10
5.9261811023622046
20
-4.9606299212598426
11
5.9254768110236222
21
-4.965979527559055
0
LINE
8
BLACK
6
CONTINUOUS
10
5.9254768110236222
20
-4.965979527559055
11
5.9234119291338585
21
-4.9709645669291334
0
LINE
8
BLACK
6
CONTINUOUS
10
5.9234119291338585
20
-4.9709645669291334
11
5.9201272047244089
21
-4.9752453149606302
0
LINE
8
BLACK
6
CONTINUOUS
10
5.9201272047244089
20
-4.9752453149606302
11
5.915846456692913
21
-4.9785300393700789
0
LINE
8
BLACK
6
CONTINUOUS
10
5.915846456692913
20
-4.9785300393700789
11
5.9108614173228347
21
-4.9805949212598426
0
LINE
8
BLACK
6
CONTINUOUS
10
5.9108614173228347
20
-4.9805949212598426
11
5.9055118110236222
21
-4.981299212598425
0
LINE
8
BLACK
6
CONTINUOUS
10
5.9055118110236222
20
-4.981299212598425
11
5.9055102362204721
21
-4.9812987007874012
0
LINE
8
BLACK
6
CONTINUOUS
10
5.9055102362204721
20
-4.9812987007874012
11
5.8658257874015742
21
-4.9805443700787402
0
LINE
8
BLACK
6
CONTINUOUS
10
5.8658257874015742
20
-4.9805443700787402
11
5.8261970866141732
21
-4.9782823622047241
0
LINE
8
BLACK
6
CONTINUOUS
10
5.8261970866141732
20
-4.9782823622047241
11
5.7866829527559052
21
-4.9745159842519682
0
LINE
8
BLACK
6
CONTINUOUS
10
5.7866829527559052
20
-4.9745159842519682
11
5.7473405118110232
21
-4.9692507086614173
0
LINE
8
BLACK
6
CONTINUOUS
10
5.7473405118110232
20
-4.9692507086614173
11
5.7082266141732285
21
-4.9624940944881892
0
LINE
8
BLACK
6
CONTINUOUS
10
5.7082266141732285
20
-4.9624940944881892
11
5.6693977165354328
21
-4.9542559055118112
0
LINE
8
BLACK
6
CONTINUOUS
10
5.6693977165354328
20
-4.9542559055118112
11
5.6309099606299213
21
-4.9445480708661416
0
LINE
8
BLACK
6
CONTINUOUS
10
5.6309099606299213
20
-4.9445480708661416
11
5.5928188976377955
21
-4.9333846062992128
0
LINE
8
BLACK
6
CONTINUOUS
10
5.5928188976377955
20
-4.9333846062992128
11
5.5551796456692912
21
-4.9207816141732286
0
LINE
8
BLACK
6
CONTINUOUS
10
5.5551796456692912
20
-4.9207816141732286
11
5.5180464960629916
21
-4.9067573622047247
0
LINE
8
BLACK
6
CONTINUOUS
10
5.5180464960629916
20
-4.9067573622047247
11
5.4814731496062992
21
-4.8913320472440942
0
LINE
8
BLACK
6
CONTINUOUS
10
5.4814731496062992
20
-4.8913320472440942
11
5.4455124015748027
21
-4.8745279921259845
0
LINE
8
BLACK
6
CONTINUOUS
10
5.4455124015748027
20
-4.8745279921259845
11
5.4102162598425192
21
-4.8563694488188975
0
LINE
8
BLACK
6
CONTINUOUS
10
5.4102162598425192
20
-4.8563694488188975
11
5.3756356692913387
21
-4.8368826771653541
0
LINE
8
BLACK
6
CONTINUOUS
10
5.3756356692913387
20
-4.8368826771653541
11
5.3418206299212594
21
-4.8160958267716536
0
LINE
8
BLACK
6
CONTINUOUS
10
5.3418206299212594
20
-4.8160958267716536
11
5.3088199606299211
21
-4.7940389370078735
0
LINE
8
BLACK
6
CONTINUOUS
10
5.3088199606299211
20
-4.7940389370078735
11
5.2766813779527562
21
-4.7707438582677169
0
LINE
8
BLACK
6
CONTINUOUS
10
5.2766813779527562
20
-4.7707438582677169
11
5.2454512598425191
21
-4.7462442519685037
0
LINE
8
BLACK
6
CONTINUOUS
10
5.2454512598425191
20
-4.7462442519685037
11
5.2151747637795278
21
-4.7205754724409443
0
LINE
8
BLACK
6
CONTINUOUS
10
5.2151747637795278
20
-4.7205754724409443
11
5.1858956299212595
21
-4.6937746850393696
0
LINE
8
BLACK
6
CONTINUOUS
10
5.1858956299212595
20
-4.6937746850393696
11
5.1576561811023618
21
-4.6658805511811021
0
LINE
8
BLACK
6
CONTINUOUS
10
5.1576561811023618
20
-4.6658805511811021
11
5.1304971653543303
21
-4.6369333858267714
0
LINE
8
BLACK
6
CONTINUOUS
10
5.1304971653543303
20
-4.6369333858267714
11
5.104457834645669
21
-4.6069750000000003
0
LINE
8
BLACK
6
CONTINUOUS
10
5.104457834645669
20
-4.6069750000000003
11
5.0795758267716531
21
-4.5760487007874016
0
LINE
8
BLACK
6
CONTINUOUS
10
5.0795758267716531
20
-4.5760487007874016
11
5.055887086614173
21
-4.5441991338582675
0
LINE
8
BLACK
6
CONTINUOUS
10
5.055887086614173
20
-4.5441991338582675
11
5.0334258267716532
21
-4.5114723622047244
0
LINE
8
BLACK
6
CONTINUOUS
10
5.0334258267716532
20
-4.5114723622047244
11
5.0122244881889761
21
-4.4779156299212595
0
LINE
8
BLACK
6
CONTINUOUS
10
5.0122244881889761
20
-4.4779156299212595
11
4.9923137401574804
21
-4.4435774409448818
0
LINE
8
BLACK
6
CONTINUOUS
10
4.9923137401574804
20
-4.4435774409448818
11
4.9737223228346457
21
-4.4085073622047242
0
LINE
8
BLACK
6
CONTINUOUS
10
4.9737223228346457
20
-4.4085073622047242
11
4.9564770866141732
21
-4.3727561023622048
0
LINE
8
BLACK
6
CONTINUOUS
10
4.9564770866141732
20
-4.3727561023622048
11
4.9406029527559054
21
-4.3363753149606294
0
LINE
8
BLACK
6
CONTINUOUS
10
4.9406029527559054
20
-4.3363753149606294
11
4.9406023622047242
21
-4.3363679527559054
0
LINE
8
BLACK
6
CONTINUOUS
10
4.9406023622047242
20
-4.3363679527559054
11
4.9405976377952756
21
-4.336362244094488
0
LINE
8
BLACK
6
CONTINUOUS
10
4.9405976377952756
20
-4.336362244094488
11
4.9405976771653544
21
-4.3363622047244093
0
LINE
8
BLACK
6
CONTINUOUS
10
4.9405976771653544
20
-4.3363622047244093
11
4.9392822440944881
21
-4.3311711811023619
0
LINE
8
BLACK
6
CONTINUOUS
10
4.9392822440944881
20
-4.3311711811023619
11
4.9393445275590553
21
-4.3258164173228346
0
LINE
8
BLACK
6
CONTINUOUS
10
4.9393445275590553
20
-4.3258164173228346
11
4.9407804330708665
21
-4.3206574015748034
0
LINE
8
BLACK
6
CONTINUOUS
10
4.9407804330708665
20
-4.3206574015748034
11
4.9434934645669291
21
-4.3160403937007876
0
LINE
8
BLACK
6
CONTINUOUS
10
4.9434934645669291
20
-4.3160403937007876
11
4.9473015748031495
21
-4.3122753543307084
0
LINE
8
BLACK
6
CONTINUOUS
10
4.9473015748031495
20
-4.3122753543307084
11
4.9519491338582675
21
-4.309615
0
LINE
8
BLACK
6
CONTINUOUS
10
4.9519491338582675
20
-4.309615
11
4.9571241732283466
21
-4.3082379133858266
0
LINE
8
BLACK
6
CONTINUOUS
10
4.9571241732283466
20
-4.3082379133858266
11
4.9624792913385827
21
-4.3082364960629924
0
LINE
8
BLACK
6
CONTINUOUS
10
4.9624792913385827
20
-4.3082364960629924
11
4.9676550393700785
21
-4.3096108661417318
0
LINE
8
BLACK
6
CONTINUOUS
10
4.9549565748031492
20
-4.3105044881889762
11
4.9504366141732286
21
-4.3123623622047242
0
LINE
8
BLACK
6
CONTINUOUS
10
4.9504366141732286
20
-4.3123623622047242
11
4.9465456299212596
21
-4.3153190944881885
0
LINE
8
BLACK
6
CONTINUOUS
10
4.9465456299212596
20
-4.3153190944881885
11
4.9435448425196853
21
-4.3191762204724409
0
LINE
8
BLACK
6
CONTINUOUS
10
4.9435448425196853
20
-4.3191762204724409
11
4.9416356299212598
21
-4.3236747637795272
0
LINE
8
BLACK
6
CONTINUOUS
10
4.9416356299212598
20
-4.3236747637795272
11
4.9409462204724406
21
-4.3285127952755902
0
LINE
8
BLACK
6
CONTINUOUS
10
4.9409462204724406
20
-4.3285127952755902
11
4.9415228740157477
21
-4.333365590551181
0
LINE
8
BLACK
6
CONTINUOUS
10
4.9415228740157477
20
-4.333365590551181
11
4.9424236614173225
21
-4.3356268897637795
0
LINE
8
BLACK
6
CONTINUOUS
10
4.9424236614173225
20
-4.3356268897637795
11
4.9499981889763776
21
-4.3539294488188975
0
LINE
8
BLACK
6
CONTINUOUS
10
4.9499981889763776
20
-4.3539294488188975
11
4.9665326377952752
21
-4.3899405511811018
0
LINE
8
BLACK
6
CONTINUOUS
10
4.9665326377952752
20
-4.3899405511811018
11
4.9844236614173223
21
-4.4252972440944882
0
LINE
8
BLACK
6
CONTINUOUS
10
4.9844236614173223
20
-4.4252972440944882
11
5.003645433070866
21
-4.4599485039370075
0
LINE
8
BLACK
6
CONTINUOUS
10
5.003645433070866
20
-4.4599485039370075
11
5.0241701181102361
21
-4.493844251968504
0
LINE
8
BLACK
6
CONTINUOUS
10
5.0241701181102361
20
-4.493844251968504
11
5.0459681496062991
21
-4.5269355118110237
0
LINE
8
BLACK
6
CONTINUOUS
10
5.0459681496062991
20
-4.5269355118110237
11
5.0690079921259841
21
-4.559174488188976
0
LINE
8
BLACK
6
CONTINUOUS
10
5.0690079921259841
20
-4.559174488188976
11
5.0932563779527555
21
-4.5905145669291336
0
LINE
8
BLACK
6
CONTINUOUS
10
5.0932563779527555
20
-4.5905145669291336
11
5.1186782283464565
21
-4.6209105118110232
0
LINE
8
BLACK
6
CONTINUOUS
10
5.1186782283464565
20
-4.6209105118110232
11
5.1452368897637797
21
-4.6503184251968506
0
LINE
8
BLACK
6
CONTINUOUS
10
5.1452368897637797
20
-4.6503184251968506
11
5.1728939370078741
21
-4.6786957480314957
0
LINE
8
BLACK
6
CONTINUOUS
10
5.1728939370078741
20
-4.6786957480314957
11
5.2016094094488192
21
-4.7060015748031496
0
LINE
8
BLACK
6
CONTINUOUS
10
5.2016094094488192
20
-4.7060015748031496
11
5.2313418503937008
21
-4.7321963779527554
0
LINE
8
BLACK
6
CONTINUOUS
10
5.2313418503937008
20
-4.7321963779527554
11
5.2620482677165352
21
-4.7572423228346459
0
LINE
8
BLACK
6
CONTINUOUS
10
5.2620482677165352
20
-4.7572423228346459
11
5.2936843307086612
21
-4.781103267716535
0
LINE
8
BLACK
6
CONTINUOUS
10
5.2936843307086612
20
-4.781103267716535
11
5.3262043307086611
21
-4.8037447244094489
0
LINE
8
BLACK
6
CONTINUOUS
10
5.3262043307086611
20
-4.8037447244094489
11
5.3595612992125981
21
-4.8251339370078741
0
LINE
8
BLACK
6
CONTINUOUS
10
5.3595612992125981
20
-4.8251339370078741
11
5.3937070078740152
21
-4.8452400787401571
0
LINE
8
BLACK
6
CONTINUOUS
10
5.3937070078740152
20
-4.8452400787401571
11
5.4285921259842516
21
-4.8640340157480315
0
LINE
8
BLACK
6
CONTINUOUS
10
5.4285921259842516
20
-4.8640340157480315
11
5.4641662598425196
21
-4.8814887007874015
0
LINE
8
BLACK
6
CONTINUOUS
10
5.4641662598425196
20
-4.8814887007874015
11
5.5003780708661418
21
-4.8975788188976379
0
LINE
8
BLACK
6
CONTINUOUS
10
5.5003780708661418
20
-4.8975788188976379
11
5.5371751574803145
21
-4.9122811811023617
0
LINE
8
BLACK
6
CONTINUOUS
10
5.5371751574803145
20
-4.9122811811023617
11
5.574504409448819
21
-4.9255744881889765
0
LINE
8
BLACK
6
CONTINUOUS
10
5.574504409448819
20
-4.9255744881889765
11
5.6123118503937004
21
-4.9374396062992121
0
LINE
8
BLACK
6
CONTINUOUS
10
5.6123118503937004
20
-4.9374396062992121
11
5.6505429133858263
21
-4.9478593700787403
0
LINE
8
BLACK
6
CONTINUOUS
10
5.6505429133858263
20
-4.9478593700787403
11
5.6891423622047244
21
-4.9568187007874016
0
LINE
8
BLACK
6
CONTINUOUS
10
5.6891423622047244
20
-4.9568187007874016
11
5.7280543700787403
21
-4.9643046850393704
0
LINE
8
BLACK
6
CONTINUOUS
10
5.7280543700787403
20
-4.9643046850393704
11
5.7672227952755906
21
-4.9703064960629924
0
LINE
8
BLACK
6
CONTINUOUS
10
5.7672227952755906
20
-4.9703064960629924
11
5.8065909842519687
21
-4.9748154330708658
0
LINE
8
BLACK
6
CONTINUOUS
10
5.8065909842519687
20
-4.9748154330708658
11
5.8461020866141729
21
-4.9778250393700789
0
LINE
8
BLACK
6
CONTINUOUS
10
5.8461020866141729
20
-4.9778250393700789
11
5.8856990157480311
21
-4.9793309448818892
0
LINE
8
BLACK
6
CONTINUOUS
10
5.8856990157480311
20
-4.9793309448818892
11
5.9055118110236222
21
-4.9793302362204725
0
LINE
8
BLACK
6
CONTINUOUS
10
5.9055118110236222
20
-4.9793302362204725
11
5.9055132677165352
21
-4.9793307086614176
0
LINE
8
BLACK
6
CONTINUOUS
10
5.9055132677165352
20
-4.9793307086614176
11
5.9079738188976378
21
-4.9793307086614176
0
LINE
8
BLACK
6
CONTINUOUS
10
5.9079738188976378
20
-4.9793307086614176
11
5.9127300393700786
21
-4.9780562992125983
0
LINE
8
BLACK
6
CONTINUOUS
10
5.9127300393700786
20
-4.9780562992125983
11
5.91699437007874
21
-4.9755942913385827
0
LINE
8
BLACK
6
CONTINUOUS
10
5.91699437007874
20
-4.9755942913385827
11
5.9204761811023623
21
-4.9721124803149603
0
LINE
8
BLACK
6
CONTINUOUS
10
5.9204761811023623
20
-4.9721124803149603
11
5.9229381889763779
21
-4.9678481496062989
0
LINE
8
BLACK
6
CONTINUOUS
10
5.9229381889763779
20
-4.9678481496062989
11
5.9242125984251963
21
-4.9630919291338582
0
LINE
8
BLACK
6
CONTINUOUS
10
5.9242125984251963
20
-4.9630919291338582
11
5.9242125984251963
21
-4.958167913385827
0
LINE
8
BLACK
6
CONTINUOUS
10
5.9242125984251963
20
-4.958167913385827
11
5.9229381889763779
21
-4.9534116929133853
0
LINE
8
BLACK
6
CONTINUOUS
10
5.9229381889763779
20
-4.9534116929133853
11
5.9204761811023623
21
-4.949147362204724
0
LINE
8
BLACK
6
CONTINUOUS
10
5.9204761811023623
20
-4.949147362204724
11
5.91699437007874
21
-4.9456655511811025
0
LINE
8
BLACK
6
CONTINUOUS
10
5.91699437007874
20
-4.9456655511811025
11
5.9127300393700786
21
-4.9432035433070869
0
LINE
8
BLACK
6
CONTINUOUS
10
5.9127300393700786
20
-4.9432035433070869
11
5.9079738188976378
21
-4.9419291338582676
0
LINE
8
BLACK
6
CONTINUOUS
10
5.9079738188976378
20
-4.9419291338582676
11
5.9055118110236222
21
-4.9419291338582676
0
LINE
8
BLACK
6
CONTINUOUS
10
5.9055118110236222
20
-4.9419291338582676
11
5.8673250000000001
21
-4.9412033070866137
0
LINE
8
BLACK
6
CONTINUOUS
10
5.8673250000000001
20
-4.9412033070866137
11
5.8291933464566927
21
-4.9390269685039367
0
LINE
8
BLACK
6
CONTINUOUS
10
5.8291933464566927
20
-4.9390269685039367
11
5.7911719685039369
21
-4.9354031496062989
0
LINE
8
BLACK
6
CONTINUOUS
10
5.7911719685039369
20
-4.9354031496062989
11
5.7533157086614173
21
-4.9303371653543309
0
LINE
8
BLACK
6
CONTINUOUS
10
5.7533157086614173
20
-4.9303371653543309
11
5.7156793307086611
21
-4.9238362992125984
0
LINE
8
BLACK
6
CONTINUOUS
10
5.7156793307086611
20
-4.9238362992125984
11
5.678317165354331
21
-4.9159099606299215
0
LINE
8
BLACK
6
CONTINUOUS
10
5.678317165354331
20
-4.9159099606299215
11
5.6412831496062994
21
-4.9065696062992128
0
LINE
8
BLACK
6
CONTINUOUS
10
5.6412831496062994
20
-4.9065696062992128
11
5.6046308267716531
21
-4.8958287007874013
0
LINE
8
BLACK
6
CONTINUOUS
10
5.6046308267716531
20
-4.8958287007874013
11
5.5684131496062994
21
-4.8837027559055119
0
LINE
8
BLACK
6
CONTINUOUS
10
5.5684131496062994
20
-4.8837027559055119
11
5.5326824015748031
21
-4.8702093307086614
0
LINE
8
BLACK
6
CONTINUOUS
10
5.5326824015748031
20
-4.8702093307086614
11
5.4974902362204725
21
-4.855367874015748
0
LINE
8
BLACK
6
CONTINUOUS
10
5.4974902362204725
20
-4.855367874015748
11
5.462887401574803
21
-4.8391998425196849
0
LINE
8
BLACK
6
CONTINUOUS
10
5.462887401574803
20
-4.8391998425196849
11
5.4289239763779529
21
-4.8217286220472442
0
LINE
8
BLACK
6
CONTINUOUS
10
5.4289239763779529
20
-4.8217286220472442
11
5.3956489763779523
21
-4.8029793700787398
0
LINE
8
BLACK
6
CONTINUOUS
10
5.3956489763779523
20
-4.8029793700787398
11
5.3631105118110236
21
-4.7829792519685039
0
LINE
8
BLACK
6
CONTINUOUS
10
5.3631105118110236
20
-4.7829792519685039
11
5.3313555118110232
21
-4.761757086614173
0
LINE
8
BLACK
6
CONTINUOUS
10
5.3313555118110232
20
-4.761757086614173
11
5.3004298818897633
21
-4.739343582677165
0
LINE
8
BLACK
6
CONTINUOUS
10
5.3004298818897633
20
-4.739343582677165
11
5.2703783070866139
21
-4.7157711023622042
0
LINE
8
BLACK
6
CONTINUOUS
10
5.2703783070866139
20
-4.7157711023622042
11
5.2412441732283463
21
-4.6910737007874017
0
LINE
8
BLACK
6
CONTINUOUS
10
5.2412441732283463
20
-4.6910737007874017
11
5.2130696062992126
21
-4.6652870472440942
0
LINE
8
BLACK
6
CONTINUOUS
10
5.2130696062992126
20
-4.6652870472440942
11
5.1858952755905507
21
-4.6384483858267718
0
LINE
8
BLACK
6
CONTINUOUS
10
5.1858952755905507
20
-4.6384483858267718
11
5.159760393700787
21
-4.610596456692913
0
LINE
8
BLACK
6
CONTINUOUS
10
5.159760393700787
20
-4.610596456692913
11
5.1347027952755901
21
-4.5817715748031498
0
LINE
8
BLACK
6
CONTINUOUS
10
5.1347027952755901
20
-4.5817715748031498
11
5.1107586220472436
21
-4.5520152755905512
0
LINE
8
BLACK
6
CONTINUOUS
10
5.1107586220472436
20
-4.5520152755905512
11
5.0879624803149603
21
-4.5213706299212602
0
LINE
8
BLACK
6
CONTINUOUS
10
5.0879624803149603
20
-4.5213706299212602
11
5.0663472834645669
21
-4.4898818503937008
0
LINE
8
BLACK
6
CONTINUOUS
10
5.0663472834645669
20
-4.4898818503937008
11
5.0459442913385821
21
-4.4575944488188979
0
LINE
8
BLACK
6
CONTINUOUS
10
5.0459442913385821
20
-4.4575944488188979
11
5.0267829133858264
21
-4.4245550787401573
0
LINE
8
BLACK
6
CONTINUOUS
10
5.0267829133858264
20
-4.4245550787401573
11
5.0088909055118105
21
-4.3908114173228343
0
LINE
8
BLACK
6
CONTINUOUS
10
5.0088909055118105
20
-4.3908114173228343
11
4.9922940157480316
21
-4.3564122440944884
0
LINE
8
BLACK
6
CONTINUOUS
10
4.9922940157480316
20
-4.3564122440944884
11
4.9770236220472439
21
-4.3214239763779529
0
LINE
8
BLACK
6
CONTINUOUS
10
4.9770236220472439
20
-4.3214239763779529
11
4.9770179133858266
21
-4.321417401574803
0
LINE
8
BLACK
6
CONTINUOUS
10
4.9770179133858266
20
-4.321417401574803
11
4.9770178740157478
21
-4.321417401574803
0
LINE
8
BLACK
6
CONTINUOUS
10
4.9770178740157478
20
-4.321417401574803
11
4.9760643307086614
21
-4.3191676771653542
0
LINE
8
BLACK
6
CONTINUOUS
10
4.9760643307086614
20
-4.3191676771653542
11
4.9730615354330707
21
-4.3153121653543307
0
LINE
8
BLACK
6
CONTINUOUS
10
4.9730615354330707
20
-4.3153121653543307
11
4.9691690157480313
21
-4.3123574803149607
0
LINE
8
BLACK
6
CONTINUOUS
10
4.9691690157480313
20
-4.3123574803149607
11
4.964648031496063
21
-4.310501968503937
0
LINE
8
BLACK
6
CONTINUOUS
10
4.964648031496063
20
-4.310501968503937
11
4.9598021653543309
21
-4.3098701574803151
0
LINE
8
BLACK
6
CONTINUOUS
10
4.9598021653543309
20
-4.3098701574803151
11
4.9549565748031492
21
-4.3105044881889762
0
LINE
8
BLACK
6
CONTINUOUS
10
6.9344834645669291
20
-3.9170428740157481
11
6.9394685039370074
21
-3.9191077559055119
0
LINE
8
BLACK
6
CONTINUOUS
10
6.9394685039370074
20
-3.9191077559055119
11
6.9437492519685033
21
-3.9223924803149606
0
LINE
8
BLACK
6
CONTINUOUS
10
6.9437492519685033
20
-3.9223924803149606
11
6.9470339763779529
21
-3.9266732283464565
0
LINE
8
BLACK
6
CONTINUOUS
10
6.9470339763779529
20
-3.9266732283464565
11
6.9490988582677167
21
-3.9316582677165353
0
LINE
8
BLACK
6
CONTINUOUS
10
6.9490988582677167
20
-3.9316582677165353
11
6.9497901181102364
21
-3.9369090551181101
0
LINE
8
BLACK
6
CONTINUOUS
10
6.9497901181102364
20
-3.9369090551181101
11
6.9498222440944879
21
-3.9370078740157481
0
LINE
8
BLACK
6
CONTINUOUS
10
6.9498222440944879
20
-3.9370078740157481
11
6.9490685826771648
21
-3.9766761023622048
0
LINE
8
BLACK
6
CONTINUOUS
10
6.9490685826771648
20
-3.9766761023622048
11
6.9468086220472438
21
-4.0162870866141729
0
LINE
8
BLACK
6
CONTINUOUS
10
6.9468086220472438
20
-4.0162870866141729
11
6.9430457086614172
21
-4.0557836614173226
0
LINE
8
BLACK
6
CONTINUOUS
10
6.9430457086614172
20
-4.0557836614173226
11
6.9377852362204724
21
-4.0951087795275587
0
LINE
8
BLACK
6
CONTINUOUS
10
6.9377852362204724
20
-4.0951087795275587
11
6.9310347637795271
21
-4.1342056692913385
0
LINE
8
BLACK
6
CONTINUOUS
10
6.9310347637795271
20
-4.1342056692913385
11
6.9228040551181103
21
-4.173017952755905
0
LINE
8
BLACK
6
CONTINUOUS
10
6.9228040551181103
20
-4.173017952755905
11
6.9131049999999998
21
-4.2114896062992129
0
LINE
8
BLACK
6
CONTINUOUS
10
6.9131049999999998
20
-4.2114896062992129
11
6.9019516141732282
21
-4.2495650393700783
0
LINE
8
BLACK
6
CONTINUOUS
10
6.9019516141732282
20
-4.2495650393700783
11
6.8893599999999999
21
-4.287189330708661
0
LINE
8
BLACK
6
CONTINUOUS
10
6.8893599999999999
20
-4.287189330708661
11
6.875348267716535
21
-4.3243081889763779
0
LINE
8
BLACK
6
CONTINUOUS
10
6.875348267716535
20
-4.3243081889763779
11
6.8599366929133856
21
-4.3608680314960626
0
LINE
8
BLACK
6
CONTINUOUS
10
6.8599366929133856
20
-4.3608680314960626
11
6.8431475196850391
21
-4.3968160629921256
0
LINE
8
BLACK
6
CONTINUOUS
10
6.8431475196850391
20
-4.3968160629921256
11
6.8250049606299212
21
-4.4321003937007877
0
LINE
8
BLACK
6
CONTINUOUS
10
6.8250049606299212
20
-4.4321003937007877
11
6.8055352362204724
21
-4.4666701574803147
0
LINE
8
BLACK
6
CONTINUOUS
10
6.8055352362204724
20
-4.4666701574803147
11
6.7847664173228344
21
-4.5004753543307086
0
LINE
8
BLACK
6
CONTINUOUS
10
6.7847664173228344
20
-4.5004753543307086
11
6.7627285039370078
21
-4.5334672834645664
0
LINE
8
BLACK
6
CONTINUOUS
10
6.7627285039370078
20
-4.5334672834645664
11
6.7394532677165353
21
-4.5655983070866144
0
LINE
8
BLACK
6
CONTINUOUS
10
6.7394532677165353
20
-4.5655983070866144
11
6.7149743307086611
21
-4.5968220078740156
0
LINE
8
BLACK
6
CONTINUOUS
10
6.7149743307086611
20
-4.5968220078740156
11
6.6893270472440944
21
-4.627093346456693
0
LINE
8
BLACK
6
CONTINUOUS
10
6.6893270472440944
20
-4.627093346456693
11
6.6625483858267716
21
-4.6563686220472436
0
LINE
8
BLACK
6
CONTINUOUS
10
6.6625483858267716
20
-4.6563686220472436
11
6.6346770472440939
21
-4.6846055905511808
0
LINE
8
BLACK
6
CONTINUOUS
10
6.6346770472440939
20
-4.6846055905511808
11
6.6057532283464564
21
-4.7117634645669293
0
LINE
8
BLACK
6
CONTINUOUS
10
6.6057532283464564
20
-4.7117634645669293
11
6.5758187007874014
21
-4.7378030708661418
0
LINE
8
BLACK
6
CONTINUOUS
10
6.5758187007874014
20
-4.7378030708661418
11
6.5449166535433072
21
-4.762686811023622
0
LINE
8
BLACK
6
CONTINUOUS
10
6.5449166535433072
20
-4.762686811023622
11
6.5130916929133855
21
-4.786378779527559
0
LINE
8
BLACK
6
CONTINUOUS
10
6.5130916929133855
20
-4.786378779527559
11
6.4803897637795274
21
-4.8088448031496061
0
LINE
8
BLACK
6
CONTINUOUS
10
6.4803897637795274
20
-4.8088448031496061
11
6.4468580708661412
21
-4.830052401574803
0
LINE
8
BLACK
6
CONTINUOUS
10
6.4468580708661412
20
-4.830052401574803
11
6.4125449999999997
21
-4.8499709842519687
0
LINE
8
BLACK
6
CONTINUOUS
10
6.4125449999999997
20
-4.8499709842519687
11
6.377500078740157
21
-4.8685718110236218
0
LINE
8
BLACK
6
CONTINUOUS
10
6.377500078740157
20
-4.8685718110236218
11
6.3417738976377951
21
-4.8858280314960627
0
LINE
8
BLACK
6
CONTINUOUS
10
6.3417738976377951
20
-4.8858280314960627
11
6.305431338582677
21
-4.9017088582677166
0
LINE
8
BLACK
6
CONTINUOUS
10
6.305431338582677
20
-4.9017088582677166
11
6.3054309448818895
21
-4.9017092519685042
0
LINE
8
BLACK
6
CONTINUOUS
10
6.3054309448818895
20
-4.9017092519685042
11
6.3054309448818895
21
-4.9017092125984254
0
LINE
8
BLACK
6
CONTINUOUS
10
6.3054309448818895
20
-4.9017092125984254
11
6.3054299606299216
21
-4.9017094881889767
0
LINE
8
BLACK
6
CONTINUOUS
10
6.3054299606299216
20
-4.9017094881889767
11
6.3054179921259843
21
-4.901714724409449
0
LINE
8
BLACK
6
CONTINUOUS
10
6.3054179921259843
20
-4.901714724409449
11
6.3054091338582676
21
-4.9017153937007869
0
LINE
8
BLACK
6
CONTINUOUS
10
6.3054091338582676
20
-4.9017153937007869
11
6.3002821259842516
21
-4.9031759448818892
0
LINE
8
BLACK
6
CONTINUOUS
10
6.3002821259842516
20
-4.9031759448818892
11
6.2949293700787399
21
-4.9032723622047243
0
LINE
8
BLACK
6
CONTINUOUS
10
6.2949293700787399
20
-4.9032723622047243
11
6.2897310629921259
21
-4.9019920866141735
0
LINE
8
BLACK
6
CONTINUOUS
10
6.2897310629921259
20
-4.9019920866141735
11
6.2850353149606297
21
-4.8994207874015743
0
LINE
8
BLACK
6
CONTINUOUS
10
6.2850353149606297
20
-4.8994207874015743
11
6.2811565748031493
21
-4.8957306692913383
0
LINE
8
BLACK
6
CONTINUOUS
10
6.2811565748031493
20
-4.8957306692913383
11
6.2783545669291341
21
-4.8911688582677169
0
LINE
8
BLACK
6
CONTINUOUS
10
6.2783545669291341
20
-4.8911688582677169
11
6.2768168897637793
21
-4.8860407874015745
0
LINE
8
BLACK
6
CONTINUOUS
10
6.2768168897637793
20
-4.8860407874015745
11
6.2766465748031495
21
-4.8806898425196845
0
LINE
8
BLACK
6
CONTINUOUS
10
6.2766465748031495
20
-4.8806898425196845
11
6.277854960629921
21
-4.8754743700787397
0
LINE
8
BLACK
6
CONTINUOUS
10
6.277854960629921
20
-4.8754743700787397
11
6.2803611417322829
21
-4.8707435826771652
0
LINE
8
BLACK
6
CONTINUOUS
10
6.2803611417322829
20
-4.8707435826771652
11
6.2839973228346455
21
-4.8668142519685036
0
LINE
8
BLACK
6
CONTINUOUS
10
6.2839973228346455
20
-4.8668142519685036
11
6.2885200393700789
21
-4.8639494881889762
0
LINE
8
BLACK
6
CONTINUOUS
10
6.2885200393700789
20
-4.8639494881889762
11
6.2885200000000001
21
-4.8639494881889762
0
LINE
8
BLACK
6
CONTINUOUS
10
6.2885200000000001
20
-4.8639494881889762
11
6.2885420472440945
21
-4.8639468110236219
0
LINE
8
BLACK
6
CONTINUOUS
10
6.2885420472440945
20
-4.8639468110236219
11
6.2885588582677165
21
-4.8639324803149604
0
LINE
8
BLACK
6
CONTINUOUS
10
6.2885588582677165
20
-4.8639324803149604
11
6.3061865354330706
21
-4.85664842519685
0
LINE
8
BLACK
6
CONTINUOUS
10
6.3061865354330706
20
-4.85664842519685
11
6.3408621653543307
21
-4.8407495669291336
0
LINE
8
BLACK
6
CONTINUOUS
10
6.3408621653543307
20
-4.8407495669291336
11
6.3749082283464569
21
-4.8235438188976376
0
LINE
8
BLACK
6
CONTINUOUS
10
6.3749082283464569
20
-4.8235438188976376
11
6.4082755118110235
21
-4.8050560629921257
0
LINE
8
BLACK
6
CONTINUOUS
10
6.4082755118110235
20
-4.8050560629921257
11
6.4409157480314958
21
-4.7853129921259843
0
LINE
8
BLACK
6
CONTINUOUS
10
6.4409157480314958
20
-4.7853129921259843
11
6.4727817322834644
21
-4.7643432283464566
0
LINE
8
BLACK
6
CONTINUOUS
10
6.4727817322834644
20
-4.7643432283464566
11
6.503827401574803
21
-4.7421770866141735
0
LINE
8
BLACK
6
CONTINUOUS
10
6.503827401574803
20
-4.7421770866141735
11
6.5340078346456689
21
-4.7188465354330704
0
LINE
8
BLACK
6
CONTINUOUS
10
6.5340078346456689
20
-4.7188465354330704
11
6.5632794094488185
21
-4.6943854330708659
0
LINE
8
BLACK
6
CONTINUOUS
10
6.5632794094488185
20
-4.6943854330708659
11
6.5915998031496059
21
-4.6688290551181097
0
LINE
8
BLACK
6
CONTINUOUS
10
6.5915998031496059
20
-4.6688290551181097
11
6.618928031496063
21
-4.6422144094488189
0
LINE
8
BLACK
6
CONTINUOUS
10
6.618928031496063
20
-4.6422144094488189
11
6.6452246062992124
21
-4.6145799606299214
0
LINE
8
BLACK
6
CONTINUOUS
10
6.6452246062992124
20
-4.6145799606299214
11
6.6704514960629924
21
-4.5859657086614174
0
LINE
8
BLACK
6
CONTINUOUS
10
6.6704514960629924
20
-4.5859657086614174
11
6.6945722047244089
21
-4.5564129527559052
0
LINE
8
BLACK
6
CONTINUOUS
10
6.6945722047244089
20
-4.5564129527559052
11
6.7175518503937006
21
-4.5259645275590552
0
LINE
8
BLACK
6
CONTINUOUS
10
6.7175518503937006
20
-4.5259645275590552
11
6.739357204724409
21
-4.4946643700787403
0
LINE
8
BLACK
6
CONTINUOUS
10
6.739357204724409
20
-4.4946643700787403
11
6.7599567716535436
21
-4.4625578346456694
0
LINE
8
BLACK
6
CONTINUOUS
10
6.7599567716535436
20
-4.4625578346456694
11
6.7793207086614169
21
-4.4296912992125987
0
LINE
8
BLACK
6
CONTINUOUS
10
6.7793207086614169
20
-4.4296912992125987
11
6.7974210629921261
21
-4.3961122834645669
0
LINE
8
BLACK
6
CONTINUOUS
10
6.7974210629921261
20
-4.3961122834645669
11
6.8142316141732282
21
-4.3618693700787396
0
LINE
8
BLACK
6
CONTINUOUS
10
6.8142316141732282
20
-4.3618693700787396
11
6.8297280708661416
21
-4.3270120472440947
0
LINE
8
BLACK
6
CONTINUOUS
10
6.8297280708661416
20
-4.3270120472440947
11
6.8438880314960624
21
-4.2915907480314957
0
LINE
8
BLACK
6
CONTINUOUS
10
6.8438880314960624
20
-4.2915907480314957
11
6.8566910236220471
21
-4.2556567322834642
0
LINE
8
BLACK
6
CONTINUOUS
10
6.8566910236220471
20
-4.2556567322834642
11
6.8681185039370076
21
-4.2192618503937007
0
LINE
8
BLACK
6
CONTINUOUS
10
6.8681185039370076
20
-4.2192618503937007
11
6.8781539763779529
21
-4.182458858267716
0
LINE
8
BLACK
6
CONTINUOUS
10
6.8781539763779529
20
-4.182458858267716
11
6.8867829133858267
21
-4.1453009055118111
0
LINE
8
BLACK
6
CONTINUOUS
10
6.8867829133858267
20
-4.1453009055118111
11
6.8939928346456689
21
-4.1078417322834646
0
LINE
8
BLACK
6
CONTINUOUS
10
6.8939928346456689
20
-4.1078417322834646
11
6.8997733464566924
21
-4.0701355118110234
0
LINE
8
BLACK
6
CONTINUOUS
10
6.8997733464566924
20
-4.0701355118110234
11
6.9041160236220467
21
-4.0322368110236217
0
LINE
8
BLACK
6
CONTINUOUS
10
6.9041160236220467
20
-4.0322368110236217
11
6.9070146850393703
21
-3.9942003543307085
0
LINE
8
BLACK
6
CONTINUOUS
10
6.9070146850393703
20
-3.9942003543307085
11
6.9084650393700784
21
-3.9560812204724409
0
LINE
8
BLACK
6
CONTINUOUS
10
6.9084650393700784
20
-3.9560812204724409
11
6.9084645669291334
21
-3.9370078740157481
0
LINE
8
BLACK
6
CONTINUOUS
10
6.9084645669291334
20
-3.9370078740157481
11
6.9091688582677167
21
-3.9316582677165353
0
LINE
8
BLACK
6
CONTINUOUS
10
6.9091688582677167
20
-3.9316582677165353
11
6.9112337401574804
21
-3.9266732283464565
0
LINE
8
BLACK
6
CONTINUOUS
10
6.9112337401574804
20
-3.9266732283464565
11
6.9145184645669291
21
-3.9223924803149606
0
LINE
8
BLACK
6
CONTINUOUS
10
6.9145184645669291
20
-3.9223924803149606
11
6.918799212598425
21
-3.9191077559055119
0
LINE
8
BLACK
6
CONTINUOUS
10
6.918799212598425
20
-3.9191077559055119
11
6.9237842519685042
21
-3.9170428740157481
0
LINE
8
BLACK
6
CONTINUOUS
10
6.9237842519685042
20
-3.9170428740157481
11
6.9291338582677167
21
-3.9163385826771653
0
LINE
8
BLACK
6
CONTINUOUS
10
6.9291338582677167
20
-3.9163385826771653
11
6.9344834645669291
21
-3.9170428740157481
0
LINE
8
BLACK
6
CONTINUOUS
10
6.9219156299212594
20
-3.919581496062992
11
6.917651299212598
21
-3.9220435039370076
0
LINE
8
BLACK
6
CONTINUOUS
10
6.917651299212598
20
-3.9220435039370076
11
6.9141694881889766
21
-3.92552531496063
0
LINE
8
BLACK
6
CONTINUOUS
10
6.9141694881889766
20
-3.92552531496063
11
6.9117074803149601
21
-3.9297896456692913
0
LINE
8
BLACK
6
CONTINUOUS
10
6.9117074803149601
20
-3.9297896456692913
11
6.9104330708661417
21
-3.9345458661417321
0
LINE
8
BLACK
6
CONTINUOUS
10
6.9104330708661417
20
-3.9345458661417321
11
6.9104330708661417
21
-3.9370078740157481
0
LINE
8
BLACK
6
CONTINUOUS
10
6.9104330708661417
20
-3.9370078740157481
11
6.9097064566929136
21
-3.9752156299212595
0
LINE
8
BLACK
6
CONTINUOUS
10
6.9097064566929136
20
-3.9752156299212595
11
6.9075277165354327
21
-4.0133681496062987
0
LINE
8
BLACK
6
CONTINUOUS
10
6.9075277165354327
20
-4.0133681496062987
11
6.9038999212598426
21
-4.0514101968503935
0
LINE
8
BLACK
6
CONTINUOUS
10
6.9038999212598426
20
-4.0514101968503935
11
6.8988283858267714
21
-4.0892868503937008
0
LINE
8
BLACK
6
CONTINUOUS
10
6.8988283858267714
20
-4.0892868503937008
11
6.8923204330708661
21
-4.1269433070866137
0
LINE
8
BLACK
6
CONTINUOUS
10
6.8923204330708661
20
-4.1269433070866137
11
6.884385472440945
21
-4.1643250393700786
0
LINE
8
BLACK
6
CONTINUOUS
10
6.884385472440945
20
-4.1643250393700786
11
6.8750349606299208
21
-4.2013781102362202
0
LINE
8
BLACK
6
CONTINUOUS
10
6.8750349606299208
20
-4.2013781102362202
11
6.864282401574803
21
-4.2380488582677165
0
LINE
8
BLACK
6
CONTINUOUS
10
6.864282401574803
20
-4.2380488582677165
11
6.85214342519685
21
-4.2742842519685036
0
LINE
8
BLACK
6
CONTINUOUS
10
6.85214342519685
20
-4.2742842519685036
11
6.8386354724409451
21
-4.3100319291338582
0
LINE
8
BLACK
6
CONTINUOUS
10
6.8386354724409451
20
-4.3100319291338582
11
6.8237781889763776
21
-4.3452401968503933
0
LINE
8
BLACK
6
CONTINUOUS
10
6.8237781889763776
20
-4.3452401968503933
11
6.8075929527559049
21
-4.3798581102362206
0
LINE
8
BLACK
6
CONTINUOUS
10
6.8075929527559049
20
-4.3798581102362206
11
6.7901032677165354
21
-4.413835590551181
0
LINE
8
BLACK
6
CONTINUOUS
10
6.7901032677165354
20
-4.413835590551181
11
6.7713343700787396
21
-4.4471235826771656
0
LINE
8
BLACK
6
CONTINUOUS
10
6.7713343700787396
20
-4.4471235826771656
11
6.7513134251968498
21
-4.4796738582677165
0
LINE
8
BLACK
6
CONTINUOUS
10
6.7513134251968498
20
-4.4796738582677165
11
6.7300693700787404
21
-4.511439409448819
0
LINE
8
BLACK
6
CONTINUOUS
10
6.7300693700787404
20
-4.511439409448819
11
6.7076329133858268
21
-4.5423742913385823
0
LINE
8
BLACK
6
CONTINUOUS
10
6.7076329133858268
20
-4.5423742913385823
11
6.6840364960629923
21
-4.5724337401574804
0
LINE
8
BLACK
6
CONTINUOUS
10
6.6840364960629923
20
-4.5724337401574804
11
6.6593142913385828
21
-4.6015743307086616
0
LINE
8
BLACK
6
CONTINUOUS
10
6.6593142913385828
20
-4.6015743307086616
11
6.6335020078740152
21
-4.6297538582677165
0
LINE
8
BLACK
6
CONTINUOUS
10
6.6335020078740152
20
-4.6297538582677165
11
6.6066370078740153
21
-4.656931614173228
0
LINE
8
BLACK
6
CONTINUOUS
10
6.6066370078740153
20
-4.656931614173228
11
6.5787580708661419
21
-4.6830683070866144
0
LINE
8
BLACK
6
CONTINUOUS
10
6.5787580708661419
20
-4.6830683070866144
11
6.5499055905511812
21
-4.7081261417322837
0
LINE
8
BLACK
6
CONTINUOUS
10
6.5499055905511812
20
-4.7081261417322837
11
6.5201212598425196
21
-4.7320688582677164
0
LINE
8
BLACK
6
CONTINUOUS
10
6.5201212598425196
20
-4.7320688582677164
11
6.4894481496062992
21
-4.7548618503937004
0
LINE
8
BLACK
6
CONTINUOUS
10
6.4894481496062992
20
-4.7548618503937004
11
6.4579305905511806
21
-4.7764721259842515
0
LINE
8
BLACK
6
CONTINUOUS
10
6.4579305905511806
20
-4.7764721259842515
11
6.4256141732283467
21
-4.7968684645669288
0
LINE
8
BLACK
6
CONTINUOUS
10
6.4256141732283467
20
-4.7968684645669288
11
6.3925456692913381
21
-4.8160213779527554
0
LINE
8
BLACK
6
CONTINUOUS
10
6.3925456692913381
20
-4.8160213779527554
11
6.3587728740157479
21
-4.8339031496062992
0
LINE
8
BLACK
6
CONTINUOUS
10
6.3587728740157479
20
-4.8339031496062992
11
6.3243446062992126
21
-4.8504879527559055
0
LINE
8
BLACK
6
CONTINUOUS
10
6.3243446062992126
20
-4.8504879527559055
11
6.2893468897637792
21
-4.86573594488189
0
LINE
8
BLACK
6
CONTINUOUS
10
6.2893468897637792
20
-4.86573594488189
11
6.2871325196850396
21
-4.8667614566929132
0
LINE
8
BLACK
6
CONTINUOUS
10
6.2871325196850396
20
-4.8667614566929132
11
6.2833778346456688
21
-4.8698880708661418
0
LINE
8
BLACK
6
CONTINUOUS
10
6.2833778346456688
20
-4.8698880708661418
11
6.2805511417322837
21
-4.8738734645669286
0
LINE
8
BLACK
6
CONTINUOUS
10
6.2805511417322837
20
-4.8738734645669286
11
6.2788416929133861
21
-4.8784507086614175
0
LINE
8
BLACK
6
CONTINUOUS
10
6.2788416929133861
20
-4.8784507086614175
11
6.2783639763779524
21
-4.8833133858267717
0
LINE
8
BLACK
6
CONTINUOUS
10
6.2783639763779524
20
-4.8833133858267717
11
6.2791499999999996
21
-4.8881357874015743
0
LINE
8
BLACK
6
CONTINUOUS
10
6.2791499999999996
20
-4.8881357874015743
11
6.2811470866141734
21
-4.8925950393700788
0
LINE
8
BLACK
6
CONTINUOUS
10
6.2811470866141734
20
-4.8925950393700788
11
6.2842215748031496
21
-4.8963925590551183
0
LINE
8
BLACK
6
CONTINUOUS
10
6.2842215748031496
20
-4.8963925590551183
11
6.2881675196850395
21
-4.8992740551181102
0
LINE
8
BLACK
6
CONTINUOUS
10
6.2881675196850395
20
-4.8992740551181102
11
6.2927207480314955
21
-4.9010465354330703
0
LINE
8
BLACK
6
CONTINUOUS
10
6.2927207480314955
20
-4.9010465354330703
11
6.2975763385826768
21
-4.9015913385826773
0
LINE
8
BLACK
6
CONTINUOUS
10
6.2975763385826768
20
-4.9015913385826773
11
6.3024091338582675
21
-4.9008720078740158
0
LINE
8
BLACK
6
CONTINUOUS
10
6.3024091338582675
20
-4.9008720078740158
11
6.304651220472441
21
-4.8999017322834648
0
LINE
8
BLACK
6
CONTINUOUS
10
6.304651220472441
20
-4.8999017322834648
11
6.3046512598425197
21
-4.8999017716535436
0
LINE
8
BLACK
6
CONTINUOUS
10
6.3046512598425197
20
-4.8999017716535436
11
6.3046585826771651
21
-4.899901062992126
0
LINE
8
BLACK
6
CONTINUOUS
10
6.3046585826771651
20
-4.899901062992126
11
6.3046642125984249
21
-4.8998962992125987
0
LINE
8
BLACK
6
CONTINUOUS
10
6.3046642125984249
20
-4.8998962992125987
11
6.3046641732283462
21
-4.89989625984252
0
LINE
8
BLACK
6
CONTINUOUS
10
6.3046641732283462
20
-4.89989625984252
11
6.3229588582677163
21
-4.8923134251968499
0
LINE
8
BLACK
6
CONTINUOUS
10
6.3229588582677163
20
-4.8923134251968499
11
6.3589449606299215
21
-4.8757672047244096
0
LINE
8
BLACK
6
CONTINUOUS
10
6.3589449606299215
20
-4.8757672047244096
11
6.3942765748031496
21
-4.8578659842519682
0
LINE
8
BLACK
6
CONTINUOUS
10
6.3942765748031496
20
-4.8578659842519682
11
6.4289027559055114
21
-4.8386356299212601
0
LINE
8
BLACK
6
CONTINUOUS
10
6.4289027559055114
20
-4.8386356299212601
11
6.4627734251968505
21
-4.8181038582677163
0
LINE
8
BLACK
6
CONTINUOUS
10
6.4627734251968505
20
-4.8181038582677163
11
6.4958398031496065
21
-4.7963003543307083
0
LINE
8
BLACK
6
CONTINUOUS
10
6.4958398031496065
20
-4.7963003543307083
11
6.5280540551181101
21
-4.7732565354330712
0
LINE
8
BLACK
6
CONTINUOUS
10
6.5280540551181101
20
-4.7732565354330712
11
6.5593697637795279
21
-4.7490056692913383
0
LINE
8
BLACK
6
CONTINUOUS
10
6.5593697637795279
20
-4.7490056692913383
11
6.5897417322834642
21
-4.7235827952755907
0
LINE
8
BLACK
6
CONTINUOUS
10
6.5897417322834642
20
-4.7235827952755907
11
6.6191260629921258
21
-4.6970246062992125
0
LINE
8
BLACK
6
CONTINUOUS
10
6.6191260629921258
20
-4.6970246062992125
11
6.6474803543307086
21
-4.6693693700787398
0
LINE
8
BLACK
6
CONTINUOUS
10
6.6474803543307086
20
-4.6693693700787398
11
6.674763700787401
21
-4.6406570866141728
0
LINE
8
BLACK
6
CONTINUOUS
10
6.674763700787401
20
-4.6406570866141728
11
6.7009367322834645
21
-4.6109291338582672
0
LINE
8
BLACK
6
CONTINUOUS
10
6.7009367322834645
20
-4.6109291338582672
11
6.7259616535433073
21
-4.5802285039370076
0
LINE
8
BLACK
6
CONTINUOUS
10
6.7259616535433073
20
-4.5802285039370076
11
6.7498023228346451
21
-4.5485994094488191
0
LINE
8
BLACK
6
CONTINUOUS
10
6.7498023228346451
20
-4.5485994094488191
11
6.7724243700787401
21
-4.5160875590551184
0
LINE
8
BLACK
6
CONTINUOUS
10
6.7724243700787401
20
-4.5160875590551184
11
6.7937951574803144
21
-4.4827398818897635
0
LINE
8
BLACK
6
CONTINUOUS
10
6.7937951574803144
20
-4.4827398818897635
11
6.8138837795275586
21
-4.4486044881889759
0
LINE
8
BLACK
6
CONTINUOUS
10
6.8138837795275586
20
-4.4486044881889759
11
6.8326612598425198
21
-4.4137306692913381
0
LINE
8
BLACK
6
CONTINUOUS
10
6.8326612598425198
20
-4.4137306692913381
11
6.8501005118110232
21
-4.3781687401574798
0
LINE
8
BLACK
6
CONTINUOUS
10
6.8501005118110232
20
-4.3781687401574798
11
6.8661763385826768
21
-4.3419700393700786
0
LINE
8
BLACK
6
CONTINUOUS
10
6.8661763385826768
20
-4.3419700393700786
11
6.8808655511811025
21
-4.3051868503937003
0
LINE
8
BLACK
6
CONTINUOUS
10
6.8808655511811025
20
-4.3051868503937003
11
6.8941469685039367
21
-4.2678722440944883
0
LINE
8
BLACK
6
CONTINUOUS
10
6.8941469685039367
20
-4.2678722440944883
11
6.906001377952756
21
-4.2300800393700788
0
LINE
8
BLACK
6
CONTINUOUS
10
6.906001377952756
20
-4.2300800393700788
11
6.9164117322834642
21
-4.1918648031496062
0
LINE
8
BLACK
6
CONTINUOUS
10
6.9164117322834642
20
-4.1918648031496062
11
6.9253629133858263
21
-4.1532817716535435
0
LINE
8
BLACK
6
CONTINUOUS
10
6.9253629133858263
20
-4.1532817716535435
11
6.9328420866141727
21
-4.1143865354330709
0
LINE
8
BLACK
6
CONTINUOUS
10
6.9328420866141727
20
-4.1143865354330709
11
6.9388384251968507
21
-4.0752352362204727
0
LINE
8
BLACK
6
CONTINUOUS
10
6.9388384251968507
20
-4.0752352362204727
11
6.9433432677165356
21
-4.0358844881889766
0
LINE
8
BLACK
6
CONTINUOUS
10
6.9433432677165356
20
-4.0358844881889766
11
6.9463500787401573
21
-3.9963909842519683
0
LINE
8
BLACK
6
CONTINUOUS
10
6.9463500787401573
20
-3.9963909842519683
11
6.9478546062992121
21
-3.9568117716535434
0
LINE
8
BLACK
6
CONTINUOUS
10
6.9478546062992121
20
-3.9568117716535434
11
6.9478537401574805
21
-3.9370666141732285
0
LINE
8
BLACK
6
CONTINUOUS
10
6.9478537401574805
20
-3.9370666141732285
11
6.9478346456692908
21
-3.9370078740157481
0
LINE
8
BLACK
6
CONTINUOUS
10
6.9478346456692908
20
-3.9370078740157481
11
6.9478346456692908
21
-3.9345458661417321
0
LINE
8
BLACK
6
CONTINUOUS
10
6.9478346456692908
20
-3.9345458661417321
11
6.9465602362204724
21
-3.9297896456692913
0
LINE
8
BLACK
6
CONTINUOUS
10
6.9465602362204724
20
-3.9297896456692913
11
6.9440982283464567
21
-3.92552531496063
0
LINE
8
BLACK
6
CONTINUOUS
10
6.9440982283464567
20
-3.92552531496063
11
6.9406164173228344
21
-3.9220435039370076
0
LINE
8
BLACK
6
CONTINUOUS
10
6.9406164173228344
20
-3.9220435039370076
11
6.936352086614173
21
-3.919581496062992
0
LINE
8
BLACK
6
CONTINUOUS
10
6.936352086614173
20
-3.919581496062992
11
6.9315958661417323
21
-3.9183070866141732
0
LINE
8
BLACK
6
CONTINUOUS
10
6.9315958661417323
20
-3.9183070866141732
11
6.926671850393701
21
-3.9183070866141732
0
LINE
8
BLACK
6
CONTINUOUS
10
6.926671850393701
20
-3.9183070866141732
11
6.9219156299212594
21
-3.919581496062992
0
LINE
8
BLACK
6
CONTINUOUS
10
5.956013858267716
20
-3.2094277559055118
11
5.9895621259842518
21
-3.2125364566929133
0
LINE
8
BLACK
6
CONTINUOUS
10
5.9895621259842518
20
-3.2125364566929133
11
6.022931062992126
21
-3.2171912204724409
0
LINE
8
BLACK
6
CONTINUOUS
10
6.022931062992126
20
-3.2171912204724409
11
6.0560493700787399
21
-3.2233821259842519
0
LINE
8
BLACK
6
CONTINUOUS
10
6.0560493700787399
20
-3.2233821259842519
11
6.088846456692913
21
-3.2310959055118111
0
LINE
8
BLACK
6
CONTINUOUS
10
6.088846456692913
20
-3.2310959055118111
11
6.1212522834645666
21
-3.240316181102362
0
LINE
8
BLACK
6
CONTINUOUS
10
6.1212522834645666
20
-3.240316181102362
11
6.1531977165354332
21
-3.2510231889763781
0
LINE
8
BLACK
6
CONTINUOUS
10
6.1531977165354332
20
-3.2510231889763781
11
6.1846146062992124
21
-3.2631941732283463
0
LINE
8
BLACK
6
CONTINUOUS
10
6.1846146062992124
20
-3.2631941732283463
11
6.2154358267716532
21
-3.2768030708661415
0
LINE
8
BLACK
6
CONTINUOUS
10
6.2154358267716532
20
-3.2768030708661415
11
6.2455956692913386
21
-3.2918209055118108
0
LINE
8
BLACK
6
CONTINUOUS
10
6.2455956692913386
20
-3.2918209055118108
11
6.2750297637795276
21
-3.3082155511811022
0
LINE
8
BLACK
6
CONTINUOUS
10
6.2750297637795276
20
-3.3082155511811022
11
6.3036752755905514
21
-3.3259521259842519
0
LINE
8
BLACK
6
CONTINUOUS
10
6.3036752755905514
20
-3.3259521259842519
11
6.3314711023622046
21
-3.3449927165354332
0
LINE
8
BLACK
6
CONTINUOUS
10
6.3314711023622046
20
-3.3449927165354332
11
6.3583579133858263
21
-3.3652966535433069
0
LINE
8
BLACK
6
CONTINUOUS
10
6.3583579133858263
20
-3.3652966535433069
11
6.384278307086614
21
-3.3868207086614173
0
LINE
8
BLACK
6
CONTINUOUS
10
6.384278307086614
20
-3.3868207086614173
11
6.4091770078740158
21
-3.4095188582677163
0
LINE
8
BLACK
6
CONTINUOUS
10
6.4091770078740158
20
-3.4095188582677163
11
6.4330008267716536
21
-3.4333426771653541
0
LINE
8
BLACK
6
CONTINUOUS
10
6.4330008267716536
20
-3.4333426771653541
11
6.4556989763779526
21
-3.4582413779527559
0
LINE
8
BLACK
6
CONTINUOUS
10
6.4556989763779526
20
-3.4582413779527559
11
6.477223031496063
21
-3.4841617716535431
0
LINE
8
BLACK
6
CONTINUOUS
10
6.477223031496063
20
-3.4841617716535431
11
6.4975269685039372
21
-3.5110485826771654
0
LINE
8
BLACK
6
CONTINUOUS
10
6.4975269685039372
20
-3.5110485826771654
11
6.516567559055118
21
-3.538844409448819
0
LINE
8
BLACK
6
CONTINUOUS
10
6.516567559055118
20
-3.538844409448819
11
6.5343041338582672
21
-3.5674899212598423
0
LINE
8
BLACK
6
CONTINUOUS
10
6.5343041338582672
20
-3.5674899212598423
11
6.5506987795275586
21
-3.5969240157480313
0
LINE
8
BLACK
6
CONTINUOUS
10
6.5506987795275586
20
-3.5969240157480313
11
6.5657166141732279
21
-3.6270838582677163
0
LINE
8
BLACK
6
CONTINUOUS
10
6.5657166141732279
20
-3.6270838582677163
11
6.5793255118110237
21
-3.6579050787401575
0
LINE
8
BLACK
6
CONTINUOUS
10
6.5793255118110237
20
-3.6579050787401575
11
6.5914964960629918
21
-3.6893219685039371
0
LINE
8
BLACK
6
CONTINUOUS
10
6.5914964960629918
20
-3.6893219685039371
11
6.6022035039370079
21
-3.7212674015748028
0
LINE
8
BLACK
6
CONTINUOUS
10
6.6022035039370079
20
-3.7212674015748028
11
6.6114237795275592
21
-3.7536732283464564
0
LINE
8
BLACK
6
CONTINUOUS
10
6.6114237795275592
20
-3.7536732283464564
11
6.619137559055118
21
-3.78647031496063
0
LINE
8
BLACK
6
CONTINUOUS
10
6.619137559055118
20
-3.78647031496063
11
6.6253284645669286
21
-3.8195886220472439
0
LINE
8
BLACK
6
CONTINUOUS
10
6.6253284645669286
20
-3.8195886220472439
11
6.6299832283464566
21
-3.8529575590551182
0
LINE
8
BLACK
6
CONTINUOUS
10
6.6299832283464566
20
-3.8529575590551182
11
6.6330919291338581
21
-3.8865058267716535
0
LINE
8
BLACK
6
CONTINUOUS
10
6.6330919291338581
20
-3.8865058267716535
11
6.6346479527559055
21
-3.9201618897637793
0
LINE
8
BLACK
6
CONTINUOUS
10
6.6346479527559055
20
-3.9201618897637793
11
6.6346479527559055
21
-3.9538538582677165
0
LINE
8
BLACK
6
CONTINUOUS
10
6.6346479527559055
20
-3.9538538582677165
11
6.6330919291338581
21
-3.9875099212598424
0
LINE
8
BLACK
6
CONTINUOUS
10
6.6330919291338581
20
-3.9875099212598424
11
6.6299832283464566
21
-4.0210581889763777
0
LINE
8
BLACK
6
CONTINUOUS
10
6.6299832283464566
20
-4.0210581889763777
11
6.6253284645669286
21
-4.0544271259842519
0
LINE
8
BLACK
6
CONTINUOUS
10
6.6253284645669286
20
-4.0544271259842519
11
6.619137559055118
21
-4.0875454330708658
0
LINE
8
BLACK
6
CONTINUOUS
10
6.619137559055118
20
-4.0875454330708658
11
6.6114237795275592
21
-4.120342519685039
0
LINE
8
BLACK
6
CONTINUOUS
10
6.6114237795275592
20
-4.120342519685039
11
6.6022035039370079
21
-4.1527483464566926
0
LINE
8
BLACK
6
CONTINUOUS
10
6.6022035039370079
20
-4.1527483464566926
11
6.5914964960629918
21
-4.1846937795275592
0
LINE
8
BLACK
6
CONTINUOUS
10
6.5914964960629918
20
-4.1846937795275592
11
6.5793255118110237
21
-4.2161106692913384
0
LINE
8
BLACK
6
CONTINUOUS
10
6.5793255118110237
20
-4.2161106692913384
11
6.5657166141732279
21
-4.2469318897637791
0
LINE
8
BLACK
6
CONTINUOUS
10
6.5657166141732279
20
-4.2469318897637791
11
6.5506987795275586
21
-4.2770917322834645
0
LINE
8
BLACK
6
CONTINUOUS
10
6.5506987795275586
20
-4.2770917322834645
11
6.5343041338582672
21
-4.3065258267716535
0
LINE
8
BLACK
6
CONTINUOUS
10
6.5343041338582672
20
-4.3065258267716535
11
6.516567559055118
21
-4.3351713385826773
0
LINE
8
BLACK
6
CONTINUOUS
10
6.516567559055118
20
-4.3351713385826773
11
6.4975269685039372
21
-4.3629671653543305
0
LINE
8
BLACK
6
CONTINUOUS
10
6.4975269685039372
20
-4.3629671653543305
11
6.477223031496063
21
-4.3898539763779523
0
LINE
8
BLACK
6
CONTINUOUS
10
6.477223031496063
20
-4.3898539763779523
11
6.4556989763779526
21
-4.41577437007874
0
LINE
8
BLACK
6
CONTINUOUS
10
6.4556989763779526
20
-4.41577437007874
11
6.4330008267716536
21
-4.4406730708661417
0
LINE
8
BLACK
6
CONTINUOUS
10
6.4330008267716536
20
-4.4406730708661417
11
6.4091770078740158
21
-4.4644968897637796
0
LINE
8
BLACK
6
CONTINUOUS
10
6.4091770078740158
20
-4.4644968897637796
11
6.384278307086614
21
-4.4871950393700786
0
LINE
8
BLACK
6
CONTINUOUS
10
6.384278307086614
20
-4.4871950393700786
11
6.3583579133858263
21
-4.508719094488189
0
LINE
8
BLACK
6
CONTINUOUS
10
6.3583579133858263
20
-4.508719094488189
11
6.3314711023622046
21
-4.5290230314960631
0
LINE
8
BLACK
6
CONTINUOUS
10
6.3314711023622046
20
-4.5290230314960631
11
6.3036752755905514
21
-4.5480636220472439
0
LINE
8
BLACK
6
CONTINUOUS
10
6.3036752755905514
20
-4.5480636220472439
11
6.2750297637795276
21
-4.5658001968503932
0
LINE
8
BLACK
6
CONTINUOUS
10
6.2750297637795276
20
-4.5658001968503932
11
6.2455956692913386
21
-4.5821948425196846
0
LINE
8
BLACK
6
CONTINUOUS
10
6.2455956692913386
20
-4.5821948425196846
11
6.2154358267716532
21
-4.5972126771653539
0
LINE
8
BLACK
6
CONTINUOUS
10
6.2154358267716532
20
-4.5972126771653539
11
6.1846146062992124
21
-4.6108215748031496
0
LINE
8
BLACK
6
CONTINUOUS
10
6.1846146062992124
20
-4.6108215748031496
11
6.1531977165354332
21
-4.6229925590551177
0
LINE
8
BLACK
6
CONTINUOUS
10
6.1531977165354332
20
-4.6229925590551177
11
6.1212522834645666
21
-4.6336995669291339
0
LINE
8
BLACK
6
CONTINUOUS
10
6.1212522834645666
20
-4.6336995669291339
11
6.088846456692913
21
-4.6429198425196851
0
LINE
8
BLACK
6
CONTINUOUS
10
6.088846456692913
20
-4.6429198425196851
11
6.0560493700787399
21
-4.650633622047244
0
LINE
8
BLACK
6
CONTINUOUS
10
6.0560493700787399
20
-4.650633622047244
11
6.022931062992126
21
-4.6568245275590554
0
LINE
8
BLACK
6
CONTINUOUS
10
6.022931062992126
20
-4.6568245275590554
11
5.9895621259842518
21
-4.6614792913385825
0
LINE
8
BLACK
6
CONTINUOUS
10
5.9895621259842518
20
-4.6614792913385825
11
5.956013858267716
21
-4.6645879921259841
0
LINE
8
BLACK
6
CONTINUOUS
10
5.956013858267716
20
-4.6645879921259841
11
5.9223577952755901
21
-4.6661440157480314
0
LINE
8
BLACK
6
CONTINUOUS
10
5.9223577952755901
20
-4.6661440157480314
11
5.8886658267716534
21
-4.6661440157480314
0
LINE
8
BLACK
6
CONTINUOUS
10
5.8886658267716534
20
-4.6661440157480314
11
5.8550097637795275
21
-4.6645879921259841
0
LINE
8
BLACK
6
CONTINUOUS
10
5.8550097637795275
20
-4.6645879921259841
11
5.8214614960629918
21
-4.6614792913385825
0
LINE
8
BLACK
6
CONTINUOUS
10
5.8214614960629918
20
-4.6614792913385825
11
5.7880925590551175
21
-4.6568245275590554
0
LINE
8
BLACK
6
CONTINUOUS
10
5.7880925590551175
20
-4.6568245275590554
11
5.7549742519685037
21
-4.650633622047244
0
LINE
8
BLACK
6
CONTINUOUS
10
5.7549742519685037
20
-4.650633622047244
11
5.7221771653543305
21
-4.6429198425196851
0
LINE
8
BLACK
6
CONTINUOUS
10
5.7221771653543305
20
-4.6429198425196851
11
5.6897713385826769
21
-4.6336995669291339
0
LINE
8
BLACK
6
CONTINUOUS
10
5.6897713385826769
20
-4.6336995669291339
11
5.6578259055118112
21
-4.6229925590551177
0
LINE
8
BLACK
6
CONTINUOUS
10
5.6578259055118112
20
-4.6229925590551177
11
5.6264090157480311
21
-4.6108215748031496
0
LINE
8
BLACK
6
CONTINUOUS
10
5.6264090157480311
20
-4.6108215748031496
11
5.5955877952755904
21
-4.5972126771653539
0
LINE
8
BLACK
6
CONTINUOUS
10
5.5955877952755904
20
-4.5972126771653539
11
5.565427952755905
21
-4.5821948425196846
0
LINE
8
BLACK
6
CONTINUOUS
10
5.565427952755905
20
-4.5821948425196846
11
5.5359938582677168
21
-4.5658001968503932
0
LINE
8
BLACK
6
CONTINUOUS
10
5.5359938582677168
20
-4.5658001968503932
11
5.507348346456693
21
-4.5480636220472439
0
LINE
8
BLACK
6
CONTINUOUS
10
5.507348346456693
20
-4.5480636220472439
11
5.479552519685039
21
-4.5290230314960631
0
LINE
8
BLACK
6
CONTINUOUS
10
5.479552519685039
20
-4.5290230314960631
11
5.4526657086614172
21
-4.508719094488189
0
LINE
8
BLACK
6
CONTINUOUS
10
5.4526657086614172
20
-4.508719094488189
11
5.4267453149606295
21
-4.4871950393700786
0
LINE
8
BLACK
6
CONTINUOUS
10
5.4267453149606295
20
-4.4871950393700786
11
5.4018466141732286
21
-4.4644968897637796
0
LINE
8
BLACK
6
CONTINUOUS
10
5.4018466141732286
20
-4.4644968897637796
11
5.3780227952755908
21
-4.4406730708661417
0
LINE
8
BLACK
6
CONTINUOUS
10
5.3780227952755908
20
-4.4406730708661417
11
5.3553246456692909
21
-4.41577437007874
0
LINE
8
BLACK
6
CONTINUOUS
10
5.3553246456692909
20
-4.41577437007874
11
5.3338005905511814
21
-4.3898539763779523
0
LINE
8
BLACK
6
CONTINUOUS
10
5.3338005905511814
20
-4.3898539763779523
11
5.3134966535433072
21
-4.3629671653543305
0
LINE
8
BLACK
6
CONTINUOUS
10
5.3134966535433072
20
-4.3629671653543305
11
5.2944560629921256
21
-4.3351713385826773
0
LINE
8
BLACK
6
CONTINUOUS
10
5.2944560629921256
20
-4.3351713385826773
11
5.2767194881889763
21
-4.3065258267716535
0
LINE
8
BLACK
6
CONTINUOUS
10
5.2767194881889763
20
-4.3065258267716535
11
5.2603248425196849
21
-4.2770917322834645
0
LINE
8
BLACK
6
CONTINUOUS
10
5.2603248425196849
20
-4.2770917322834645
11
5.2453070078740156
21
-4.2469318897637791
0
LINE
8
BLACK
6
CONTINUOUS
10
5.2453070078740156
20
-4.2469318897637791
11
5.2316981102362208
21
-4.2161106692913384
0
LINE
8
BLACK
6
CONTINUOUS
10
5.2316981102362208
20
-4.2161106692913384
11
5.2195271259842517
21
-4.1846937795275592
0
LINE
8
BLACK
6
CONTINUOUS
10
5.2195271259842517
20
-4.1846937795275592
11
5.2088201181102365
21
-4.1527483464566926
0
LINE
8
BLACK
6
CONTINUOUS
10
5.2088201181102365
20
-4.1527483464566926
11
5.1995998425196852
21
-4.120342519685039
0
LINE
8
BLACK
6
CONTINUOUS
10
5.1995998425196852
20
-4.120342519685039
11
5.1918860629921255
21
-4.0875454330708658
0
LINE
8
BLACK
6
CONTINUOUS
10
5.1918860629921255
20
-4.0875454330708658
11
5.185695157480315
21
-4.0544271259842519
0
LINE
8
BLACK
6
CONTINUOUS
10
5.185695157480315
20
-4.0544271259842519
11
5.181040393700787
21
-4.0210581889763777
0
LINE
8
BLACK
6
CONTINUOUS
10
5.181040393700787
20
-4.0210581889763777
11
5.1779316929133854
21
-3.9875099212598424
0
LINE
8
BLACK
6
CONTINUOUS
10
5.1779316929133854
20
-3.9875099212598424
11
5.1763756692913381
21
-3.9538538582677165
0
LINE
8
BLACK
6
CONTINUOUS
10
5.1763756692913381
20
-3.9538538582677165
11
5.1763756692913381
21
-3.920202874015748
0
LINE
8
BLACK
6
CONTINUOUS
10
5.1763756692913381
20
-3.920202874015748
11
5.1763756692913381
21
-3.9201618897637793
0
LINE
8
BLACK
6
CONTINUOUS
10
5.1763756692913381
20
-3.9201618897637793
11
5.1779316929133854
21
-3.8865058267716535
0
LINE
8
BLACK
6
CONTINUOUS
10
5.1779316929133854
20
-3.8865058267716535
11
5.181040393700787
21
-3.8529575590551182
0
LINE
8
BLACK
6
CONTINUOUS
10
5.181040393700787
20
-3.8529575590551182
11
5.185695157480315
21
-3.8195886220472439
0
LINE
8
BLACK
6
CONTINUOUS
10
5.185695157480315
20
-3.8195886220472439
11
5.1918860629921255
21
-3.78647031496063
0
LINE
8
BLACK
6
CONTINUOUS
10
5.1918860629921255
20
-3.78647031496063
11
5.1995998425196852
21
-3.7536732283464564
0
LINE
8
BLACK
6
CONTINUOUS
10
5.1995998425196852
20
-3.7536732283464564
11
5.2088201181102365
21
-3.7212674015748028
0
LINE
8
BLACK
6
CONTINUOUS
10
5.2088201181102365
20
-3.7212674015748028
11
5.2195271259842517
21
-3.6893219685039371
0
LINE
8
BLACK
6
CONTINUOUS
10
5.2195271259842517
20
-3.6893219685039371
11
5.2316981102362208
21
-3.6579050787401575
0
LINE
8
BLACK
6
CONTINUOUS
10
5.2316981102362208
20
-3.6579050787401575
11
5.2453070078740156
21
-3.6270838582677163
0
LINE
8
BLACK
6
CONTINUOUS
10
5.2453070078740156
20
-3.6270838582677163
11
5.2603248425196849
21
-3.5969240157480313
0
LINE
8
BLACK
6
CONTINUOUS
10
5.2603248425196849
20
-3.5969240157480313
11
5.2767194881889763
21
-3.5674899212598423
0
LINE
8
BLACK
6
CONTINUOUS
10
5.2767194881889763
20
-3.5674899212598423
11
5.2944560629921256
21
-3.538844409448819
0
LINE
8
BLACK
6
CONTINUOUS
10
5.2944560629921256
20
-3.538844409448819
11
5.3134966535433072
21
-3.5110485826771654
0
LINE
8
BLACK
6
CONTINUOUS
10
5.3134966535433072
20
-3.5110485826771654
11
5.3338005905511814
21
-3.4841617716535431
0
LINE
8
BLACK
6
CONTINUOUS
10
5.3338005905511814
20
-3.4841617716535431
11
5.3553246456692909
21
-3.4582413779527559
0
LINE
8
BLACK
6
CONTINUOUS
10
5.3553246456692909
20
-3.4582413779527559
11
5.3780227952755908
21
-3.4333426771653541
0
LINE
8
BLACK
6
CONTINUOUS
10
5.3780227952755908
20
-3.4333426771653541
11
5.4018466141732286
21
-3.4095188582677163
0
LINE
8
BLACK
6
CONTINUOUS
10
5.4018466141732286
20
-3.4095188582677163
11
5.4267453149606295
21
-3.3868207086614173
0
LINE
8
BLACK
6
CONTINUOUS
10
5.4267453149606295
20
-3.3868207086614173
11
5.4526657086614172
21
-3.3652966535433069
0
LINE
8
BLACK
6
CONTINUOUS
10
5.4526657086614172
20
-3.3652966535433069
11
5.479552519685039
21
-3.3449927165354332
0
LINE
8
BLACK
6
CONTINUOUS
10
5.479552519685039
20
-3.3449927165354332
11
5.507348346456693
21
-3.3259521259842519
0
LINE
8
BLACK
6
CONTINUOUS
10
5.507348346456693
20
-3.3259521259842519
11
5.5359938582677168
21
-3.3082155511811022
0
LINE
8
BLACK
6
CONTINUOUS
10
5.5359938582677168
20
-3.3082155511811022
11
5.565427952755905
21
-3.2918209055118108
0
LINE
8
BLACK
6
CONTINUOUS
10
5.565427952755905
20
-3.2918209055118108
11
5.5955877952755904
21
-3.2768030708661415
0
LINE
8
BLACK
6
CONTINUOUS
10
5.5955877952755904
20
-3.2768030708661415
11
5.6264090157480311
21
-3.2631941732283463
0
LINE
8
BLACK
6
CONTINUOUS
10
5.6264090157480311
20
-3.2631941732283463
11
5.6578259055118112
21
-3.2510231889763781
0
LINE
8
BLACK
6
CONTINUOUS
10
5.6578259055118112
20
-3.2510231889763781
11
5.6897713385826769
21
-3.240316181102362
0
LINE
8
BLACK
6
CONTINUOUS
10
5.6897713385826769
20
-3.240316181102362
11
5.7221771653543305
21
-3.2310959055118111
0
LINE
8
BLACK
6
CONTINUOUS
10
5.7221771653543305
20
-3.2310959055118111
11
5.7549742519685037
21
-3.2233821259842519
0
LINE
8
BLACK
6
CONTINUOUS
10
5.7549742519685037
20
-3.2233821259842519
11
5.7880925590551175
21
-3.2171912204724409
0
LINE
8
BLACK
6
CONTINUOUS
10
5.7880925590551175
20
-3.2171912204724409
11
5.8214614960629918
21
-3.2125364566929133
0
LINE
8
BLACK
6
CONTINUOUS
10
5.8214614960629918
20
-3.2125364566929133
11
5.8550097637795275
21
-3.2094277559055118
0
LINE
8
BLACK
6
CONTINUOUS
10
5.8550097637795275
20
-3.2094277559055118
11
5.8886658267716534
21
-3.2078717322834644
0
LINE
8
BLACK
6
CONTINUOUS
10
5.8886658267716534
20
-3.2078717322834644
11
5.9223577952755901
21
-3.2078717322834644
0
LINE
8
BLACK
6
CONTINUOUS
10
5.9223577952755901
20
-3.2078717322834644
11
5.956013858267716
21
-3.2094277559055118
0
LINE
8
BLACK
6
CONTINUOUS
10
5.1781496062992121
20
-3.9538128740157479
11
5.1797018503937009
21
-3.9873870472440944
0
LINE
8
BLACK
6
CONTINUOUS
10
5.1797018503937009
20
-3.9873870472440944
11
5.1828029921259837
21
-4.0208537007874012
0
LINE
8
BLACK
6
CONTINUOUS
10
5.1828029921259837
20
-4.0208537007874012
11
5.1874464173228345
21
-4.0541414566929133
0
LINE
8
BLACK
6
CONTINUOUS
10
5.1874464173228345
20
-4.0541414566929133
11
5.1936222440944881
21
-4.087179212598425
0
LINE
8
BLACK
6
CONTINUOUS
10
5.1936222440944881
20
-4.087179212598425
11
5.2013172834645669
21
-4.1198964960629922
0
LINE
8
BLACK
6
CONTINUOUS
10
5.2013172834645669
20
-4.1198964960629922
11
5.2105151181102363
21
-4.1522234645669291
0
LINE
8
BLACK
6
CONTINUOUS
10
5.2105151181102363
20
-4.1522234645669291
11
5.2211961023622049
21
-4.184091181102362
0
LINE
8
BLACK
6
CONTINUOUS
10
5.2211961023622049
20
-4.184091181102362
11
5.2333374409448821
21
-4.2154316141732284
0
LINE
8
BLACK
6
CONTINUOUS
10
5.2333374409448821
20
-4.2154316141732284
11
5.2469132283464566
21
-4.2461778740157481
0
LINE
8
BLACK
6
CONTINUOUS
10
5.2469132283464566
20
-4.2461778740157481
11
5.261894527559055
21
-4.2762643307086616
0
LINE
8
BLACK
6
CONTINUOUS
10
5.261894527559055
20
-4.2762643307086616
11
5.2782492913385823
21
-4.3056268110236218
0
LINE
8
BLACK
6
CONTINUOUS
10
5.2782492913385823
20
-4.3056268110236218
11
5.2959427165354329
21
-4.3342026377952756
0
LINE
8
BLACK
6
CONTINUOUS
10
5.2959427165354329
20
-4.3342026377952756
11
5.3149369685039369
21
-4.361930826771653
0
LINE
8
BLACK
6
CONTINUOUS
10
5.3149369685039369
20
-4.361930826771653
11
5.3351915354330703
21
-4.3887522047244092
0
LINE
8
BLACK
6
CONTINUOUS
10
5.3351915354330703
20
-4.3887522047244092
11
5.3566631889763778
21
-4.4146095669291334
0
LINE
8
BLACK
6
CONTINUOUS
10
5.3566631889763778
20
-4.4146095669291334
11
5.3793061417322834
21
-4.4394476771653544
0
LINE
8
BLACK
6
CONTINUOUS
10
5.3793061417322834
20
-4.4394476771653544
11
5.403072007874016
21
-4.4632135433070861
0
LINE
8
BLACK
6
CONTINUOUS
10
5.403072007874016
20
-4.4632135433070861
11
5.427910118110236
21
-4.4858564960629916
0
LINE
8
BLACK
6
CONTINUOUS
10
5.427910118110236
20
-4.4858564960629916
11
5.4537674803149603
21
-4.5073281496062991
0
LINE
8
BLACK
6
CONTINUOUS
10
5.4537674803149603
20
-4.5073281496062991
11
5.4805888582677165
21
-4.5275827165354325
0
LINE
8
BLACK
6
CONTINUOUS
10
5.4805888582677165
20
-4.5275827165354325
11
5.5083170472440948
21
-4.5465769685039366
0
LINE
8
BLACK
6
CONTINUOUS
10
5.5083170472440948
20
-4.5465769685039366
11
5.5368928740157477
21
-4.5642703937007871
0
LINE
8
BLACK
6
CONTINUOUS
10
5.5368928740157477
20
-4.5642703937007871
11
5.5662553543307087
21
-4.5806251574803145
0
LINE
8
BLACK
6
CONTINUOUS
10
5.5662553543307087
20
-4.5806251574803145
11
5.5963418110236223
21
-4.5956064566929129
0
LINE
8
BLACK
6
CONTINUOUS
10
5.5963418110236223
20
-4.5956064566929129
11
5.6270880708661419
21
-4.6091822440944883
0
LINE
8
BLACK
6
CONTINUOUS
10
5.6270880708661419
20
-4.6091822440944883
11
5.6584285039370075
21
-4.6213235826771655
0
LINE
8
BLACK
6
CONTINUOUS
10
5.6584285039370075
20
-4.6213235826771655
11
5.6902962204724412
21
-4.6320045669291341
0
LINE
8
BLACK
6
CONTINUOUS
10
5.6902962204724412
20
-4.6320045669291341
11
5.7226231889763781
21
-4.6412024015748035
0
LINE
8
BLACK
6
CONTINUOUS
10
5.7226231889763781
20
-4.6412024015748035
11
5.7553404724409445
21
-4.6488974409448822
0
LINE
8
BLACK
6
CONTINUOUS
10
5.7553404724409445
20
-4.6488974409448822
11
5.7883782283464562
21
-4.655073267716535
0
LINE
8
BLACK
6
CONTINUOUS
10
5.7883782283464562
20
-4.655073267716535
11
5.8216659842519682
21
-4.6597166929133857
0
LINE
8
BLACK
6
CONTINUOUS
10
5.8216659842519682
20
-4.6597166929133857
11
5.8551326377952755
21
-4.6628178346456695
0
LINE
8
BLACK
6
CONTINUOUS
10
5.8551326377952755
20
-4.6628178346456695
11
5.8887068110236216
21
-4.6643700787401574
0
LINE
8
BLACK
6
CONTINUOUS
10
5.8887068110236216
20
-4.6643700787401574
11
5.922316811023622
21
-4.6643700787401574
0
LINE
8
BLACK
6
CONTINUOUS
10
5.922316811023622
20
-4.6643700787401574
11
5.9558909842519681
21
-4.6628178346456695
0
LINE
8
BLACK
6
CONTINUOUS
10
5.9558909842519681
20
-4.6628178346456695
11
5.9893576377952753
21
-4.6597166929133857
0
LINE
8
BLACK
6
CONTINUOUS
10
5.9893576377952753
20
-4.6597166929133857
11
6.0226453937007873
21
-4.655073267716535
0
LINE
8
BLACK
6
CONTINUOUS
10
6.0226453937007873
20
-4.655073267716535
11
6.0556831496062991
21
-4.6488974409448822
0
LINE
8
BLACK
6
CONTINUOUS
10
6.0556831496062991
20
-4.6488974409448822
11
6.0884004330708663
21
-4.6412024015748035
0
LINE
8
BLACK
6
CONTINUOUS
10
6.0884004330708663
20
-4.6412024015748035
11
6.1207274015748032
21
-4.6320045669291341
0
LINE
8
BLACK
6
CONTINUOUS
10
6.1207274015748032
20
-4.6320045669291341
11
6.1525951181102361
21
-4.6213235826771655
0
LINE
8
BLACK
6
CONTINUOUS
10
6.1525951181102361
20
-4.6213235826771655
11
6.1839355511811025
21
-4.6091822440944883
0
LINE
8
BLACK
6
CONTINUOUS
10
6.1839355511811025
20
-4.6091822440944883
11
6.2146818110236222
21
-4.5956064566929129
0
LINE
8
BLACK
6
CONTINUOUS
10
6.2146818110236222
20
-4.5956064566929129
11
6.2447682677165357
21
-4.5806251574803145
0
LINE
8
BLACK
6
CONTINUOUS
10
6.2447682677165357
20
-4.5806251574803145
11
6.2741307480314958
21
-4.5642703937007871
0
LINE
8
BLACK
6
CONTINUOUS
10
6.2741307480314958
20
-4.5642703937007871
11
6.3027065748031497
21
-4.5465769685039366
0
LINE
8
BLACK
6
CONTINUOUS
10
6.3027065748031497
20
-4.5465769685039366
11
6.3304347637795271
21
-4.5275827165354325
0
LINE
8
BLACK
6
CONTINUOUS
10
6.3304347637795271
20
-4.5275827165354325
11
6.3572561417322833
21
-4.5073281496062991
0
LINE
8
BLACK
6
CONTINUOUS
10
6.3572561417322833
20
-4.5073281496062991
11
6.3831135039370075
21
-4.4858564960629916
0
LINE
8
BLACK
6
CONTINUOUS
10
6.3831135039370075
20
-4.4858564960629916
11
6.4079516141732284
21
-4.4632135433070861
0
LINE
8
BLACK
6
CONTINUOUS
10
6.4079516141732284
20
-4.4632135433070861
11
6.4317174803149602
21
-4.4394476771653544
0
LINE
8
BLACK
6
CONTINUOUS
10
6.4317174803149602
20
-4.4394476771653544
11
6.4543604330708657
21
-4.4146095669291334
0
LINE
8
BLACK
6
CONTINUOUS
10
6.4543604330708657
20
-4.4146095669291334
11
6.4758320866141732
21
-4.3887522047244092
0
LINE
8
BLACK
6
CONTINUOUS
10
6.4758320866141732
20
-4.3887522047244092
11
6.4960866535433066
21
-4.361930826771653
0
LINE
8
BLACK
6
CONTINUOUS
10
6.4960866535433066
20
-4.361930826771653
11
6.5150809055118106
21
-4.3342026377952756
0
LINE
8
BLACK
6
CONTINUOUS
10
6.5150809055118106
20
-4.3342026377952756
11
6.5327743307086612
21
-4.3056268110236218
0
LINE
8
BLACK
6
CONTINUOUS
10
6.5327743307086612
20
-4.3056268110236218
11
6.5491290944881886
21
-4.2762643307086616
0
LINE
8
BLACK
6
CONTINUOUS
10
6.5491290944881886
20
-4.2762643307086616
11
6.564110393700787
21
-4.2461778740157481
0
LINE
8
BLACK
6
CONTINUOUS
10
6.564110393700787
20
-4.2461778740157481
11
6.5776861811023624
21
-4.2154316141732284
0
LINE
8
BLACK
6
CONTINUOUS
10
6.5776861811023624
20
-4.2154316141732284
11
6.5898275196850395
21
-4.184091181102362
0
LINE
8
BLACK
6
CONTINUOUS
10
6.5898275196850395
20
-4.184091181102362
11
6.6005085039370082
21
-4.1522234645669291
0
LINE
8
BLACK
6
CONTINUOUS
10
6.6005085039370082
20
-4.1522234645669291
11
6.6097063385826766
21
-4.1198964960629922
0
LINE
8
BLACK
6
CONTINUOUS
10
6.6097063385826766
20
-4.1198964960629922
11
6.6174013779527554
21
-4.087179212598425
0
LINE
8
BLACK
6
CONTINUOUS
10
6.6174013779527554
20
-4.087179212598425
11
6.623577204724409
21
-4.0541414566929133
0
LINE
8
BLACK
6
CONTINUOUS
10
6.623577204724409
20
-4.0541414566929133
11
6.6282206299212598
21
-4.0208537007874012
0
LINE
8
BLACK
6
CONTINUOUS
10
6.6282206299212598
20
-4.0208537007874012
11
6.6313217716535435
21
-3.9873870472440944
0
LINE
8
BLACK
6
CONTINUOUS
10
6.6313217716535435
20
-3.9873870472440944
11
6.6328740157480315
21
-3.9538128740157479
0
LINE
8
BLACK
6
CONTINUOUS
10
6.6328740157480315
20
-3.9538128740157479
11
6.6328740157480315
21
-3.920202874015748
0
LINE
8
BLACK
6
CONTINUOUS
10
6.6328740157480315
20
-3.920202874015748
11
6.6313217716535435
21
-3.8866287007874014
0
LINE
8
BLACK
6
CONTINUOUS
10
6.6313217716535435
20
-3.8866287007874014
11
6.6282206299212598
21
-3.8531620472440946
0
LINE
8
BLACK
6
CONTINUOUS
10
6.6282206299212598
20
-3.8531620472440946
11
6.623577204724409
21
-3.8198742913385826
0
LINE
8
BLACK
6
CONTINUOUS
10
6.623577204724409
20
-3.8198742913385826
11
6.6174013779527554
21
-3.7868365354330709
0
LINE
8
BLACK
6
CONTINUOUS
10
6.6174013779527554
20
-3.7868365354330709
11
6.6097063385826766
21
-3.754119251968504
0
LINE
8
BLACK
6
CONTINUOUS
10
6.6097063385826766
20
-3.754119251968504
11
6.6005085039370082
21
-3.7217922834645667
0
LINE
8
BLACK
6
CONTINUOUS
10
6.6005085039370082
20
-3.7217922834645667
11
6.5898275196850395
21
-3.6899245669291338
0
LINE
8
BLACK
6
CONTINUOUS
10
6.5898275196850395
20
-3.6899245669291338
11
6.5776861811023624
21
-3.6585841338582674
0
LINE
8
BLACK
6
CONTINUOUS
10
6.5776861811023624
20
-3.6585841338582674
11
6.564110393700787
21
-3.6278378740157478
0
LINE
8
BLACK
6
CONTINUOUS
10
6.564110393700787
20
-3.6278378740157478
11
6.5491290944881886
21
-3.5977514173228347
0
LINE
8
BLACK
6
CONTINUOUS
10
6.5491290944881886
20
-3.5977514173228347
11
6.5327743307086612
21
-3.5683889370078741
0
LINE
8
BLACK
6
CONTINUOUS
10
6.5327743307086612
20
-3.5683889370078741
11
6.5150809055118106
21
-3.5398131102362203
0
LINE
8
BLACK
6
CONTINUOUS
10
6.5150809055118106
20
-3.5398131102362203
11
6.4960866535433066
21
-3.5120849212598424
0
LINE
8
BLACK
6
CONTINUOUS
10
6.4960866535433066
20
-3.5120849212598424
11
6.4758320866141732
21
-3.4852635433070867
0
LINE
8
BLACK
6
CONTINUOUS
10
6.4758320866141732
20
-3.4852635433070867
11
6.4543604330708657
21
-3.459406181102362
0
LINE
8
BLACK
6
CONTINUOUS
10
6.4543604330708657
20
-3.459406181102362
11
6.4317174803149602
21
-3.4345680708661415
0
LINE
8
BLACK
6
CONTINUOUS
10
6.4317174803149602
20
-3.4345680708661415
11
6.4079516141732284
21
-3.4108022047244093
0
LINE
8
BLACK
6
CONTINUOUS
10
6.4079516141732284
20
-3.4108022047244093
11
6.3831135039370075
21
-3.3881592519685038
0
LINE
8
BLACK
6
CONTINUOUS
10
6.3831135039370075
20
-3.3881592519685038
11
6.3572561417322833
21
-3.3666875984251967
0
LINE
8
BLACK
6
CONTINUOUS
10
6.3572561417322833
20
-3.3666875984251967
11
6.3304347637795271
21
-3.3464330314960629
0
LINE
8
BLACK
6
CONTINUOUS
10
6.3304347637795271
20
-3.3464330314960629
11
6.3027065748031497
21
-3.3274387795275588
0
LINE
8
BLACK
6
CONTINUOUS
10
6.3027065748031497
20
-3.3274387795275588
11
6.2741307480314958
21
-3.3097453543307087
0
LINE
8
BLACK
6
CONTINUOUS
10
6.2741307480314958
20
-3.3097453543307087
11
6.2447682677165357
21
-3.2933905905511809
0
LINE
8
BLACK
6
CONTINUOUS
10
6.2447682677165357
20
-3.2933905905511809
11
6.2146818110236222
21
-3.2784092913385825
0
LINE
8
BLACK
6
CONTINUOUS
10
6.2146818110236222
20
-3.2784092913385825
11
6.1839355511811025
21
-3.264833503937008
0
LINE
8
BLACK
6
CONTINUOUS
10
6.1839355511811025
20
-3.264833503937008
11
6.1525951181102361
21
-3.2526921653543308
0
LINE
8
BLACK
6
CONTINUOUS
10
6.1525951181102361
20
-3.2526921653543308
11
6.1207274015748032
21
-3.2420111811023622
0
LINE
8
BLACK
6
CONTINUOUS
10
6.1207274015748032
20
-3.2420111811023622
11
6.0884004330708663
21
-3.2328133464566928
0
LINE
8
BLACK
6
CONTINUOUS
10
6.0884004330708663
20
-3.2328133464566928
11
6.0556831496062991
21
-3.2251183070866141
0
LINE
8
BLACK
6
CONTINUOUS
10
6.0556831496062991
20
-3.2251183070866141
11
6.0226453937007873
21
-3.2189424803149604
0
LINE
8
BLACK
6
CONTINUOUS
10
6.0226453937007873
20
-3.2189424803149604
11
5.9893576377952753
21
-3.2142990551181101
0
LINE
8
BLACK
6
CONTINUOUS
10
5.9893576377952753
20
-3.2142990551181101
11
5.9558909842519681
21
-3.2111979133858268
0
LINE
8
BLACK
6
CONTINUOUS
10
5.9558909842519681
20
-3.2111979133858268
11
5.922316811023622
21
-3.2096456692913384
0
LINE
8
BLACK
6
CONTINUOUS
10
5.922316811023622
20
-3.2096456692913384
11
5.8887068110236216
21
-3.2096456692913384
0
LINE
8
BLACK
6
CONTINUOUS
10
5.8887068110236216
20
-3.2096456692913384
11
5.8551326377952755
21
-3.2111979133858268
0
LINE
8
BLACK
6
CONTINUOUS
10
5.8551326377952755
20
-3.2111979133858268
11
5.8216659842519682
21
-3.2142990551181101
0
LINE
8
BLACK
6
CONTINUOUS
10
5.8216659842519682
20
-3.2142990551181101
11
5.7883782283464562
21
-3.2189424803149604
0
LINE
8
BLACK
6
CONTINUOUS
10
5.7883782283464562
20
-3.2189424803149604
11
5.7553404724409445
21
-3.2251183070866141
0
LINE
8
BLACK
6
CONTINUOUS
10
5.7553404724409445
20
-3.2251183070866141
11
5.7226231889763781
21
-3.2328133464566928
0
LINE
8
BLACK
6
CONTINUOUS
10
5.7226231889763781
20
-3.2328133464566928
11
5.6902962204724412
21
-3.2420111811023622
0
LINE
8
BLACK
6
CONTINUOUS
10
5.6902962204724412
20
-3.2420111811023622
11
5.6584285039370075
21
-3.2526921653543308
0
LINE
8
BLACK
6
CONTINUOUS
10
5.6584285039370075
20
-3.2526921653543308
11
5.6270880708661419
21
-3.264833503937008
0
LINE
8
BLACK
6
CONTINUOUS
10
5.6270880708661419
20
-3.264833503937008
11
5.5963418110236223
21
-3.2784092913385825
0
LINE
8
BLACK
6
CONTINUOUS
10
5.5963418110236223
20
-3.2784092913385825
11
5.5662553543307087
21
-3.2933905905511809
0
LINE
8
BLACK
6
CONTINUOUS
10
5.5662553543307087
20
-3.2933905905511809
11
5.5368928740157477
21
-3.3097453543307087
0
LINE
8
BLACK
6
CONTINUOUS
10
5.5368928740157477
20
-3.3097453543307087
11
5.5083170472440948
21
-3.3274387795275588
0
LINE
8
BLACK
6
CONTINUOUS
10
5.5083170472440948
20
-3.3274387795275588
11
5.4805888582677165
21
-3.3464330314960629
0
LINE
8
BLACK
6
CONTINUOUS
10
5.4805888582677165
20
-3.3464330314960629
11
5.4537674803149603
21
-3.3666875984251967
0
LINE
8
BLACK
6
CONTINUOUS
10
5.4537674803149603
20
-3.3666875984251967
11
5.427910118110236
21
-3.3881592519685038
0
LINE
8
BLACK
6
CONTINUOUS
10
5.427910118110236
20
-3.3881592519685038
11
5.403072007874016
21
-3.4108022047244093
0
LINE
8
BLACK
6
CONTINUOUS
10
5.403072007874016
20
-3.4108022047244093
11
5.3793061417322834
21
-3.4345680708661415
0
LINE
8
BLACK
6
CONTINUOUS
10
5.3793061417322834
20
-3.4345680708661415
11
5.3566631889763778
21
-3.459406181102362
0
LINE
8
BLACK
6
CONTINUOUS
10
5.3566631889763778
20
-3.459406181102362
11
5.3351915354330703
21
-3.4852635433070867
0
LINE
8
BLACK
6
CONTINUOUS
10
5.3351915354330703
20
-3.4852635433070867
11
5.3149369685039369
21
-3.5120849212598424
0
LINE
8
BLACK
6
CONTINUOUS
10
5.3149369685039369
20
-3.5120849212598424
11
5.2959427165354329
21
-3.5398131102362203
0
LINE
8
BLACK
6
CONTINUOUS
10
5.2959427165354329
20
-3.5398131102362203
11
5.2782492913385823
21
-3.5683889370078741
0
LINE
8
BLACK
6
CONTINUOUS
10
5.2782492913385823
20
-3.5683889370078741
11
5.261894527559055
21
-3.5977514173228347
0
LINE
8
BLACK
6
CONTINUOUS
10
5.261894527559055
20
-3.5977514173228347
11
5.2469132283464566
21
-3.6278378740157478
0
LINE
8
BLACK
6
CONTINUOUS
10
5.2469132283464566
20
-3.6278378740157478
11
5.2333374409448821
21
-3.6585841338582674
0
LINE
8
BLACK
6
CONTINUOUS
10
5.2333374409448821
20
-3.6585841338582674
11
5.2211961023622049
21
-3.6899245669291338
0
LINE
8
BLACK
6
CONTINUOUS
10
5.2211961023622049
20
-3.6899245669291338
11
5.2105151181102363
21
-3.7217922834645667
0
LINE
8
BLACK
6
CONTINUOUS
10
5.2105151181102363
20
-3.7217922834645667
11
5.2013172834645669
21
-3.754119251968504
0
LINE
8
BLACK
6
CONTINUOUS
10
5.2013172834645669
20
-3.754119251968504
11
5.1936222440944881
21
-3.7868365354330709
0
LINE
8
BLACK
6
CONTINUOUS
10
5.1936222440944881
20
-3.7868365354330709
11
5.1874464173228345
21
-3.8198742913385826
0
LINE
8
BLACK
6
CONTINUOUS
10
5.1874464173228345
20
-3.8198742913385826
11
5.1828029921259837
21
-3.8531620472440946
0
LINE
8
BLACK
6
CONTINUOUS
10
5.1828029921259837
20
-3.8531620472440946
11
5.1797018503937009
21
-3.8866287007874014
0
LINE
8
BLACK
6
CONTINUOUS
10
5.1797018503937009
20
-3.8866287007874014
11
5.1781496062992121
21
-3.920202874015748
0
LINE
8
BLACK
6
CONTINUOUS
10
5.1781496062992121
20
-3.920202874015748
11
5.1781496062992121
21
-3.9538128740157479
0
LINE
8
BLACK
6
CONTINUOUS
10
5.5213713779527556
20
-2.9720755118110236
11
5.5260482677165355
21
-2.9746631102362202
0
LINE
8
BLACK
6
CONTINUOUS
10
5.5260482677165355
20
-2.9746631102362202
11
5.5299052362204719
21
-2.9783634645669292
0
LINE
8
BLACK
6
CONTINUOUS
10
5.5299052362204719
20
-2.9783634645669292
11
5.5326843700787398
21
-2.9829291338582675
0
LINE
8
BLACK
6
CONTINUOUS
10
5.5326843700787398
20
-2.9829291338582675
11
5.5341998425196852
21
-2.9880547637795276
0
LINE
8
BLACK
6
CONTINUOUS
10
5.5341998425196852
20
-2.9880547637795276
11
5.5343503149606299
21
-2.9933975984251968
0
LINE
8
BLACK
6
CONTINUOUS
10
5.5343503149606299
20
-2.9933975984251968
11
5.5331257086614176
21
-2.998600433070866
0
LINE
8
BLACK
6
CONTINUOUS
10
5.5331257086614176
20
-2.998600433070866
11
5.5306079133858264
21
-3.0033152362204723
0
LINE
8
BLACK
6
CONTINUOUS
10
5.5306079133858264
20
-3.0033152362204723
11
5.5269653149606297
21
-3.0072268110236218
0
LINE
8
BLACK
6
CONTINUOUS
10
5.5269653149606297
20
-3.0072268110236218
11
5.5224414566929134
21
-3.0100735039370079
0
LINE
8
BLACK
6
CONTINUOUS
10
5.5224414566929134
20
-3.0100735039370079
11
5.5224209842519683
21
-3.0100759055118109
0
LINE
8
BLACK
6
CONTINUOUS
10
5.5224209842519683
20
-3.0100759055118109
11
5.52240531496063
21
-3.0100892913385828
0
LINE
8
BLACK
6
CONTINUOUS
10
5.52240531496063
20
-3.0100892913385828
11
5.52240531496063
21
-3.0100893307086611
0
LINE
8
BLACK
6
CONTINUOUS
10
5.52240531496063
20
-3.0100893307086611
11
5.5047785826771651
21
-3.0173741338582678
0
LINE
8
BLACK
6
CONTINUOUS
10
5.5047785826771651
20
-3.0173741338582678
11
5.4701049606299215
21
-3.0332744094488189
0
LINE
8
BLACK
6
CONTINUOUS
10
5.4701049606299215
20
-3.0332744094488189
11
5.436060866141732
21
-3.0504814173228345
0
LINE
8
BLACK
6
CONTINUOUS
10
5.436060866141732
20
-3.0504814173228345
11
5.4026955905511809
21
-3.0689703543307085
0
LINE
8
BLACK
6
CONTINUOUS
10
5.4026955905511809
20
-3.0689703543307085
11
5.3700573622047241
21
-3.0887143700787401
0
LINE
8
BLACK
6
CONTINUOUS
10
5.3700573622047241
20
-3.0887143700787401
11
5.3381933858267718
21
-3.1096849999999998
0
LINE
8
BLACK
6
CONTINUOUS
10
5.3381933858267718
20
-3.1096849999999998
11
5.3071497244094488
21
-3.131851929133858
0
LINE
8
BLACK
6
CONTINUOUS
10
5.3071497244094488
20
-3.131851929133858
11
5.2769712598425196
21
-3.1551830314960627
0
LINE
8
BLACK
6
CONTINUOUS
10
5.2769712598425196
20
-3.1551830314960627
11
5.247701614173228
21
-3.1796446456692911
0
LINE
8
BLACK
6
CONTINUOUS
10
5.247701614173228
20
-3.1796446456692911
11
5.2193831496062995
21
-3.2052013385826772
0
LINE
8
BLACK
6
CONTINUOUS
10
5.2193831496062995
20
-3.2052013385826772
11
5.1920568110236216
21
-3.231816220472441
0
LINE
8
BLACK
6
CONTINUOUS
10
5.1920568110236216
20
-3.231816220472441
11
5.1657620472440939
21
-3.2594507874015748
0
LINE
8
BLACK
6
CONTINUOUS
10
5.1657620472440939
20
-3.2594507874015748
11
5.1405369685039366
21
-3.2880650393700788
0
LINE
8
BLACK
6
CONTINUOUS
10
5.1405369685039366
20
-3.2880650393700788
11
5.1164179921259842
21
-3.3176176377952755
0
LINE
8
BLACK
6
CONTINUOUS
10
5.1164179921259842
20
-3.3176176377952755
11
5.0934400000000002
21
-3.3480658267716534
0
LINE
8
BLACK
6
CONTINUOUS
10
5.0934400000000002
20
-3.3480658267716534
11
5.0716362598425198
21
-3.3793656299212596
0
LINE
8
BLACK
6
CONTINUOUS
10
5.0716362598425198
20
-3.3793656299212596
11
5.0510382283464565
21
-3.4114717322834647
0
LINE
8
BLACK
6
CONTINUOUS
10
5.0510382283464565
20
-3.4114717322834647
11
5.0316757480314962
21
-3.4443377559055119
0
LINE
8
BLACK
6
CONTINUOUS
10
5.0316757480314962
20
-3.4443377559055119
11
5.0135767716535433
21
-3.4779161417322833
0
LINE
8
BLACK
6
CONTINUOUS
10
5.0135767716535433
20
-3.4779161417322833
11
4.9967675196850392
21
-3.5121583858267718
0
LINE
8
BLACK
6
CONTINUOUS
10
4.9967675196850392
20
-3.5121583858267718
11
4.9812722440944883
21
-3.5470149212598425
0
LINE
8
BLACK
6
CONTINUOUS
10
4.9812722440944883
20
-3.5470149212598425
11
4.9671133858267718
21
-3.5824353543307086
0
LINE
8
BLACK
6
CONTINUOUS
10
4.9671133858267718
20
-3.5824353543307086
11
4.9543113779527559
21
-3.6183684645669292
0
LINE
8
BLACK
6
CONTINUOUS
10
4.9543113779527559
20
-3.6183684645669292
11
4.9428848031496058
21
-3.6547623622047243
0
LINE
8
BLACK
6
CONTINUOUS
10
4.9428848031496058
20
-3.6547623622047243
11
4.9328501181102364
21
-3.6915643307086614
0
LINE
8
BLACK
6
CONTINUOUS
10
4.9328501181102364
20
-3.6915643307086614
11
4.9242218503937005
21
-3.7287212204724409
0
LINE
8
BLACK
6
CONTINUOUS
10
4.9242218503937005
20
-3.7287212204724409
11
4.9170124803149609
21
-3.7661792913385828
0
LINE
8
BLACK
6
CONTINUOUS
10
4.9170124803149609
20
-3.7661792913385828
11
4.9112324409448815
21
-3.8038843700787401
0
LINE
8
BLACK
6
CONTINUOUS
10
4.9112324409448815
20
-3.8038843700787401
11
4.9068900787401573
21
-3.841781929133858
0
LINE
8
BLACK
6
CONTINUOUS
10
4.9068900787401573
20
-3.841781929133858
11
4.9039916929133858
21
-3.8798171653543307
0
LINE
8
BLACK
6
CONTINUOUS
10
4.9039916929133858
20
-3.8798171653543307
11
4.9025414566929131
21
-3.9179351181102362
0
LINE
8
BLACK
6
CONTINUOUS
10
4.9025414566929131
20
-3.9179351181102362
11
4.9025418897637794
21
-3.9369551574803148
0
LINE
8
BLACK
6
CONTINUOUS
10
4.9025418897637794
20
-3.9369551574803148
11
4.9025590551181102
21
-3.9370078740157481
0
LINE
8
BLACK
6
CONTINUOUS
10
4.9025590551181102
20
-3.9370078740157481
11
4.9018546062992128
21
-3.9423581496062989
0
LINE
8
BLACK
6
CONTINUOUS
10
4.9018546062992128
20
-3.9423581496062989
11
4.8997892125984253
21
-3.9473437007874015
0
LINE
8
BLACK
6
CONTINUOUS
10
4.8997892125984253
20
-3.9473437007874015
11
4.8965037007874015
21
-3.9516247244094487
0
LINE
8
BLACK
6
CONTINUOUS
10
4.8965037007874015
20
-3.9516247244094487
11
4.8922220472440943
21
-3.9549093700787399
0
LINE
8
BLACK
6
CONTINUOUS
10
4.8922220472440943
20
-3.9549093700787399
11
4.8872360629921259
21
-3.9569737401574803
0
LINE
8
BLACK
6
CONTINUOUS
10
4.8872360629921259
20
-3.9569737401574803
11
4.8818856692913384
21
-3.9576771653543306
0
LINE
8
BLACK
6
CONTINUOUS
10
4.8818856692913384
20
-3.9576771653543306
11
4.8765355511811022
21
-3.9569716535433068
0
LINE
8
BLACK
6
CONTINUOUS
10
4.8765355511811022
20
-3.9569716535433068
11
4.8715503937007876
21
-3.9549052755905509
0
LINE
8
BLACK
6
CONTINUOUS
10
4.8715503937007876
20
-3.9549052755905509
11
4.8672700393700783
21
-3.9516189370078738
0
LINE
8
BLACK
6
CONTINUOUS
10
4.8672700393700783
20
-3.9516189370078738
11
4.8639862204724409
21
-3.9473366141732282
0
LINE
8
BLACK
6
CONTINUOUS
10
4.8639862204724409
20
-3.9473366141732282
11
4.8619228346456689
21
-3.9423502362204723
0
LINE
8
BLACK
6
CONTINUOUS
10
4.8619228346456689
20
-3.9423502362204723
11
4.8612222440944883
21
-3.9370133858267717
0
LINE
8
BLACK
6
CONTINUOUS
10
4.8612222440944883
20
-3.9370133858267717
11
4.8612204724409445
21
-3.9370078740157481
0
LINE
8
BLACK
6
CONTINUOUS
10
4.8612204724409445
20
-3.9370078740157481
11
4.8612205905511807
21
-3.9370007086614174
0
LINE
8
BLACK
6
CONTINUOUS
10
4.8612205905511807
20
-3.9370007086614174
11
4.8612204724409445
21
-3.9369996850393698
0
LINE
8
BLACK
6
CONTINUOUS
10
4.8612204724409445
20
-3.9369996850393698
11
4.8612206299212595
21
-3.9369991732283465
0
LINE
8
BLACK
6
CONTINUOUS
10
4.8612206299212595
20
-3.9369991732283465
11
4.8619742519685039
21
-3.8973371259842517
0
LINE
8
BLACK
6
CONTINUOUS
10
4.8619742519685039
20
-3.8973371259842517
11
4.8642345275590548
21
-3.8577236220472439
0
LINE
8
BLACK
6
CONTINUOUS
10
4.8642345275590548
20
-3.8577236220472439
11
4.8679979921259839
21
-3.8182246062992125
0
LINE
8
BLACK
6
CONTINUOUS
10
4.8679979921259839
20
-3.8182246062992125
11
4.8732592519685038
21
-3.7788970472440946
0
LINE
8
BLACK
6
CONTINUOUS
10
4.8732592519685038
20
-3.7788970472440946
11
4.8800106692913383
21
-3.7397977559055118
0
LINE
8
BLACK
6
CONTINUOUS
10
4.8800106692913383
20
-3.7397977559055118
11
4.8882425590551177
21
-3.7009831496062993
0
LINE
8
BLACK
6
CONTINUOUS
10
4.8882425590551177
20
-3.7009831496062993
11
4.8979429921259845
21
-3.6625092913385826
0
LINE
8
BLACK
6
CONTINUOUS
10
4.8979429921259845
20
-3.6625092913385826
11
4.9090979921259841
21
-3.6244316929133857
0
LINE
8
BLACK
6
CONTINUOUS
10
4.9090979921259841
20
-3.6244316929133857
11
4.9216914173228341
21
-3.58680531496063
0
LINE
8
BLACK
6
CONTINUOUS
10
4.9216914173228341
20
-3.58680531496063
11
4.9357051181102358
21
-3.5496845275590552
0
LINE
8
BLACK
6
CONTINUOUS
10
4.9357051181102358
20
-3.5496845275590552
11
4.9511188582677166
21
-3.5131228740157479
0
LINE
8
BLACK
6
CONTINUOUS
10
4.9511188582677166
20
-3.5131228740157479
11
4.9679103937007874
21
-3.4771731889763777
0
LINE
8
BLACK
6
CONTINUOUS
10
4.9679103937007874
20
-3.4771731889763777
11
4.9860554330708657
21
-3.4418872834645668
0
LINE
8
BLACK
6
CONTINUOUS
10
4.9860554330708657
20
-3.4418872834645668
11
5.0055278740157476
21
-3.4073161811023622
0
LINE
8
BLACK
6
CONTINUOUS
10
5.0055278740157476
20
-3.4073161811023622
11
5.026299527559055
21
-3.3735097244094487
0
LINE
8
BLACK
6
CONTINUOUS
10
5.026299527559055
20
-3.3735097244094487
11
5.0483404330708659
21
-3.3405167716535433
0
LINE
8
BLACK
6
CONTINUOUS
10
5.0483404330708659
20
-3.3405167716535433
11
5.0716187795275589
21
-3.3083849212598424
0
LINE
8
BLACK
6
CONTINUOUS
10
5.0716187795275589
20
-3.3083849212598424
11
5.0961009448818899
21
-3.2771605511811024
0
LINE
8
BLACK
6
CONTINUOUS
10
5.0961009448818899
20
-3.2771605511811024
11
5.1217516141732284
21
-3.2468887795275592
0
LINE
8
BLACK
6
CONTINUOUS
10
5.1217516141732284
20
-3.2468887795275592
11
5.1485337401574798
21
-3.2176132677165352
0
LINE
8
BLACK
6
CONTINUOUS
10
5.1485337401574798
20
-3.2176132677165352
11
5.1764086220472443
21
-3.1893762992125985
0
LINE
8
BLACK
6
CONTINUOUS
10
5.1764086220472443
20
-3.1893762992125985
11
5.2053361023622049
21
-3.1622186220472441
0
LINE
8
BLACK
6
CONTINUOUS
10
5.2053361023622049
20
-3.1622186220472441
11
5.2352743307086609
21
-3.1361794488188974
0
LINE
8
BLACK
6
CONTINUOUS
10
5.2352743307086609
20
-3.1361794488188974
11
5.2661801574803144
21
-3.111296377952756
0
LINE
8
BLACK
6
CONTINUOUS
10
5.2661801574803144
20
-3.111296377952756
11
5.2980089370078742
21
-3.0876053543307087
0
LINE
8
BLACK
6
CONTINUOUS
10
5.2980089370078742
20
-3.0876053543307087
11
5.3307147244094484
21
-3.0651405118110238
0
LINE
8
BLACK
6
CONTINUOUS
10
5.3307147244094484
20
-3.0651405118110238
11
5.3642503149606302
21
-3.0439343307086615
0
LINE
8
BLACK
6
CONTINUOUS
10
5.3642503149606302
20
-3.0439343307086615
11
5.3985672440944876
21
-3.0240174015748029
0
LINE
8
BLACK
6
CONTINUOUS
10
5.3985672440944876
20
-3.0240174015748029
11
5.433616062992126
21
-3.0054185039370078
0
LINE
8
BLACK
6
CONTINUOUS
10
5.433616062992126
20
-3.0054185039370078
11
5.469346062992126
21
-2.9881644488188974
0
LINE
8
BLACK
6
CONTINUOUS
10
5.469346062992126
20
-2.9881644488188974
11
5.5056929527559051
21
-2.9722857480314961
0
LINE
8
BLACK
6
CONTINUOUS
10
5.5056929527559051
20
-2.9722857480314961
11
5.5056952362204727
21
-2.972283779527559
0
LINE
8
BLACK
6
CONTINUOUS
10
5.5056952362204727
20
-2.972283779527559
11
5.5057014960629918
21
-2.9722820078740155
0
LINE
8
BLACK
6
CONTINUOUS
10
5.5057014960629918
20
-2.9722820078740155
11
5.5057057874015749
21
-2.972280157480315
0
LINE
8
BLACK
6
CONTINUOUS
10
5.5057057874015749
20
-2.972280157480315
11
5.5057057874015749
21
-2.9722801968503938
0
LINE
8
BLACK
6
CONTINUOUS
10
5.5057057874015749
20
-2.9722801968503938
11
5.5057089370078742
21
-2.9722799212598425
0
LINE
8
BLACK
6
CONTINUOUS
10
5.5057089370078742
20
-2.9722799212598425
11
5.510842874015748
21
-2.9708446850393702
0
LINE
8
BLACK
6
CONTINUOUS
10
5.510842874015748
20
-2.9708446850393702
11
5.5161873622047244
21
-2.9707736614173226
0
LINE
8
BLACK
6
CONTINUOUS
10
5.5161873622047244
20
-2.9707736614173226
11
5.5213713779527556
21
-2.9720755118110236
0
LINE
8
BLACK
6
CONTINUOUS
10
5.5087088976377956
20
-2.9731375196850394
11
5.5064659448818896
21
-2.9740951574803147
0
LINE
8
BLACK
6
CONTINUOUS
10
5.5064659448818896
20
-2.9740951574803147
11
5.5064659448818896
21
-2.974095118110236
0
LINE
8
BLACK
6
CONTINUOUS
10
5.5064659448818896
20
-2.974095118110236
11
5.506463307086614
21
-2.9740953149606297
0
LINE
8
BLACK
6
CONTINUOUS
10
5.506463307086614
20
-2.9740953149606297
11
5.5064594094488184
21
-2.9740987007874016
0
LINE
8
BLACK
6
CONTINUOUS
10
5.5064594094488184
20
-2.9740987007874016
11
5.4881628740157478
21
-2.9816803149606299
0
LINE
8
BLACK
6
CONTINUOUS
10
5.4881628740157478
20
-2.9816803149606299
11
5.4521729527559053
21
-2.9982242125984251
0
LINE
8
BLACK
6
CONTINUOUS
10
5.4521729527559053
20
-2.9982242125984251
11
5.4168374803149604
21
-3.0161233858267718
0
LINE
8
BLACK
6
CONTINUOUS
10
5.4168374803149604
20
-3.0161233858267718
11
5.3822074409448817
21
-3.0353519291338582
0
LINE
8
BLACK
6
CONTINUOUS
10
5.3822074409448817
20
-3.0353519291338582
11
5.3483328740157479
21
-3.0558821653543307
0
LINE
8
BLACK
6
CONTINUOUS
10
5.3483328740157479
20
-3.0558821653543307
11
5.3152626771653546
21
-3.0776844094488189
0
LINE
8
BLACK
6
CONTINUOUS
10
5.3152626771653546
20
-3.0776844094488189
11
5.2830445669291342
21
-3.1007271653543307
0
LINE
8
BLACK
6
CONTINUOUS
10
5.2830445669291342
20
-3.1007271653543307
11
5.2517250393700783
21
-3.1249772440944881
0
LINE
8
BLACK
6
CONTINUOUS
10
5.2517250393700783
20
-3.1249772440944881
11
5.2213493700787401
21
-3.1503995669291336
0
LINE
8
BLACK
6
CONTINUOUS
10
5.2213493700787401
20
-3.1503995669291336
11
5.1919613779527554
21
-3.1769574409448817
0
LINE
8
BLACK
6
CONTINUOUS
10
5.1919613779527554
20
-3.1769574409448817
11
5.1636034645669291
21
-3.2046125590551182
0
LINE
8
BLACK
6
CONTINUOUS
10
5.1636034645669291
20
-3.2046125590551182
11
5.1363166141732286
21
-3.2333249999999998
0
LINE
8
BLACK
6
CONTINUOUS
10
5.1363166141732286
20
-3.2333249999999998
11
5.1101401574803145
21
-3.2630532677165354
0
LINE
8
BLACK
6
CONTINUOUS
10
5.1101401574803145
20
-3.2630532677165354
11
5.0851119291338582
21
-3.2937544881889762
0
LINE
8
BLACK
6
CONTINUOUS
10
5.0851119291338582
20
-3.2937544881889762
11
5.0612680708661415
21
-3.3253842913385827
0
LINE
8
BLACK
6
CONTINUOUS
10
5.0612680708661415
20
-3.3253842913385827
11
5.0386429921259843
21
-3.3578970866141731
0
LINE
8
BLACK
6
CONTINUOUS
10
5.0386429921259843
20
-3.3578970866141731
11
5.0172693307086611
21
-3.3912459055118109
0
LINE
8
BLACK
6
CONTINUOUS
10
5.0172693307086611
20
-3.3912459055118109
11
4.997177952755905
21
-3.4253825590551181
0
LINE
8
BLACK
6
CONTINUOUS
10
4.997177952755905
20
-3.4253825590551181
11
4.978397874015748
21
-3.4602578346456694
0
LINE
8
BLACK
6
CONTINUOUS
10
4.978397874015748
20
-3.4602578346456694
11
4.9609561811023619
21
-3.4958213779527556
0
LINE
8
BLACK
6
CONTINUOUS
10
4.9609561811023619
20
-3.4958213779527556
11
4.9448780708661415
21
-3.5320218110236219
0
LINE
8
BLACK
6
CONTINUOUS
10
4.9448780708661415
20
-3.5320218110236219
11
4.9301867716535428
21
-3.5688068503937007
0
LINE
8
BLACK
6
CONTINUOUS
10
4.9301867716535428
20
-3.5688068503937007
11
4.9169035039370081
21
-3.6061235039370079
0
LINE
8
BLACK
6
CONTINUOUS
10
4.9169035039370081
20
-3.6061235039370079
11
4.9050473622047246
21
-3.6439177952755903
0
LINE
8
BLACK
6
CONTINUOUS
10
4.9050473622047246
20
-3.6439177952755903
11
4.8946355511811026
21
-3.6821351968503935
0
LINE
8
BLACK
6
CONTINUOUS
10
4.8946355511811026
20
-3.6821351968503935
11
4.8856830708661416
21
-3.7207205511811021
0
LINE
8
BLACK
6
CONTINUOUS
10
4.8856830708661416
20
-3.7207205511811021
11
4.878202834645669
21
-3.7596181102362203
0
LINE
8
BLACK
6
CONTINUOUS
10
4.878202834645669
20
-3.7596181102362203
11
4.8722056299212602
21
-3.7987718110236219
0
LINE
8
BLACK
6
CONTINUOUS
10
4.8722056299212602
20
-3.7987718110236219
11
4.8677001574803151
21
-3.8381250393700785
0
LINE
8
BLACK
6
CONTINUOUS
10
4.8677001574803151
20
-3.8381250393700785
11
4.8646928740157476
21
-3.877621023622047
0
LINE
8
BLACK
6
CONTINUOUS
10
4.8646928740157476
20
-3.877621023622047
11
4.863188149606299
21
-3.9172027165354328
0
LINE
8
BLACK
6
CONTINUOUS
10
4.863188149606299
20
-3.9172027165354328
11
4.863188937007874
21
-3.9370004330708661
0
LINE
8
BLACK
6
CONTINUOUS
10
4.863188937007874
20
-3.9370004330708661
11
4.8631889763779528
21
-3.9370004724409449
0
LINE
8
BLACK
6
CONTINUOUS
10
4.8631889763779528
20
-3.9370004724409449
11
4.8631880314960627
21
-3.9394627952755905
0
LINE
8
BLACK
6
CONTINUOUS
10
4.8631880314960627
20
-3.9394627952755905
11
4.8644609055118107
21
-3.9442200787401576
0
LINE
8
BLACK
6
CONTINUOUS
10
4.8644609055118107
20
-3.9442200787401576
11
4.8669218110236221
21
-3.9484857480314961
0
LINE
8
BLACK
6
CONTINUOUS
10
4.8669218110236221
20
-3.9484857480314961
11
4.8704029921259844
21
-3.9519690157480314
0
LINE
8
BLACK
6
CONTINUOUS
10
4.8704029921259844
20
-3.9519690157480314
11
4.8746672047244095
21
-3.9544324409448817
0
LINE
8
BLACK
6
CONTINUOUS
10
4.8746672047244095
20
-3.9544324409448817
11
4.8794237401574803
21
-3.9557081496062989
0
LINE
8
BLACK
6
CONTINUOUS
10
4.8794237401574803
20
-3.9557081496062989
11
4.8843483858267716
21
-3.9557091338582677
0
LINE
8
BLACK
6
CONTINUOUS
10
4.8843483858267716
20
-3.9557091338582677
11
4.8891054330708661
21
-3.9544353149606297
0
LINE
8
BLACK
6
CONTINUOUS
10
4.8891054330708661
20
-3.9544353149606297
11
4.8933705905511813
21
-3.9519735433070866
0
LINE
8
BLACK
6
CONTINUOUS
10
4.8933705905511813
20
-3.9519735433070866
11
4.8968531889763778
21
-3.9484916535433068
0
LINE
8
BLACK
6
CONTINUOUS
10
4.8968531889763778
20
-3.9484916535433068
11
4.8993157874015747
21
-3.9442269685039371
0
LINE
8
BLACK
6
CONTINUOUS
10
4.8993157874015747
20
-3.9442269685039371
11
4.9005905118110231
21
-3.9394701968503938
0
LINE
8
BLACK
6
CONTINUOUS
10
4.9005905118110231
20
-3.9394701968503938
11
4.9005905118110231
21
-3.9370605511811023
0
LINE
8
BLACK
6
CONTINUOUS
10
4.9005905118110231
20
-3.9370605511811023
11
4.9005734251968507
21
-3.9370078740157481
0
LINE
8
BLACK
6
CONTINUOUS
10
4.9005734251968507
20
-3.9370078740157481
11
4.9012999606299212
21
-3.8988012992125984
0
LINE
8
BLACK
6
CONTINUOUS
10
4.9012999606299212
20
-3.8988012992125984
11
4.9034785433070862
21
-3.8606499999999997
0
LINE
8
BLACK
6
CONTINUOUS
10
4.9034785433070862
20
-3.8606499999999997
11
4.9071060236220472
21
-3.8226090944881888
0
LINE
8
BLACK
6
CONTINUOUS
10
4.9071060236220472
20
-3.8226090944881888
11
4.9121771653543309
21
-3.7847336220472441
0
LINE
8
BLACK
6
CONTINUOUS
10
4.9121771653543309
20
-3.7847336220472441
11
4.9186846062992124
21
-3.747078307086614
0
LINE
8
BLACK
6
CONTINUOUS
10
4.9186846062992124
20
-3.747078307086614
11
4.9266189763779522
21
-3.7096976377952755
0
LINE
8
BLACK
6
CONTINUOUS
10
4.9266189763779522
20
-3.7096976377952755
11
4.9359687401574801
21
-3.6726456299212598
0
LINE
8
BLACK
6
CONTINUOUS
10
4.9359687401574801
20
-3.6726456299212598
11
4.9467204330708663
21
-3.635975905511811
0
LINE
8
BLACK
6
CONTINUOUS
10
4.9467204330708663
20
-3.635975905511811
11
4.9588585039370079
21
-3.5997414173228344
0
LINE
8
BLACK
6
CONTINUOUS
10
4.9588585039370079
20
-3.5997414173228344
11
4.9723653543307087
21
-3.5639946456692915
0
LINE
8
BLACK
6
CONTINUOUS
10
4.9723653543307087
20
-3.5639946456692915
11
4.9872215354330711
21
-3.5287872047244093
0
LINE
8
BLACK
6
CONTINUOUS
10
4.9872215354330711
20
-3.5287872047244093
11
5.0034055118110237
21
-3.4941700393700788
0
LINE
8
BLACK
6
CONTINUOUS
10
5.0034055118110237
20
-3.4941700393700788
11
5.0208938582677165
21
-3.460193188976378
0
LINE
8
BLACK
6
CONTINUOUS
10
5.0208938582677165
20
-3.460193188976378
11
5.0396613385826772
21
-3.4269057874015747
0
LINE
8
BLACK
6
CONTINUOUS
10
5.0396613385826772
20
-3.4269057874015747
11
5.0596807874015743
21
-3.3943559842519684
0
LINE
8
BLACK
6
CONTINUOUS
10
5.0596807874015743
20
-3.3943559842519684
11
5.0809233070866142
21
-3.3625908267716533
0
LINE
8
BLACK
6
CONTINUOUS
10
5.0809233070866142
20
-3.3625908267716533
11
5.1033581102362202
21
-3.3316562598425197
0
LINE
8
BLACK
6
CONTINUOUS
10
5.1033581102362202
20
-3.3316562598425197
11
5.1269527952755904
21
-3.301596968503937
0
LINE
8
BLACK
6
CONTINUOUS
10
5.1269527952755904
20
-3.301596968503937
11
5.1516732283464561
21
-3.2724564566929133
0
LINE
8
BLACK
6
CONTINUOUS
10
5.1516732283464561
20
-3.2724564566929133
11
5.1774837007874011
21
-3.2442768897637793
0
LINE
8
BLACK
6
CONTINUOUS
10
5.1774837007874011
20
-3.2442768897637793
11
5.2043468503937005
21
-3.217098937007874
0
LINE
8
BLACK
6
CONTINUOUS
10
5.2043468503937005
20
-3.217098937007874
11
5.2322238582677167
21
-3.1909619685039368
0
LINE
8
BLACK
6
CONTINUOUS
10
5.2322238582677167
20
-3.1909619685039368
11
5.2610744094488187
21
-3.1659037401574803
0
LINE
8
BLACK
6
CONTINUOUS
10
5.2610744094488187
20
-3.1659037401574803
11
5.2908567716535435
21
-3.1419605118110234
0
LINE
8
BLACK
6
CONTINUOUS
10
5.2908567716535435
20
-3.1419605118110234
11
5.3215279133858271
21
-3.1191668503937007
0
LINE
8
BLACK
6
CONTINUOUS
10
5.3215279133858271
20
-3.1191668503937007
11
5.3530434251968506
21
-3.0975557480314961
0
LINE
8
BLACK
6
CONTINUOUS
10
5.3530434251968506
20
-3.0975557480314961
11
5.385357834645669
21
-3.0771584645669292
0
LINE
8
BLACK
6
CONTINUOUS
10
5.385357834645669
20
-3.0771584645669292
11
5.4184243307086613
21
-3.0580044881889763
0
LINE
8
BLACK
6
CONTINUOUS
10
5.4184243307086613
20
-3.0580044881889763
11
5.4521951574803147
21
-3.0401214960629921
0
LINE
8
BLACK
6
CONTINUOUS
10
5.4521951574803147
20
-3.0401214960629921
11
5.4866214173228345
21
-3.0235353543307086
0
LINE
8
BLACK
6
CONTINUOUS
10
5.4866214173228345
20
-3.0235353543307086
11
5.5216188976377953
21
-3.0082851181102361
0
LINE
8
BLACK
6
CONTINUOUS
10
5.5216188976377953
20
-3.0082851181102361
11
5.5238333070866137
21
-3.0072675196850391
0
LINE
8
BLACK
6
CONTINUOUS
10
5.5238333070866137
20
-3.0072675196850391
11
5.5275911023622042
21
-3.004157716535433
0
LINE
8
BLACK
6
CONTINUOUS
10
5.5275911023622042
20
-3.004157716535433
11
5.5304257874015743
21
-3.000188307086614
0
LINE
8
BLACK
6
CONTINUOUS
10
5.5304257874015743
20
-3.000188307086614
11
5.5321478346456692
21
-2.9956247244094487
0
LINE
8
BLACK
6
CONTINUOUS
10
5.5321478346456692
20
-2.9956247244094487
11
5.5326420866141728
21
-2.9907721653543304
0
LINE
8
BLACK
6
CONTINUOUS
10
5.5326420866141728
20
-2.9907721653543304
11
5.5318755118110232
21
-2.985955118110236
0
LINE
8
BLACK
6
CONTINUOUS
10
5.5318755118110232
20
-2.985955118110236
11
5.5298993700787404
21
-2.9814957086614173
0
LINE
8
BLACK
6
CONTINUOUS
10
5.5298993700787404
20
-2.9814957086614173
11
5.5268457874015748
21
-2.9776921259842517
0
LINE
8
BLACK
6
CONTINUOUS
10
5.5268457874015748
20
-2.9776921259842517
11
5.5229189370078737
21
-2.97479874015748
0
LINE
8
BLACK
6
CONTINUOUS
10
5.5229189370078737
20
-2.97479874015748
11
5.5183814960629922
21
-2.9730090157480316
0
LINE
8
BLACK
6
CONTINUOUS
10
5.5183814960629922
20
-2.9730090157480316
11
5.5135368110236218
21
-2.9724426377952757
0
LINE
8
BLACK
6
CONTINUOUS
10
5.5135368110236218
20
-2.9724426377952757
11
5.5087088976377956
21
-2.9731375196850394
0
LINE
8
BLACK
6
CONTINUOUS
10
5.9451612204724409
20
-2.8934694881889764
11
5.9847535039370081
21
-2.8957273228346456
0
LINE
8
BLACK
6
CONTINUOUS
10
5.9847535039370081
20
-2.8957273228346456
11
6.0242314566929132
21
-2.8994867716535433
0
LINE
8
BLACK
6
CONTINUOUS
10
6.0242314566929132
20
-2.8994867716535433
11
6.0635382283464567
21
-2.9047423622047241
0
LINE
8
BLACK
6
CONTINUOUS
10
6.0635382283464567
20
-2.9047423622047241
11
6.1026171259842519
21
-2.9114866141732283
0
LINE
8
BLACK
6
CONTINUOUS
10
6.1026171259842519
20
-2.9114866141732283
11
6.1414117716535435
21
-2.9197096850393702
0
LINE
8
BLACK
6
CONTINUOUS
10
6.1414117716535435
20
-2.9197096850393702
11
6.1798662598425196
21
-2.929399803149606
0
LINE
8
BLACK
6
CONTINUOUS
10
6.1798662598425196
20
-2.929399803149606
11
6.2179250787401577
21
-2.9405429527559055
0
LINE
8
BLACK
6
CONTINUOUS
10
6.2179250787401577
20
-2.9405429527559055
11
6.2555333858267712
21
-2.9531230708661416
0
LINE
8
BLACK
6
CONTINUOUS
10
6.2555333858267712
20
-2.9531230708661416
11
6.2926369291338577
21
-2.9671220472440942
0
LINE
8
BLACK
6
CONTINUOUS
10
6.2926369291338577
20
-2.9671220472440942
11
6.3291822047244093
21
-2.9825196456692913
0
LINE
8
BLACK
6
CONTINUOUS
10
6.3291822047244093
20
-2.9825196456692913
11
6.3651165354330708
21
-2.9992937007874017
0
LINE
8
BLACK
6
CONTINUOUS
10
6.3651165354330708
20
-2.9992937007874017
11
6.4003880708661418
21
-3.01742
0
LINE
8
BLACK
6
CONTINUOUS
10
6.4003880708661418
20
-3.01742
11
6.43494594488189
21
-3.036872401574803
0
LINE
8
BLACK
6
CONTINUOUS
10
6.43494594488189
20
-3.036872401574803
11
6.4687403543307083
21
-3.0576228740157481
0
LINE
8
BLACK
6
CONTINUOUS
10
6.4687403543307083
20
-3.0576228740157481
11
6.5017225590551178
21
-3.0796414566929133
0
LINE
8
BLACK
6
CONTINUOUS
10
6.5017225590551178
20
-3.0796414566929133
11
6.5338449606299207
21
-3.1028964566929131
0
LINE
8
BLACK
6
CONTINUOUS
10
6.5338449606299207
20
-3.1028964566929131
11
6.5650612598425191
21
-3.1273542913385826
0
LINE
8
BLACK
6
CONTINUOUS
10
6.5650612598425191
20
-3.1273542913385826
11
6.5953264566929128
21
-3.1529797244094486
0
LINE
8
BLACK
6
CONTINUOUS
10
6.5953264566929128
20
-3.1529797244094486
11
6.6245968897637795
21
-3.1797357874015746
0
LINE
8
BLACK
6
CONTINUOUS
10
6.6245968897637795
20
-3.1797357874015746
11
6.6528303543307086
21
-3.2075838582677165
0
LINE
8
BLACK
6
CONTINUOUS
10
6.6528303543307086
20
-3.2075838582677165
11
6.6799861417322832
21
-3.2364838188976379
0
LINE
8
BLACK
6
CONTINUOUS
10
6.6799861417322832
20
-3.2364838188976379
11
6.7060250393700782
21
-3.2663940157480313
0
LINE
8
BLACK
6
CONTINUOUS
10
6.7060250393700782
20
-3.2663940157480313
11
6.7309095669291334
21
-3.2972712598425198
0
LINE
8
BLACK
6
CONTINUOUS
10
6.7309095669291334
20
-3.2972712598425198
11
6.7546038188976381
21
-3.3290710629921261
0
LINE
8
BLACK
6
CONTINUOUS
10
6.7546038188976381
20
-3.3290710629921261
11
6.7770735826771649
21
-3.3617475196850393
0
LINE
8
BLACK
6
CONTINUOUS
10
6.7770735826771649
20
-3.3617475196850393
11
6.7982865354330704
21
-3.3952535826771655
0
LINE
8
BLACK
6
CONTINUOUS
10
6.7982865354330704
20
-3.3952535826771655
11
6.8182120078740152
21
-3.4295409055118111
0
LINE
8
BLACK
6
CONTINUOUS
10
6.8182120078740152
20
-3.4295409055118111
11
6.836821338582677
21
-3.4645600000000001
0
LINE
8
BLACK
6
CONTINUOUS
10
6.836821338582677
20
-3.4645600000000001
11
6.8540875984251963
21
-3.5002603937007875
0
LINE
8
BLACK
6
CONTINUOUS
10
6.8540875984251963
20
-3.5002603937007875
11
6.8699859842519686
21
-3.5365906299212599
0
LINE
8
BLACK
6
CONTINUOUS
10
6.8699859842519686
20
-3.5365906299212599
11
6.8699874015748028
21
-3.5366085826771654
0
LINE
8
BLACK
6
CONTINUOUS
10
6.8699874015748028
20
-3.5366085826771654
11
6.8715244488188976
21
-3.5413488582677166
0
LINE
8
BLACK
6
CONTINUOUS
10
6.8715244488188976
20
-3.5413488582677166
11
6.8718730708661413
21
-3.546378897637795
0
LINE
8
BLACK
6
CONTINUOUS
10
6.8718730708661413
20
-3.546378897637795
11
6.8709944094488185
21
-3.5513438188976378
0
LINE
8
BLACK
6
CONTINUOUS
10
6.8709944094488185
20
-3.5513438188976378
11
6.8689406692913382
21
-3.5559487007874013
0
LINE
8
BLACK
6
CONTINUOUS
10
6.8689406692913382
20
-3.5559487007874013
11
6.8658338582677167
21
-3.5599199212598425
0
LINE
8
BLACK
6
CONTINUOUS
10
6.8658338582677167
20
-3.5599199212598425
11
6.8618586220472437
21
-3.563021496062992
0
LINE
8
BLACK
6
CONTINUOUS
10
6.8618586220472437
20
-3.563021496062992
11
6.8572510629921259
21
-3.5650692519685037
0
LINE
8
BLACK
6
CONTINUOUS
10
6.8572510629921259
20
-3.5650692519685037
11
6.8522849606299214
21
-3.5659414173228345
0
LINE
8
BLACK
6
CONTINUOUS
10
6.8522849606299214
20
-3.5659414173228345
11
6.8472553937007872
21
-3.5655862204724409
0
LINE
8
BLACK
6
CONTINUOUS
10
6.8472553937007872
20
-3.5655862204724409
11
6.8424611811023617
21
-3.5640247637795275
0
LINE
8
BLACK
6
CONTINUOUS
10
6.8424611811023617
20
-3.5640247637795275
11
6.8381871653543307
21
-3.5613498031496063
0
LINE
8
BLACK
6
CONTINUOUS
10
6.8381871653543307
20
-3.5613498031496063
11
6.8346872440944884
21
-3.557720275590551
0
LINE
8
BLACK
6
CONTINUOUS
10
6.8346872440944884
20
-3.557720275590551
11
6.8321694094488183
21
-3.5533518503937005
0
LINE
8
BLACK
6
CONTINUOUS
10
6.8321694094488183
20
-3.5533518503937005
11
6.8321653937007873
21
-3.55330562992126
0
LINE
8
BLACK
6
CONTINUOUS
10
6.8321653937007873
20
-3.55330562992126
11
6.8248879527559057
21
-3.535726811023622
0
LINE
8
BLACK
6
CONTINUOUS
10
6.8248879527559057
20
-3.535726811023622
11
6.8089756692913381
21
-3.5010812204724409
0
LINE
8
BLACK
6
CONTINUOUS
10
6.8089756692913381
20
-3.5010812204724409
11
6.7917583464566924
21
-3.4670653149606299
0
LINE
8
BLACK
6
CONTINUOUS
10
6.7917583464566924
20
-3.4670653149606299
11
6.7732609055118109
21
-3.433728188976378
0
LINE
8
BLACK
6
CONTINUOUS
10
6.7732609055118109
20
-3.433728188976378
11
6.753510078740157
21
-3.401118031496063
0
LINE
8
BLACK
6
CONTINUOUS
10
6.753510078740157
20
-3.401118031496063
11
6.7325343307086616
21
-3.369281968503937
0
LINE
8
BLACK
6
CONTINUOUS
10
6.7325343307086616
20
-3.369281968503937
11
6.7103639763779528
21
-3.3382659055118111
0
LINE
8
BLACK
6
CONTINUOUS
10
6.7103639763779528
20
-3.3382659055118111
11
6.6870310629921255
21
-3.3081147244094486
0
LINE
8
BLACK
6
CONTINUOUS
10
6.6870310629921255
20
-3.3081147244094486
11
6.6625692913385821
21
-3.2788719291338584
0
LINE
8
BLACK
6
CONTINUOUS
10
6.6625692913385821
20
-3.2788719291338584
11
6.6370140157480311
21
-3.250579803149606
0
LINE
8
BLACK
6
CONTINUOUS
10
6.6370140157480311
20
-3.250579803149606
11
6.6104020866141733
21
-3.2232791732283466
0
LINE
8
BLACK
6
CONTINUOUS
10
6.6104020866141733
20
-3.2232791732283466
11
6.5827720078740155
21
-3.1970094881889763
0
LINE
8
BLACK
6
CONTINUOUS
10
6.5827720078740155
20
-3.1970094881889763
11
6.5541636220472439
21
-3.1718087007874014
0
LINE
8
BLACK
6
CONTINUOUS
10
6.5541636220472439
20
-3.1718087007874014
11
6.5246183070866142
21
-3.1477131889763781
0
LINE
8
BLACK
6
CONTINUOUS
10
6.5246183070866142
20
-3.1477131889763781
11
6.49417874015748
21
-3.1247577952755905
0
LINE
8
BLACK
6
CONTINUOUS
10
6.49417874015748
20
-3.1247577952755905
11
6.462888858267716
21
-3.1029756299212599
0
LINE
8
BLACK
6
CONTINUOUS
10
6.462888858267716
20
-3.1029756299212599
11
6.4307938976377947
21
-3.0823981889763781
0
LINE
8
BLACK
6
CONTINUOUS
10
6.4307938976377947
20
-3.0823981889763781
11
6.3979401968503939
21
-3.0630551968503936
0
LINE
8
BLACK
6
CONTINUOUS
10
6.3979401968503939
20
-3.0630551968503936
11
6.3643751574803149
21
-3.0449746062992125
0
LINE
8
BLACK
6
CONTINUOUS
10
6.3643751574803149
20
-3.0449746062992125
11
6.3301473622047242
21
-3.0281824803149604
0
LINE
8
BLACK
6
CONTINUOUS
10
6.3301473622047242
20
-3.0281824803149604
11
6.2953061811023616
21
-3.0127031102362203
0
LINE
8
BLACK
6
CONTINUOUS
10
6.2953061811023616
20
-3.0127031102362203
11
6.2599019685039368
21
-2.9985588582677165
0
LINE
8
BLACK
6
CONTINUOUS
10
6.2599019685039368
20
-2.9985588582677165
11
6.2239858661417324
21
-2.9857701181102363
0
LINE
8
BLACK
6
CONTINUOUS
10
6.2239858661417324
20
-2.9857701181102363
11
6.187609724409449
21
-2.9743554330708659
0
LINE
8
BLACK
6
CONTINUOUS
10
6.187609724409449
20
-2.9743554330708659
11
6.1508261023622044
21
-2.9643312204724408
0
LINE
8
BLACK
6
CONTINUOUS
10
6.1508261023622044
20
-2.9643312204724408
11
6.1136881496062987
21
-2.9557120078740158
0
LINE
8
BLACK
6
CONTINUOUS
10
6.1136881496062987
20
-2.9557120078740158
11
6.0762494881889761
21
-2.9485102362204723
0
LINE
8
BLACK
6
CONTINUOUS
10
6.0762494881889761
20
-2.9485102362204723
11
6.0385642125984251
21
-2.9427362598425195
0
LINE
8
BLACK
6
CONTINUOUS
10
6.0385642125984251
20
-2.9427362598425195
11
6.0006867716535428
21
-2.938398503937008
0
LINE
8
BLACK
6
CONTINUOUS
10
6.0006867716535428
20
-2.938398503937008
11
5.9626718503937006
21
-2.9355031496062991
0
LINE
8
BLACK
6
CONTINUOUS
10
5.9626718503937006
20
-2.9355031496062991
11
5.9245743307086611
21
-2.9340544488188978
0
LINE
8
BLACK
6
CONTINUOUS
10
5.9245743307086611
20
-2.9340544488188978
11
5.9055118110236222
21
-2.9340551181102361
0
LINE
8
BLACK
6
CONTINUOUS
10
5.9055118110236222
20
-2.9340551181102361
11
5.9001622047244089
21
-2.9333508267716533
0
LINE
8
BLACK
6
CONTINUOUS
10
5.9001622047244089
20
-2.9333508267716533
11
5.8951771653543306
21
-2.9312859448818895
0
LINE
8
BLACK
6
CONTINUOUS
10
5.8951771653543306
20
-2.9312859448818895
11
5.8908964173228346
21
-2.9280012204724408
0
LINE
8
BLACK
6
CONTINUOUS
10
5.8908964173228346
20
-2.9280012204724408
11
5.8876116929133859
21
-2.9237204724409449
0
LINE
8
BLACK
6
CONTINUOUS
10
5.8876116929133859
20
-2.9237204724409449
11
5.8855468110236222
21
-2.9187354330708661
0
LINE
8
BLACK
6
CONTINUOUS
10
5.8855468110236222
20
-2.9187354330708661
11
5.8848425196850389
21
-2.9133858267716537
0
LINE
8
BLACK
6
CONTINUOUS
10
5.8848425196850389
20
-2.9133858267716537
11
5.8855468110236222
21
-2.9080362204724408
0
LINE
8
BLACK
6
CONTINUOUS
10
5.8855468110236222
20
-2.9080362204724408
11
5.8876116929133859
21
-2.903051181102362
0
LINE
8
BLACK
6
CONTINUOUS
10
5.8876116929133859
20
-2.903051181102362
11
5.8908964173228346
21
-2.8987704330708661
0
LINE
8
BLACK
6
CONTINUOUS
10
5.8908964173228346
20
-2.8987704330708661
11
5.8951771653543306
21
-2.8954857086614174
0
LINE
8
BLACK
6
CONTINUOUS
10
5.8951771653543306
20
-2.8954857086614174
11
5.9001622047244089
21
-2.8934208267716537
0
LINE
8
BLACK
6
CONTINUOUS
10
5.9001622047244089
20
-2.8934208267716537
11
5.9055118110236222
21
-2.8927165354330708
0
LINE
8
BLACK
6
CONTINUOUS
10
5.9055118110236222
20
-2.8927165354330708
11
5.9451612204724409
21
-2.8934694881889764
0
LINE
8
BLACK
6
CONTINUOUS
10
5.9055118110236222
20
-2.8946850393700787
11
5.9030498031496066
21
-2.8946850393700787
0
LINE
8
BLACK
6
CONTINUOUS
10
5.9030498031496066
20
-2.8946850393700787
11
5.898293582677165
21
-2.8959594488188976
0
LINE
8
BLACK
6
CONTINUOUS
10
5.898293582677165
20
-2.8959594488188976
11
5.8940292519685036
21
-2.8984214566929132
0
LINE
8
BLACK
6
CONTINUOUS
10
5.8940292519685036
20
-2.8984214566929132
11
5.8905474409448821
21
-2.9019032677165355
0
LINE
8
BLACK
6
CONTINUOUS
10
5.8905474409448821
20
-2.9019032677165355
11
5.8880854330708656
21
-2.9061675984251969
0
LINE
8
BLACK
6
CONTINUOUS
10
5.8880854330708656
20
-2.9061675984251969
11
5.8868110236220472
21
-2.9109238188976376
0
LINE
8
BLACK
6
CONTINUOUS
10
5.8868110236220472
20
-2.9109238188976376
11
5.8868110236220472
21
-2.9158478346456693
0
LINE
8
BLACK
6
CONTINUOUS
10
5.8868110236220472
20
-2.9158478346456693
11
5.8880854330708656
21
-2.9206040551181101
0
LINE
8
BLACK
6
CONTINUOUS
10
5.8880854330708656
20
-2.9206040551181101
11
5.8905474409448821
21
-2.9248683858267714
0
LINE
8
BLACK
6
CONTINUOUS
10
5.8905474409448821
20
-2.9248683858267714
11
5.8940292519685036
21
-2.9283501968503938
0
LINE
8
BLACK
6
CONTINUOUS
10
5.8940292519685036
20
-2.9283501968503938
11
5.898293582677165
21
-2.9308122047244094
0
LINE
8
BLACK
6
CONTINUOUS
10
5.898293582677165
20
-2.9308122047244094
11
5.9030498031496066
21
-2.9320866141732282
0
LINE
8
BLACK
6
CONTINUOUS
10
5.9030498031496066
20
-2.9320866141732282
11
5.9055118110236222
21
-2.9320866141732282
0
LINE
8
BLACK
6
CONTINUOUS
10
5.9055118110236222
20
-2.9320866141732282
11
5.943697874015748
21
-2.9328124015748029
0
LINE
8
BLACK
6
CONTINUOUS
10
5.943697874015748
20
-2.9328124015748029
11
5.9818287401574803
21
-2.9349886614173228
0
LINE
8
BLACK
6
CONTINUOUS
10
5.9818287401574803
20
-2.9349886614173228
11
6.0198494094488186
21
-2.9386123228346457
0
LINE
8
BLACK
6
CONTINUOUS
10
6.0198494094488186
20
-2.9386123228346457
11
6.0577048818897641
21
-2.9436781102362204
0
LINE
8
BLACK
6
CONTINUOUS
10
6.0577048818897641
20
-2.9436781102362204
11
6.0953405511811019
21
-2.9501787007874016
0
LINE
8
BLACK
6
CONTINUOUS
10
6.0953405511811019
20
-2.9501787007874016
11
6.1327020078740153
21
-2.9581047244094489
0
LINE
8
BLACK
6
CONTINUOUS
10
6.1327020078740153
20
-2.9581047244094489
11
6.1697353149606302
21
-2.9674447244094488
0
LINE
8
BLACK
6
CONTINUOUS
10
6.1697353149606302
20
-2.9674447244094488
11
6.2063869685039368
21
-2.9781852362204724
0
LINE
8
BLACK
6
CONTINUOUS
10
6.2063869685039368
20
-2.9781852362204724
11
6.2426040157480314
21
-2.9903106692913384
0
LINE
8
BLACK
6
CONTINUOUS
10
6.2426040157480314
20
-2.9903106692913384
11
6.2783341338582677
21
-3.0038035826771652
0
LINE
8
BLACK
6
CONTINUOUS
10
6.2783341338582677
20
-3.0038035826771652
11
6.3135257480314957
21
-3.0186444488188977
0
LINE
8
BLACK
6
CONTINUOUS
10
6.3135257480314957
20
-3.0186444488188977
11
6.3481279921259839
21
-3.0348118503937007
0
LINE
8
BLACK
6
CONTINUOUS
10
6.3481279921259839
20
-3.0348118503937007
11
6.3820909055118111
21
-3.0522824409448819
0
LINE
8
BLACK
6
CONTINUOUS
10
6.3820909055118111
20
-3.0522824409448819
11
6.4153654330708658
21
-3.0710309448818895
0
LINE
8
BLACK
6
CONTINUOUS
10
6.4153654330708658
20
-3.0710309448818895
11
6.4479035039370078
21
-3.09103031496063
0
LINE
8
BLACK
6
CONTINUOUS
10
6.4479035039370078
20
-3.09103031496063
11
6.4796581102362207
21
-3.1122516929133859
0
LINE
8
BLACK
6
CONTINUOUS
10
6.4796581102362207
20
-3.1122516929133859
11
6.5105833858267719
21
-3.13466437007874
0
LINE
8
BLACK
6
CONTINUOUS
10
6.5105833858267719
20
-3.13466437007874
11
6.54063468503937
21
-3.1582359448818895
0
LINE
8
BLACK
6
CONTINUOUS
10
6.54063468503937
20
-3.1582359448818895
11
6.5697685433070863
21
-3.1829324803149603
0
LINE
8
BLACK
6
CONTINUOUS
10
6.5697685433070863
20
-3.1829324803149603
11
6.597942952755905
21
-3.2087181889763778
0
LINE
8
BLACK
6
CONTINUOUS
10
6.597942952755905
20
-3.2087181889763778
11
6.6251171653543306
21
-3.235555905511811
0
LINE
8
BLACK
6
CONTINUOUS
10
6.6251171653543306
20
-3.235555905511811
11
6.6512519685039369
21
-3.2634068503937006
0
LINE
8
BLACK
6
CONTINUOUS
10
6.6512519685039369
20
-3.2634068503937006
11
6.6763095669291337
21
-3.2922307480314958
0
LINE
8
BLACK
6
CONTINUOUS
10
6.6763095669291337
20
-3.2922307480314958
11
6.700253779527559
21
-3.3219859842519686
0
LINE
8
BLACK
6
CONTINUOUS
10
6.700253779527559
20
-3.3219859842519686
11
6.7230500393700785
21
-3.3526296062992125
0
LINE
8
BLACK
6
CONTINUOUS
10
6.7230500393700785
20
-3.3526296062992125
11
6.7446654330708657
21
-3.3841173228346455
0
LINE
8
BLACK
6
CONTINUOUS
10
6.7446654330708657
20
-3.3841173228346455
11
6.765068661417323
21
-3.4164036614173225
0
LINE
8
BLACK
6
CONTINUOUS
10
6.765068661417323
20
-3.4164036614173225
11
6.7842303543307088
21
-3.4494420078740156
0
LINE
8
BLACK
6
CONTINUOUS
10
6.7842303543307088
20
-3.4494420078740156
11
6.8021227559055113
21
-3.4831846062992127
0
LINE
8
BLACK
6
CONTINUOUS
10
6.8021227559055113
20
-3.4831846062992127
11
6.8187200393700786
21
-3.5175827165354332
0
LINE
8
BLACK
6
CONTINUOUS
10
6.8187200393700786
20
-3.5175827165354332
11
6.8339982677165354
21
-3.5525866535433068
0
LINE
8
BLACK
6
CONTINUOUS
10
6.8339982677165354
20
-3.5525866535433068
11
6.8339982283464566
21
-3.5525866929133856
0
LINE
8
BLACK
6
CONTINUOUS
10
6.8339982283464566
20
-3.5525866929133856
11
6.8340016141732285
21
-3.5526301968503935
0
LINE
8
BLACK
6
CONTINUOUS
10
6.8340016141732285
20
-3.5526301968503935
11
6.8349571259842516
21
-3.5548767716535434
0
LINE
8
BLACK
6
CONTINUOUS
10
6.8349571259842516
20
-3.5548767716535434
11
6.8380335039370079
21
-3.5587966929133859
0
LINE
8
BLACK
6
CONTINUOUS
10
6.8380335039370079
20
-3.5587966929133859
11
6.8420283070866139
21
-3.5617751574803149
0
LINE
8
BLACK
6
CONTINUOUS
10
6.8420283070866139
20
-3.5617751574803149
11
6.8466632283464568
21
-3.5636046850393699
0
LINE
8
BLACK
6
CONTINUOUS
10
6.8466632283464568
20
-3.5636046850393699
11
6.8516153937007873
21
-3.5641577952755905
0
LINE
8
BLACK
6
CONTINUOUS
10
6.8516153937007873
20
-3.5641577952755905
11
6.8565397637795273
21
-3.5633959448818895
0
LINE
8
BLACK
6
CONTINUOUS
10
6.8565397637795273
20
-3.5633959448818895
11
6.8610932677165355
21
-3.5613722440944882
0
LINE
8
BLACK
6
CONTINUOUS
10
6.8610932677165355
20
-3.5613722440944882
11
6.8649587007874011
21
-3.558227677165354
0
LINE
8
BLACK
6
CONTINUOUS
10
6.8649587007874011
20
-3.558227677165354
11
6.8678666929133856
21
-3.5541812992125985
0
LINE
8
BLACK
6
CONTINUOUS
10
6.8678666929133856
20
-3.5541812992125985
11
6.8696147244094483
21
-3.549515
0
LINE
8
BLACK
6
CONTINUOUS
10
6.8696147244094483
20
-3.549515
11
6.8700809842519686
21
-3.544553937007874
0
LINE
8
BLACK
6
CONTINUOUS
10
6.8700809842519686
20
-3.544553937007874
11
6.8692329921259843
21
-3.5396436614173226
0
LINE
8
BLACK
6
CONTINUOUS
10
6.8692329921259843
20
-3.5396436614173226
11
6.8681846850393695
21
-3.5373834645669291
0
LINE
8
BLACK
6
CONTINUOUS
10
6.8681846850393695
20
-3.5373834645669291
11
6.868182047244094
21
-3.5373618897637793
0
LINE
8
BLACK
6
CONTINUOUS
10
6.868182047244094
20
-3.5373618897637793
11
6.868167952755905
21
-3.537345433070866
0
LINE
8
BLACK
6
CONTINUOUS
10
6.868167952755905
20
-3.537345433070866
11
6.8605790157480318
21
-3.519063464566929
0
LINE
8
BLACK
6
CONTINUOUS
10
6.8605790157480318
20
-3.519063464566929
11
6.8440219291338584
21
-3.4831030314960629
0
LINE
8
BLACK
6
CONTINUOUS
10
6.8440219291338584
20
-3.4831030314960629
11
6.8261114960629916
21
-3.4477971653543307
0
LINE
8
BLACK
6
CONTINUOUS
10
6.8261114960629916
20
-3.4477971653543307
11
6.8068734645669293
21
-3.4131967716535434
0
LINE
8
BLACK
6
CONTINUOUS
10
6.8068734645669293
20
-3.4131967716535434
11
6.7863355905511806
21
-3.3793517716535431
0
LINE
8
BLACK
6
CONTINUOUS
10
6.7863355905511806
20
-3.3793517716535431
11
6.7645275196850392
21
-3.3463109055118108
0
LINE
8
BLACK
6
CONTINUOUS
10
6.7645275196850392
20
-3.3463109055118108
11
6.741480669291338
21
-3.3141219291338584
0
LINE
8
BLACK
6
CONTINUOUS
10
6.741480669291338
20
-3.3141219291338584
11
6.7172283070866143
21
-3.2828311417322835
0
LINE
8
BLACK
6
CONTINUOUS
10
6.7172283070866143
20
-3.2828311417322835
11
6.6918053937007871
21
-3.2524837401574804
0
LINE
8
BLACK
6
CONTINUOUS
10
6.6918053937007871
20
-3.2524837401574804
11
6.6652485826771652
21
-3.2231235039370079
0
LINE
8
BLACK
6
CONTINUOUS
10
6.6652485826771652
20
-3.2231235039370079
11
6.6375961811023618
21
-3.1947927165354328
0
LINE
8
BLACK
6
CONTINUOUS
10
6.6375961811023618
20
-3.1947927165354328
11
6.6088880708661417
21
-3.1675322440944882
0
LINE
8
BLACK
6
CONTINUOUS
10
6.6088880708661417
20
-3.1675322440944882
11
6.5791656299212598
21
-3.1413814566929132
0
LINE
8
BLACK
6
CONTINUOUS
10
6.5791656299212598
20
-3.1413814566929132
11
6.5484717322834642
21
-3.116377992125984
0
LINE
8
BLACK
6
CONTINUOUS
10
6.5484717322834642
20
-3.116377992125984
11
6.5168506299212599
21
-3.0925579133858268
0
LINE
8
BLACK
6
CONTINUOUS
10
6.5168506299212599
20
-3.0925579133858268
11
6.4843479527559049
21
-3.0699556299212598
0
LINE
8
BLACK
6
CONTINUOUS
10
6.4843479527559049
20
-3.0699556299212598
11
6.4510105118110239
21
-3.0486036614173226
0
LINE
8
BLACK
6
CONTINUOUS
10
6.4510105118110239
20
-3.0486036614173226
11
6.4168864566929136
21
-3.028532874015748
0
LINE
8
BLACK
6
CONTINUOUS
10
6.4168864566929136
20
-3.028532874015748
11
6.3820249606299209
21
-3.0097721259842518
0
LINE
8
BLACK
6
CONTINUOUS
10
6.3820249606299209
20
-3.0097721259842518
11
6.3464762992125987
21
-2.9923485826771654
0
LINE
8
BLACK
6
CONTINUOUS
10
6.3464762992125987
20
-2.9923485826771654
11
6.3102917322834644
21
-2.9762872440944883
0
LINE
8
BLACK
6
CONTINUOUS
10
6.3102917322834644
20
-2.9762872440944883
11
6.2735234251968501
21
-2.9616113779527558
0
LINE
8
BLACK
6
CONTINUOUS
10
6.2735234251968501
20
-2.9616113779527558
11
6.2362244488188976
21
-2.948342086614173
0
LINE
8
BLACK
6
CONTINUOUS
10
6.2362244488188976
20
-2.948342086614173
11
6.1984485433070864
21
-2.9364985433070867
0
LINE
8
BLACK
6
CONTINUOUS
10
6.1984485433070864
20
-2.9364985433070867
11
6.1602501968503933
21
-2.9260977559055119
0
LINE
8
BLACK
6
CONTINUOUS
10
6.1602501968503933
20
-2.9260977559055119
11
6.1216844881889765
21
-2.9171548031496064
0
LINE
8
BLACK
6
CONTINUOUS
10
6.1216844881889765
20
-2.9171548031496064
11
6.0828070472440947
21
-2.9096825590551179
0
LINE
8
BLACK
6
CONTINUOUS
10
6.0828070472440947
20
-2.9096825590551179
11
6.0436739763779528
21
-2.9036918110236218
0
LINE
8
BLACK
6
CONTINUOUS
10
6.0436739763779528
20
-2.9036918110236218
11
6.004341614173228
21
-2.8991911417322833
0
LINE
8
BLACK
6
CONTINUOUS
10
6.004341614173228
20
-2.8991911417322833
11
5.9648667716535435
21
-2.8961871259842518
0
LINE
8
BLACK
6
CONTINUOUS
10
5.9648667716535435
20
-2.8961871259842518
11
5.9253062992125987
21
-2.8946840157480316
0
LINE
8
BLACK
6
CONTINUOUS
10
5.9253062992125987
20
-2.8946840157480316
11
5.9055118110236222
21
-2.8946850393700787
0
LINE
8
BLACK
6
CONTINUOUS
10
5.9797415748031497
20
-2.362969803149606
11
6.0291466535433074
21
-2.3660781102362205
0
LINE
8
BLACK
6
CONTINUOUS
10
6.0291466535433074
20
-2.3660781102362205
11
6.0784297637795275
21
-2.3707367322834645
0
LINE
8
BLACK
6
CONTINUOUS
10
6.0784297637795275
20
-2.3707367322834645
11
6.127542204724409
21
-2.3769410629921257
0
LINE
8
BLACK
6
CONTINUOUS
10
6.127542204724409
20
-2.3769410629921257
11
6.1764355118110235
21
-2.3846850000000002
0
LINE
8
BLACK
6
CONTINUOUS
10
6.1764355118110235
20
-2.3846850000000002
11
6.225061456692913
21
-2.3939609055118112
0
LINE
8
BLACK
6
CONTINUOUS
10
6.225061456692913
20
-2.3939609055118112
11
6.2733720866141729
21
-2.4047596062992125
0
LINE
8
BLACK
6
CONTINUOUS
10
6.2733720866141729
20
-2.4047596062992125
11
6.3213196456692913
21
-2.4170704330708661
0
LINE
8
BLACK
6
CONTINUOUS
10
6.3213196456692913
20
-2.4170704330708661
11
6.3688568503937004
21
-2.4308812992125985
0
LINE
8
BLACK
6
CONTINUOUS
10
6.3688568503937004
20
-2.4308812992125985
11
6.4159368110236219
21
-2.4461785039370079
0
LINE
8
BLACK
6
CONTINUOUS
10
6.4159368110236219
20
-2.4461785039370079
11
6.462513031496063
21
-2.4629469685039371
0
LINE
8
BLACK
6
CONTINUOUS
10
6.462513031496063
20
-2.4629469685039371
11
6.508539527559055
21
-2.4811701574803151
0
LINE
8
BLACK
6
CONTINUOUS
10
6.508539527559055
20
-2.4811701574803151
11
6.5539709448818897
21
-2.5008300787401576
0
LINE
8
BLACK
6
CONTINUOUS
10
6.5539709448818897
20
-2.5008300787401576
11
6.5987624015748034
21
-2.5219073228346458
0
LINE
8
BLACK
6
CONTINUOUS
10
6.5987624015748034
20
-2.5219073228346458
11
6.642869724409449
21
-2.5443811417322832
0
LINE
8
BLACK
6
CONTINUOUS
10
6.642869724409449
20
-2.5443811417322832
11
6.6862493307086615
21
-2.5682292913385827
0
LINE
8
BLACK
6
CONTINUOUS
10
6.6862493307086615
20
-2.5682292913385827
11
6.7288584645669287
21
-2.5934282283464567
0
LINE
8
BLACK
6
CONTINUOUS
10
6.7288584645669287
20
-2.5934282283464567
11
6.7706550393700784
21
-2.6199531496062991
0
LINE
8
BLACK
6
CONTINUOUS
10
6.7706550393700784
20
-2.6199531496062991
11
6.8115978346456689
21
-2.6477778740157478
0
LINE
8
BLACK
6
CONTINUOUS
10
6.8115978346456689
20
-2.6477778740157478
11
6.8516464566929134
21
-2.6768748818897636
0
LINE
8
BLACK
6
CONTINUOUS
10
6.8516464566929134
20
-2.6768748818897636
11
6.8907612992125982
21
-2.7072154724409447
0
LINE
8
BLACK
6
CONTINUOUS
10
6.8907612992125982
20
-2.7072154724409447
11
6.9289038582677165
21
-2.7387697244094489
0
LINE
8
BLACK
6
CONTINUOUS
10
6.9289038582677165
20
-2.7387697244094489
11
6.9660364566929136
21
-2.771506496062992
0
LINE
8
BLACK
6
CONTINUOUS
10
6.9660364566929136
20
-2.771506496062992
11
7.0021224409448815
21
-2.8053935039370077
0
LINE
8
BLACK
6
CONTINUOUS
10
7.0021224409448815
20
-2.8053935039370077
11
7.0371261811023622
21
-2.840397244094488
0
LINE
8
BLACK
6
CONTINUOUS
10
7.0371261811023622
20
-2.840397244094488
11
7.0710131889763774
21
-2.8764832283464568
0
LINE
8
BLACK
6
CONTINUOUS
10
7.0710131889763774
20
-2.8764832283464568
11
7.103749960629921
21
-2.9136158267716534
0
LINE
8
BLACK
6
CONTINUOUS
10
7.103749960629921
20
-2.9136158267716534
11
7.1353042125984247
21
-2.9517583858267717
0
LINE
8
BLACK
6
CONTINUOUS
10
7.1353042125984247
20
-2.9517583858267717
11
7.1656448031496058
21
-2.9908732283464565
0
LINE
8
BLACK
6
CONTINUOUS
10
7.1656448031496058
20
-2.9908732283464565
11
7.1947418110236221
21
-3.0309218503937005
0
LINE
8
BLACK
6
CONTINUOUS
10
7.1947418110236221
20
-3.0309218503937005
11
7.2225665354330708
21
-3.0718646456692911
0
LINE
8
BLACK
6
CONTINUOUS
10
7.2225665354330708
20
-3.0718646456692911
11
7.2490914566929137
21
-3.1136612204724408
0
LINE
8
BLACK
6
CONTINUOUS
10
7.2490914566929137
20
-3.1136612204724408
11
7.2742903937007872
21
-3.1562703543307085
0
LINE
8
BLACK
6
CONTINUOUS
10
7.2742903937007872
20
-3.1562703543307085
11
7.2981385433070862
21
-3.1996499606299214
0
LINE
8
BLACK
6
CONTINUOUS
10
7.2981385433070862
20
-3.1996499606299214
11
7.3206123622047246
21
-3.2437572834645669
0
LINE
8
BLACK
6
CONTINUOUS
10
7.3206123622047246
20
-3.2437572834645669
11
7.3416896062992123
21
-3.2885487401574802
0
LINE
8
BLACK
6
CONTINUOUS
10
7.3416896062992123
20
-3.2885487401574802
11
7.3613495275590548
21
-3.333980157480315
0
LINE
8
BLACK
6
CONTINUOUS
10
7.3613495275590548
20
-3.333980157480315
11
7.3795727165354332
21
-3.3800066535433069
0
LINE
8
BLACK
6
CONTINUOUS
10
7.3795727165354332
20
-3.3800066535433069
11
7.3963411811023621
21
-3.426582874015748
0
LINE
8
BLACK
6
CONTINUOUS
10
7.3963411811023621
20
-3.426582874015748
11
7.4116383858267714
21
-3.4736628346456691
0
LINE
8
BLACK
6
CONTINUOUS
10
7.4116383858267714
20
-3.4736628346456691
11
7.4254492519685034
21
-3.5212000393700786
0
LINE
8
BLACK
6
CONTINUOUS
10
7.4254492519685034
20
-3.5212000393700786
11
7.4377600787401574
21
-3.5691475984251966
0
LINE
8
BLACK
6
CONTINUOUS
10
7.4377600787401574
20
-3.5691475984251966
11
7.4485587795275592
21
-3.6174582283464565
0
LINE
8
BLACK
6
CONTINUOUS
10
7.4485587795275592
20
-3.6174582283464565
11
7.4578346850393702
21
-3.6660841732283465
0
LINE
8
BLACK
6
CONTINUOUS
10
7.4578346850393702
20
-3.6660841732283465
11
7.4655786220472438
21
-3.7149774803149604
0
LINE
8
BLACK
6
CONTINUOUS
10
7.4655786220472438
20
-3.7149774803149604
11
7.4717829527559054
21
-3.7640899212598424
0
LINE
8
BLACK
6
CONTINUOUS
10
7.4717829527559054
20
-3.7640899212598424
11
7.4764415748031494
21
-3.813373031496063
0
LINE
8
BLACK
6
CONTINUOUS
10
7.4764415748031494
20
-3.813373031496063
11
7.4795498818897634
21
-3.8627781102362202
0
LINE
8
BLACK
6
CONTINUOUS
10
7.4795498818897634
20
-3.8627781102362202
11
7.4811048031496057
21
-3.9122564960629922
0
LINE
8
BLACK
6
CONTINUOUS
10
7.4811048031496057
20
-3.9122564960629922
11
7.4811048031496057
21
-3.9617592519685036
0
LINE
8
BLACK
6
CONTINUOUS
10
7.4811048031496057
20
-3.9617592519685036
11
7.4795498818897634
21
-4.0112376377952756
0
LINE
8
BLACK
6
CONTINUOUS
10
7.4795498818897634
20
-4.0112376377952756
11
7.4764415748031494
21
-4.0606427165354333
0
LINE
8
BLACK
6
CONTINUOUS
10
7.4764415748031494
20
-4.0606427165354333
11
7.4717829527559054
21
-4.1099258267716534
0
LINE
8
BLACK
6
CONTINUOUS
10
7.4717829527559054
20
-4.1099258267716534
11
7.4655786220472438
21
-4.159038267716535
0
LINE
8
BLACK
6
CONTINUOUS
10
7.4655786220472438
20
-4.159038267716535
11
7.4578346850393702
21
-4.2079315748031494
0
LINE
8
BLACK
6
CONTINUOUS
10
7.4578346850393702
20
-4.2079315748031494
11
7.4485587795275592
21
-4.2565575196850389
0
LINE
8
BLACK
6
CONTINUOUS
10
7.4485587795275592
20
-4.2565575196850389
11
7.4377600787401574
21
-4.3048681496062988
0
LINE
8
BLACK
6
CONTINUOUS
10
7.4377600787401574
20
-4.3048681496062988
11
7.4254492519685034
21
-4.3528157086614172
0
LINE
8
BLACK
6
CONTINUOUS
10
7.4254492519685034
20
-4.3528157086614172
11
7.4116383858267714
21
-4.4003529133858263
0
LINE
8
BLACK
6
CONTINUOUS
10
7.4116383858267714
20
-4.4003529133858263
11
7.3963411811023621
21
-4.4474328740157478
0
LINE
8
BLACK
6
CONTINUOUS
10
7.3963411811023621
20
-4.4474328740157478
11
7.3795727165354332
21
-4.494009094488189
0
LINE
8
BLACK
6
CONTINUOUS
10
7.3795727165354332
20
-4.494009094488189
11
7.3613495275590548
21
-4.5400355905511809
0
LINE
8
BLACK
6
CONTINUOUS
10
7.3613495275590548
20
-4.5400355905511809
11
7.3416896062992123
21
-4.5854670078740156
0
LINE
8
BLACK
6
CONTINUOUS
10
7.3416896062992123
20
-4.5854670078740156
11
7.3206123622047246
21
-4.6302584645669294
0
LINE
8
BLACK
6
CONTINUOUS
10
7.3206123622047246
20
-4.6302584645669294
11
7.2981385433070862
21
-4.6743657874015749
0
LINE
8
BLACK
6
CONTINUOUS
10
7.2981385433070862
20
-4.6743657874015749
11
7.2742903937007872
21
-4.7177453937007874
0
LINE
8
BLACK
6
CONTINUOUS
10
7.2742903937007872
20
-4.7177453937007874
11
7.2490914566929137
21
-4.7603545275590546
0
LINE
8
BLACK
6
CONTINUOUS
10
7.2490914566929137
20
-4.7603545275590546
11
7.2225665354330708
21
-4.8021511023622043
0
LINE
8
BLACK
6
CONTINUOUS
10
7.2225665354330708
20
-4.8021511023622043
11
7.1947418110236221
21
-4.8430938976377949
0
LINE
8
BLACK
6
CONTINUOUS
10
7.1947418110236221
20
-4.8430938976377949
11
7.1656448031496058
21
-4.8831425196850393
0
LINE
8
BLACK
6
CONTINUOUS
10
7.1656448031496058
20
-4.8831425196850393
11
7.1353042125984247
21
-4.9222573622047241
0
LINE
8
BLACK
6
CONTINUOUS
10
7.1353042125984247
20
-4.9222573622047241
11
7.103749960629921
21
-4.9603999212598424
0
LINE
8
BLACK
6
CONTINUOUS
10
7.103749960629921
20
-4.9603999212598424
11
7.0710131889763774
21
-4.9975325196850395
0
LINE
8
BLACK
6
CONTINUOUS
10
7.0710131889763774
20
-4.9975325196850395
11
7.0371261811023622
21
-5.0336185039370074
0
LINE
8
BLACK
6
CONTINUOUS
10
7.0371261811023622
20
-5.0336185039370074
11
7.0021224409448815
21
-5.0686222440944881
0
LINE
8
BLACK
6
CONTINUOUS
10
7.0021224409448815
20
-5.0686222440944881
11
6.9660364566929136
21
-5.1025092519685042
0
LINE
8
BLACK
6
CONTINUOUS
10
6.9660364566929136
20
-5.1025092519685042
11
6.9289038582677165
21
-5.135246023622047
0
LINE
8
BLACK
6
CONTINUOUS
10
6.9289038582677165
20
-5.135246023622047
11
6.8907612992125982
21
-5.1668002755905507
0
LINE
8
BLACK
6
CONTINUOUS
10
6.8907612992125982
20
-5.1668002755905507
11
6.8516464566929134
21
-5.1971408661417318
0
LINE
8
BLACK
6
CONTINUOUS
10
6.8516464566929134
20
-5.1971408661417318
11
6.8115978346456689
21
-5.226237874015748
0
LINE
8
BLACK
6
CONTINUOUS
10
6.8115978346456689
20
-5.226237874015748
11
6.7706550393700784
21
-5.2540625984251967
0
LINE
8
BLACK
6
CONTINUOUS
10
6.7706550393700784
20
-5.2540625984251967
11
6.7288584645669287
21
-5.2805875196850396
0
LINE
8
BLACK
6
CONTINUOUS
10
6.7288584645669287
20
-5.2805875196850396
11
6.6862493307086615
21
-5.3057864566929132
0
LINE
8
BLACK
6
CONTINUOUS
10
6.6862493307086615
20
-5.3057864566929132
11
6.642869724409449
21
-5.3296346062992122
0
LINE
8
BLACK
6
CONTINUOUS
10
6.642869724409449
20
-5.3296346062992122
11
6.5987624015748034
21
-5.3521084251968505
0
LINE
8
BLACK
6
CONTINUOUS
10
6.5987624015748034
20
-5.3521084251968505
11
6.5539709448818897
21
-5.3731856692913382
0
LINE
8
BLACK
6
CONTINUOUS
10
6.5539709448818897
20
-5.3731856692913382
11
6.508539527559055
21
-5.3928455905511807
0
LINE
8
BLACK
6
CONTINUOUS
10
6.508539527559055
20
-5.3928455905511807
11
6.462513031496063
21
-5.4110687795275592
0
LINE
8
BLACK
6
CONTINUOUS
10
6.462513031496063
20
-5.4110687795275592
11
6.4159368110236219
21
-5.427837244094488
0
LINE
8
BLACK
6
CONTINUOUS
10
6.4159368110236219
20
-5.427837244094488
11
6.3688568503937004
21
-5.4431344488188973
0
LINE
8
BLACK
6
CONTINUOUS
10
6.3688568503937004
20
-5.4431344488188973
11
6.3213196456692913
21
-5.4569453149606302
0
LINE
8
BLACK
6
CONTINUOUS
10
6.3213196456692913
20
-5.4569453149606302
11
6.2733720866141729
21
-5.4692561417322834
0
LINE
8
BLACK
6
CONTINUOUS
10
6.2733720866141729
20
-5.4692561417322834
11
6.225061456692913
21
-5.4800548425196851
0
LINE
8
BLACK
6
CONTINUOUS
10
6.225061456692913
20
-5.4800548425196851
11
6.1764355118110235
21
-5.4893307480314961
0
LINE
8
BLACK
6
CONTINUOUS
10
6.1764355118110235
20
-5.4893307480314961
11
6.127542204724409
21
-5.4970746850393697
0
LINE
8
BLACK
6
CONTINUOUS
10
6.127542204724409
20
-5.4970746850393697
11
6.0784297637795275
21
-5.5032790157480314
0
LINE
8
BLACK
6
CONTINUOUS
10
6.0784297637795275
20
-5.5032790157480314
11
6.0291466535433074
21
-5.5079376377952753
0
LINE
8
BLACK
6
CONTINUOUS
10
6.0291466535433074
20
-5.5079376377952753
11
5.9797415748031497
21
-5.5110459448818894
0
LINE
8
BLACK
6
CONTINUOUS
10
5.9797415748031497
20
-5.5110459448818894
11
5.9302631889763777
21
-5.5126008661417325
0
LINE
8
BLACK
6
CONTINUOUS
10
5.9302631889763777
20
-5.5126008661417325
11
5.8807604330708658
21
-5.5126008661417325
0
LINE
8
BLACK
6
CONTINUOUS
10
5.8807604330708658
20
-5.5126008661417325
11
5.8312820472440947
21
-5.5110459448818894
0
LINE
8
BLACK
6
CONTINUOUS
10
5.8312820472440947
20
-5.5110459448818894
11
5.7818769685039371
21
-5.5079376377952753
0
LINE
8
BLACK
6
CONTINUOUS
10
5.7818769685039371
20
-5.5079376377952753
11
5.7325938582677161
21
-5.5032790157480314
0
LINE
8
BLACK
6
CONTINUOUS
10
5.7325938582677161
20
-5.5032790157480314
11
5.6834814173228345
21
-5.4970746850393697
0
LINE
8
BLACK
6
CONTINUOUS
10
5.6834814173228345
20
-5.4970746850393697
11
5.6345881102362201
21
-5.4893307480314961
0
LINE
8
BLACK
6
CONTINUOUS
10
5.6345881102362201
20
-5.4893307480314961
11
5.5859621653543305
21
-5.4800548425196851
0
LINE
8
BLACK
6
CONTINUOUS
10
5.5859621653543305
20
-5.4800548425196851
11
5.5376515354330706
21
-5.4692561417322834
0
LINE
8
BLACK
6
CONTINUOUS
10
5.5376515354330706
20
-5.4692561417322834
11
5.4897039763779523
21
-5.4569453149606302
0
LINE
8
BLACK
6
CONTINUOUS
10
5.4897039763779523
20
-5.4569453149606302
11
5.4421667716535431
21
-5.4431344488188973
0
LINE
8
BLACK
6
CONTINUOUS
10
5.4421667716535431
20
-5.4431344488188973
11
5.3950868110236216
21
-5.427837244094488
0
LINE
8
BLACK
6
CONTINUOUS
10
5.3950868110236216
20
-5.427837244094488
11
5.3485105905511814
21
-5.4110687795275592
0
LINE
8
BLACK
6
CONTINUOUS
10
5.3485105905511814
20
-5.4110687795275592
11
5.3024840944881886
21
-5.3928455905511807
0
LINE
8
BLACK
6
CONTINUOUS
10
5.3024840944881886
20
-5.3928455905511807
11
5.2570526771653538
21
-5.3731856692913382
0
LINE
8
BLACK
6
CONTINUOUS
10
5.2570526771653538
20
-5.3731856692913382
11
5.212261220472441
21
-5.3521084251968505
0
LINE
8
BLACK
6
CONTINUOUS
10
5.212261220472441
20
-5.3521084251968505
11
5.1681538976377954
21
-5.3296346062992122
0
LINE
8
BLACK
6
CONTINUOUS
10
5.1681538976377954
20
-5.3296346062992122
11
5.124774291338583
21
-5.3057864566929132
0
LINE
8
BLACK
6
CONTINUOUS
10
5.124774291338583
20
-5.3057864566929132
11
5.0821651574803148
21
-5.2805875196850396
0
LINE
8
BLACK
6
CONTINUOUS
10
5.0821651574803148
20
-5.2805875196850396
11
5.0403685826771651
21
-5.2540625984251967
0
LINE
8
BLACK
6
CONTINUOUS
10
5.0403685826771651
20
-5.2540625984251967
11
4.9994257874015746
21
-5.226237874015748
0
LINE
8
BLACK
6
CONTINUOUS
10
4.9994257874015746
20
-5.226237874015748
11
4.9593771653543302
21
-5.1971408661417318
0
LINE
8
BLACK
6
CONTINUOUS
10
4.9593771653543302
20
-5.1971408661417318
11
4.9202623228346454
21
-5.1668002755905507
0
LINE
8
BLACK
6
CONTINUOUS
10
4.9202623228346454
20
-5.1668002755905507
11
4.8821197637795271
21
-5.135246023622047
0
LINE
8
BLACK
6
CONTINUOUS
10
4.8821197637795271
20
-5.135246023622047
11
4.8449871653543308
21
-5.1025092519685042
0
LINE
8
BLACK
6
CONTINUOUS
10
4.8449871653543308
20
-5.1025092519685042
11
4.8089011811023621
21
-5.0686222440944881
0
LINE
8
BLACK
6
CONTINUOUS
10
4.8089011811023621
20
-5.0686222440944881
11
4.7738974409448822
21
-5.0336185039370074
0
LINE
8
BLACK
6
CONTINUOUS
10
4.7738974409448822
20
-5.0336185039370074
11
4.7400104330708661
21
-4.9975325196850395
0
LINE
8
BLACK
6
CONTINUOUS
10
4.7400104330708661
20
-4.9975325196850395
11
4.7072736614173225
21
-4.9603999212598424
0
LINE
8
BLACK
6
CONTINUOUS
10
4.7072736614173225
20
-4.9603999212598424
11
4.6757194094488188
21
-4.9222573622047241
0
LINE
8
BLACK
6
CONTINUOUS
10
4.6757194094488188
20
-4.9222573622047241
11
4.6453788188976377
21
-4.8831425196850393
0
LINE
8
BLACK
6
CONTINUOUS
10
4.6453788188976377
20
-4.8831425196850393
11
4.6162818110236223
21
-4.8430938976377949
0
LINE
8
BLACK
6
CONTINUOUS
10
4.6162818110236223
20
-4.8430938976377949
11
4.5884570866141727
21
-4.8021511023622043
0
LINE
8
BLACK
6
CONTINUOUS
10
4.5884570866141727
20
-4.8021511023622043
11
4.5619321653543308
21
-4.7603545275590546
0
LINE
8
BLACK
6
CONTINUOUS
10
4.5619321653543308
20
-4.7603545275590546
11
4.5367332283464563
21
-4.7177453937007874
0
LINE
8
BLACK
6
CONTINUOUS
10
4.5367332283464563
20
-4.7177453937007874
11
4.5128850787401573
21
-4.6743657874015749
0
LINE
8
BLACK
6
CONTINUOUS
10
4.5128850787401573
20
-4.6743657874015749
11
4.4904112598425199
21
-4.6302584645669294
0
LINE
8
BLACK
6
CONTINUOUS
10
4.4904112598425199
20
-4.6302584645669294
11
4.4693340157480312
21
-4.5854670078740156
0
LINE
8
BLACK
6
CONTINUOUS
10
4.4693340157480312
20
-4.5854670078740156
11
4.4496740944881887
21
-4.5400355905511809
0
LINE
8
BLACK
6
CONTINUOUS
10
4.4496740944881887
20
-4.5400355905511809
11
4.4314509055118112
21
-4.494009094488189
0
LINE
8
BLACK
6
CONTINUOUS
10
4.4314509055118112
20
-4.494009094488189
11
4.4146824409448815
21
-4.4474328740157478
0
LINE
8
BLACK
6
CONTINUOUS
10
4.4146824409448815
20
-4.4474328740157478
11
4.3993852362204722
21
-4.4003529133858263
0
LINE
8
BLACK
6
CONTINUOUS
10
4.3993852362204722
20
-4.4003529133858263
11
4.3855743700787402
21
-4.3528157086614172
0
LINE
8
BLACK
6
CONTINUOUS
10
4.3855743700787402
20
-4.3528157086614172
11
4.3732635433070861
21
-4.3048681496062988
0
LINE
8
BLACK
6
CONTINUOUS
10
4.3732635433070861
20
-4.3048681496062988
11
4.3624648425196852
21
-4.2565575196850389
0
LINE
8
BLACK
6
CONTINUOUS
10
4.3624648425196852
20
-4.2565575196850389
11
4.3531889370078742
21
-4.2079315748031494
0
LINE
8
BLACK
6
CONTINUOUS
10
4.3531889370078742
20
-4.2079315748031494
11
4.3454449999999998
21
-4.159038267716535
0
LINE
8
BLACK
6
CONTINUOUS
10
4.3454449999999998
20
-4.159038267716535
11
4.3392406692913381
21
-4.1099258267716534
0
LINE
8
BLACK
6
CONTINUOUS
10
4.3392406692913381
20
-4.1099258267716534
11
4.3345820472440941
21
-4.0606427165354333
0
LINE
8
BLACK
6
CONTINUOUS
10
4.3345820472440941
20
-4.0606427165354333
11
4.3314737401574801
21
-4.0112376377952756
0
LINE
8
BLACK
6
CONTINUOUS
10
4.3314737401574801
20
-4.0112376377952756
11
4.3299188188976379
21
-3.9617592519685036
0
LINE
8
BLACK
6
CONTINUOUS
10
4.3299188188976379
20
-3.9617592519685036
11
4.3299188188976379
21
-3.9122843700787402
0
LINE
8
BLACK
6
CONTINUOUS
10
4.3299188188976379
20
-3.9122843700787402
11
4.3299188188976379
21
-3.9122564960629922
0
LINE
8
BLACK
6
CONTINUOUS
10
4.3299188188976379
20
-3.9122564960629922
11
4.3314737401574801
21
-3.8627781102362202
0
LINE
8
BLACK
6
CONTINUOUS
10
4.3314737401574801
20
-3.8627781102362202
11
4.3345820472440941
21
-3.813373031496063
0
LINE
8
BLACK
6
CONTINUOUS
10
4.3345820472440941
20
-3.813373031496063
11
4.3392406692913381
21
-3.7640899212598424
0
LINE
8
BLACK
6
CONTINUOUS
10
4.3392406692913381
20
-3.7640899212598424
11
4.3454449999999998
21
-3.7149774803149604
0
LINE
8
BLACK
6
CONTINUOUS
10
4.3454449999999998
20
-3.7149774803149604
11
4.3531889370078742
21
-3.6660841732283465
0
LINE
8
BLACK
6
CONTINUOUS
10
4.3531889370078742
20
-3.6660841732283465
11
4.3624648425196852
21
-3.6174582283464565
0
LINE
8
BLACK
6
CONTINUOUS
10
4.3624648425196852
20
-3.6174582283464565
11
4.3732635433070861
21
-3.5691475984251966
0
LINE
8
BLACK
6
CONTINUOUS
10
4.3732635433070861
20
-3.5691475984251966
11
4.3855743700787402
21
-3.5212000393700786
0
LINE
8
BLACK
6
CONTINUOUS
10
4.3855743700787402
20
-3.5212000393700786
11
4.3993852362204722
21
-3.4736628346456691
0
LINE
8
BLACK
6
CONTINUOUS
10
4.3993852362204722
20
-3.4736628346456691
11
4.4146824409448815
21
-3.426582874015748
0
LINE
8
BLACK
6
CONTINUOUS
10
4.4146824409448815
20
-3.426582874015748
11
4.4314509055118112
21
-3.3800066535433069
0
LINE
8
BLACK
6
CONTINUOUS
10
4.4314509055118112
20
-3.3800066535433069
11
4.4496740944881887
21
-3.333980157480315
0
LINE
8
BLACK
6
CONTINUOUS
10
4.4496740944881887
20
-3.333980157480315
11
4.4693340157480312
21
-3.2885487401574802
0
LINE
8
BLACK
6
CONTINUOUS
10
4.4693340157480312
20
-3.2885487401574802
11
4.4904112598425199
21
-3.2437572834645669
0
LINE
8
BLACK
6
CONTINUOUS
10
4.4904112598425199
20
-3.2437572834645669
11
4.5128850787401573
21
-3.1996499606299214
0
LINE
8
BLACK
6
CONTINUOUS
10
4.5128850787401573
20
-3.1996499606299214
11
4.5367332283464563
21
-3.1562703543307085
0
LINE
8
BLACK
6
CONTINUOUS
10
4.5367332283464563
20
-3.1562703543307085
11
4.5619321653543308
21
-3.1136612204724408
0
LINE
8
BLACK
6
CONTINUOUS
10
4.5619321653543308
20
-3.1136612204724408
11
4.5884570866141727
21
-3.0718646456692911
0
LINE
8
BLACK
6
CONTINUOUS
10
4.5884570866141727
20
-3.0718646456692911
11
4.6162818110236223
21
-3.0309218503937005
0
LINE
8
BLACK
6
CONTINUOUS
10
4.6162818110236223
20
-3.0309218503937005
11
4.6453788188976377
21
-2.9908732283464565
0
LINE
8
BLACK
6
CONTINUOUS
10
4.6453788188976377
20
-2.9908732283464565
11
4.6757194094488188
21
-2.9517583858267717
0
LINE
8
BLACK
6
CONTINUOUS
10
4.6757194094488188
20
-2.9517583858267717
11
4.7072736614173225
21
-2.9136158267716534
0
LINE
8
BLACK
6
CONTINUOUS
10
4.7072736614173225
20
-2.9136158267716534
11
4.7400104330708661
21
-2.8764832283464568
0
LINE
8
BLACK
6
CONTINUOUS
10
4.7400104330708661
20
-2.8764832283464568
11
4.7738974409448822
21
-2.840397244094488
0
LINE
8
BLACK
6
CONTINUOUS
10
4.7738974409448822
20
-2.840397244094488
11
4.8089011811023621
21
-2.8053935039370077
0
LINE
8
BLACK
6
CONTINUOUS
10
4.8089011811023621
20
-2.8053935039370077
11
4.8449871653543308
21
-2.771506496062992
0
LINE
8
BLACK
6
CONTINUOUS
10
4.8449871653543308
20
-2.771506496062992
11
4.8821197637795271
21
-2.7387697244094489
0
LINE
8
BLACK
6
CONTINUOUS
10
4.8821197637795271
20
-2.7387697244094489
11
4.9202623228346454
21
-2.7072154724409447
0
LINE
8
BLACK
6
CONTINUOUS
10
4.9202623228346454
20
-2.7072154724409447
11
4.9593771653543302
21
-2.6768748818897636
0
LINE
8
BLACK
6
CONTINUOUS
10
4.9593771653543302
20
-2.6768748818897636
11
4.9994257874015746
21
-2.6477778740157478
0
LINE
8
BLACK
6
CONTINUOUS
10
4.9994257874015746
20
-2.6477778740157478
11
5.0403685826771651
21
-2.6199531496062991
0
LINE
8
BLACK
6
CONTINUOUS
10
5.0403685826771651
20
-2.6199531496062991
11
5.0821651574803148
21
-2.5934282283464567
0
LINE
8
BLACK
6
CONTINUOUS
10
5.0821651574803148
20
-2.5934282283464567
11
5.124774291338583
21
-2.5682292913385827
0
LINE
8
BLACK
6
CONTINUOUS
10
5.124774291338583
20
-2.5682292913385827
11
5.1681538976377954
21
-2.5443811417322832
0
LINE
8
BLACK
6
CONTINUOUS
10
5.1681538976377954
20
-2.5443811417322832
11
5.212261220472441
21
-2.5219073228346458
0
LINE
8
BLACK
6
CONTINUOUS
10
5.212261220472441
20
-2.5219073228346458
11
5.2570526771653538
21
-2.5008300787401576
0
LINE
8
BLACK
6
CONTINUOUS
10
5.2570526771653538
20
-2.5008300787401576
11
5.3024840944881886
21
-2.4811701574803151
0
LINE
8
BLACK
6
CONTINUOUS
10
5.3024840944881886
20
-2.4811701574803151
11
5.3485105905511814
21
-2.4629469685039371
0
LINE
8
BLACK
6
CONTINUOUS
10
5.3485105905511814
20
-2.4629469685039371
11
5.3950868110236216
21
-2.4461785039370079
0
LINE
8
BLACK
6
CONTINUOUS
10
5.3950868110236216
20
-2.4461785039370079
11
5.4421667716535431
21
-2.4308812992125985
0
LINE
8
BLACK
6
CONTINUOUS
10
5.4421667716535431
20
-2.4308812992125985
11
5.4897039763779523
21
-2.4170704330708661
0
LINE
8
BLACK
6
CONTINUOUS
10
5.4897039763779523
20
-2.4170704330708661
11
5.5376515354330706
21
-2.4047596062992125
0
LINE
8
BLACK
6
CONTINUOUS
10
5.5376515354330706
20
-2.4047596062992125
11
5.5859621653543305
21
-2.3939609055118112
0
LINE
8
BLACK
6
CONTINUOUS
10
5.5859621653543305
20
-2.3939609055118112
11
5.6345881102362201
21
-2.3846850000000002
0
LINE
8
BLACK
6
CONTINUOUS
10
5.6345881102362201
20
-2.3846850000000002
11
5.6834814173228345
21
-2.3769410629921257
0
LINE
8
BLACK
6
CONTINUOUS
10
5.6834814173228345
20
-2.3769410629921257
11
5.7325938582677161
21
-2.3707367322834645
0
LINE
8
BLACK
6
CONTINUOUS
10
5.7325938582677161
20
-2.3707367322834645
11
5.7818769685039371
21
-2.3660781102362205
0
LINE
8
BLACK
6
CONTINUOUS
10
5.7818769685039371
20
-2.3660781102362205
11
5.8312820472440947
21
-2.362969803149606
0
LINE
8
BLACK
6
CONTINUOUS
10
5.8312820472440947
20
-2.362969803149606
11
5.8807604330708658
21
-2.3614148818897638
0
LINE
8
BLACK
6
CONTINUOUS
10
5.8807604330708658
20
-2.3614148818897638
11
5.9302631889763777
21
-2.3614148818897638
0
LINE
8
BLACK
6
CONTINUOUS
10
5.9302631889763777
20
-2.3614148818897638
11
5.9797415748031497
21
-2.362969803149606
0
LINE
8
BLACK
6
CONTINUOUS
10
4.3316929133858268
20
-3.9617313779527557
11
4.3332461023622049
21
-4.0111540551181104
0
LINE
8
BLACK
6
CONTINUOUS
10
4.3332461023622049
20
-4.0111540551181104
11
4.3363509055118108
21
-4.0605035039370074
0
LINE
8
BLACK
6
CONTINUOUS
10
4.3363509055118108
20
-4.0605035039370074
11
4.3410042913385825
21
-4.109731102362205
0
LINE
8
BLACK
6
CONTINUOUS
10
4.3410042913385825
20
-4.109731102362205
11
4.3472016141732279
21
-4.1587882677165355
0
LINE
8
BLACK
6
CONTINUOUS
10
4.3472016141732279
20
-4.1587882677165355
11
4.3549368503937007
21
-4.2076265354330706
0
LINE
8
BLACK
6
CONTINUOUS
10
4.3549368503937007
20
-4.2076265354330706
11
4.3642023228346458
21
-4.256197716535433
0
LINE
8
BLACK
6
CONTINUOUS
10
4.3642023228346458
20
-4.256197716535433
11
4.3749888582677166
21
-4.3044539370078736
0
LINE
8
BLACK
6
CONTINUOUS
10
4.3749888582677166
20
-4.3044539370078736
11
4.3872858267716532
21
-4.352347519685039
0
LINE
8
BLACK
6
CONTINUOUS
10
4.3872858267716532
20
-4.352347519685039
11
4.4010811023622045
21
-4.3998311811023623
0
LINE
8
BLACK
6
CONTINUOUS
10
4.4010811023622045
20
-4.3998311811023623
11
4.4163611023622042
21
-4.4468581102362208
0
LINE
8
BLACK
6
CONTINUOUS
10
4.4163611023622042
20
-4.4468581102362208
11
4.4331106692913389
21
-4.4933818897637794
0
LINE
8
BLACK
6
CONTINUOUS
10
4.4331106692913389
20
-4.4933818897637794
11
4.4513133464566925
21
-4.5393566141732284
0
LINE
8
BLACK
6
CONTINUOUS
10
4.4513133464566925
20
-4.5393566141732284
11
4.4709511417322831
21
-4.5847368503937007
0
LINE
8
BLACK
6
CONTINUOUS
10
4.4709511417322831
20
-4.5847368503937007
11
4.4920046850393698
21
-4.6294778740157483
0
LINE
8
BLACK
6
CONTINUOUS
10
4.4920046850393698
20
-4.6294778740157483
11
4.5144531496062994
21
-4.6735355118110231
0
LINE
8
BLACK
6
CONTINUOUS
10
4.5144531496062994
20
-4.6735355118110231
11
4.538274448818898
21
-4.7168662992125983
0
LINE
8
BLACK
6
CONTINUOUS
10
4.538274448818898
20
-4.7168662992125983
11
4.5634450393700785
21
-4.759427440944882
0
LINE
8
BLACK
6
CONTINUOUS
10
4.5634450393700785
20
-4.759427440944882
11
4.5899401181102357
21
-4.8011769685039365
0
LINE
8
BLACK
6
CONTINUOUS
10
4.5899401181102357
20
-4.8011769685039365
11
4.6177334645669292
21
-4.8420736614173228
0
LINE
8
BLACK
6
CONTINUOUS
10
4.6177334645669292
20
-4.8420736614173228
11
4.6467977165354331
21
-4.8820771653543309
0
LINE
8
BLACK
6
CONTINUOUS
10
4.6467977165354331
20
-4.8820771653543309
11
4.6771041338582675
21
-4.9211479921259844
0
LINE
8
BLACK
6
CONTINUOUS
10
4.6771041338582675
20
-4.9211479921259844
11
4.7086228740157479
21
-4.9592475984251969
0
LINE
8
BLACK
6
CONTINUOUS
10
4.7086228740157479
20
-4.9592475984251969
11
4.7413227952755905
21
-4.9963383858267711
0
LINE
8
BLACK
6
CONTINUOUS
10
4.7413227952755905
20
-4.9963383858267711
11
4.7751716141732281
21
-5.0323837007874017
0
LINE
8
BLACK
6
CONTINUOUS
10
4.7751716141732281
20
-5.0323837007874017
11
4.8101359842519686
21
-5.0673480708661414
0
LINE
8
BLACK
6
CONTINUOUS
10
4.8101359842519686
20
-5.0673480708661414
11
4.8461812992125983
21
-5.1011968897637798
0
LINE
8
BLACK
6
CONTINUOUS
10
4.8461812992125983
20
-5.1011968897637798
11
4.8832720866141734
21
-5.1338968110236216
0
LINE
8
BLACK
6
CONTINUOUS
10
4.8832720866141734
20
-5.1338968110236216
11
4.9213716929133859
21
-5.165415551181102
0
LINE
8
BLACK
6
CONTINUOUS
10
4.9213716929133859
20
-5.165415551181102
11
4.9604425196850395
21
-5.1957219685039373
0
LINE
8
BLACK
6
CONTINUOUS
10
4.9604425196850395
20
-5.1957219685039373
11
5.0004460236220467
21
-5.2247862204724411
0
LINE
8
BLACK
6
CONTINUOUS
10
5.0004460236220467
20
-5.2247862204724411
11
5.041342716535433
21
-5.2525795669291337
0
LINE
8
BLACK
6
CONTINUOUS
10
5.041342716535433
20
-5.2525795669291337
11
5.0830922440944883
21
-5.279074645669291
0
LINE
8
BLACK
6
CONTINUOUS
10
5.0830922440944883
20
-5.279074645669291
11
5.1256533858267712
21
-5.3042452362204724
0
LINE
8
BLACK
6
CONTINUOUS
10
5.1256533858267712
20
-5.3042452362204724
11
5.1689841732283464
21
-5.328066535433071
0
LINE
8
BLACK
6
CONTINUOUS
10
5.1689841732283464
20
-5.328066535433071
11
5.2130418110236221
21
-5.3505149999999997
0
LINE
8
BLACK
6
CONTINUOUS
10
5.2130418110236221
20
-5.3505149999999997
11
5.2577828346456688
21
-5.3715685433070863
0
LINE
8
BLACK
6
CONTINUOUS
10
5.2577828346456688
20
-5.3715685433070863
11
5.3031630708661419
21
-5.3912063385826769
0
LINE
8
BLACK
6
CONTINUOUS
10
5.3031630708661419
20
-5.3912063385826769
11
5.3491377952755901
21
-5.4094090157480315
0
LINE
8
BLACK
6
CONTINUOUS
10
5.3491377952755901
20
-5.4094090157480315
11
5.3956615748031496
21
-5.4261585826771652
0
LINE
8
BLACK
6
CONTINUOUS
10
5.3956615748031496
20
-5.4261585826771652
11
5.4426885039370081
21
-5.441438582677165
0
LINE
8
BLACK
6
CONTINUOUS
10
5.4426885039370081
20
-5.441438582677165
11
5.4901721653543305
21
-5.4552338582677162
0
LINE
8
BLACK
6
CONTINUOUS
10
5.4901721653543305
20
-5.4552338582677162
11
5.5380657480314959
21
-5.4675308267716538
0
LINE
8
BLACK
6
CONTINUOUS
10
5.5380657480314959
20
-5.4675308267716538
11
5.5863219685039365
21
-5.4783173622047245
0
LINE
8
BLACK
6
CONTINUOUS
10
5.5863219685039365
20
-5.4783173622047245
11
5.6348931496062988
21
-5.4875828346456688
0
LINE
8
BLACK
6
CONTINUOUS
10
5.6348931496062988
20
-5.4875828346456688
11
5.6837314173228348
21
-5.4953180708661415
0
LINE
8
BLACK
6
CONTINUOUS
10
5.6837314173228348
20
-5.4953180708661415
11
5.7327885826771654
21
-5.501515393700787
0
LINE
8
BLACK
6
CONTINUOUS
10
5.7327885826771654
20
-5.501515393700787
11
5.782016181102362
21
-5.5061687795275587
0
LINE
8
BLACK
6
CONTINUOUS
10
5.782016181102362
20
-5.5061687795275587
11
5.83136562992126
21
-5.5092735826771655
0
LINE
8
BLACK
6
CONTINUOUS
10
5.83136562992126
20
-5.5092735826771655
11
5.8807883070866138
21
-5.5108267716535435
0
LINE
8
BLACK
6
CONTINUOUS
10
5.8807883070866138
20
-5.5108267716535435
11
5.9302353149606297
21
-5.5108267716535435
0
LINE
8
BLACK
6
CONTINUOUS
10
5.9302353149606297
20
-5.5108267716535435
11
5.9796579921259845
21
-5.5092735826771655
0
LINE
8
BLACK
6
CONTINUOUS
10
5.9796579921259845
20
-5.5092735826771655
11
6.0290074409448815
21
-5.5061687795275587
0
LINE
8
BLACK
6
CONTINUOUS
10
6.0290074409448815
20
-5.5061687795275587
11
6.078235039370079
21
-5.501515393700787
0
LINE
8
BLACK
6
CONTINUOUS
10
6.078235039370079
20
-5.501515393700787
11
6.1272922047244096
21
-5.4953180708661415
0
LINE
8
BLACK
6
CONTINUOUS
10
6.1272922047244096
20
-5.4953180708661415
11
6.1761304724409447
21
-5.4875828346456688
0
LINE
8
BLACK
6
CONTINUOUS
10
6.1761304724409447
20
-5.4875828346456688
11
6.2247016535433071
21
-5.4783173622047245
0
LINE
8
BLACK
6
CONTINUOUS
10
6.2247016535433071
20
-5.4783173622047245
11
6.2729578740157477
21
-5.4675308267716538
0
LINE
8
BLACK
6
CONTINUOUS
10
6.2729578740157477
20
-5.4675308267716538
11
6.320851456692913
21
-5.4552338582677162
0
LINE
8
BLACK
6
CONTINUOUS
10
6.320851456692913
20
-5.4552338582677162
11
6.3683351181102363
21
-5.441438582677165
0
LINE
8
BLACK
6
CONTINUOUS
10
6.3683351181102363
20
-5.441438582677165
11
6.415362047244094
21
-5.4261585826771652
0
LINE
8
BLACK
6
CONTINUOUS
10
6.415362047244094
20
-5.4261585826771652
11
6.4618858267716535
21
-5.4094090157480315
0
LINE
8
BLACK
6
CONTINUOUS
10
6.4618858267716535
20
-5.4094090157480315
11
6.5078605511811025
21
-5.3912063385826769
0
LINE
8
BLACK
6
CONTINUOUS
10
6.5078605511811025
20
-5.3912063385826769
11
6.5532407874015748
21
-5.3715685433070863
0
LINE
8
BLACK
6
CONTINUOUS
10
6.5532407874015748
20
-5.3715685433070863
11
6.5979818110236215
21
-5.3505149999999997
0
LINE
8
BLACK
6
CONTINUOUS
10
6.5979818110236215
20
-5.3505149999999997
11
6.6420394488188972
21
-5.328066535433071
0
LINE
8
BLACK
6
CONTINUOUS
10
6.6420394488188972
20
-5.328066535433071
11
6.6853702362204723
21
-5.3042452362204724
0
LINE
8
BLACK
6
CONTINUOUS
10
6.6853702362204723
20
-5.3042452362204724
11
6.7279313779527561
21
-5.279074645669291
0
LINE
8
BLACK
6
CONTINUOUS
10
6.7279313779527561
20
-5.279074645669291
11
6.7696809055118106
21
-5.2525795669291337
0
LINE
8
BLACK
6
CONTINUOUS
10
6.7696809055118106
20
-5.2525795669291337
11
6.8105775984251968
21
-5.2247862204724411
0
LINE
8
BLACK
6
CONTINUOUS
10
6.8105775984251968
20
-5.2247862204724411
11
6.850581102362205
21
-5.1957219685039373
0
LINE
8
BLACK
6
CONTINUOUS
10
6.850581102362205
20
-5.1957219685039373
11
6.8896519291338585
21
-5.165415551181102
0
LINE
8
BLACK
6
CONTINUOUS
10
6.8896519291338585
20
-5.165415551181102
11
6.927751535433071
21
-5.1338968110236216
0
LINE
8
BLACK
6
CONTINUOUS
10
6.927751535433071
20
-5.1338968110236216
11
6.9648423228346452
21
-5.1011968897637798
0
LINE
8
BLACK
6
CONTINUOUS
10
6.9648423228346452
20
-5.1011968897637798
11
7.0008876377952758
21
-5.0673480708661414
0
LINE
8
BLACK
6
CONTINUOUS
10
7.0008876377952758
20
-5.0673480708661414
11
7.0358520078740154
21
-5.0323837007874017
0
LINE
8
BLACK
6
CONTINUOUS
10
7.0358520078740154
20
-5.0323837007874017
11
7.069700826771653
21
-4.9963383858267711
0
LINE
8
BLACK
6
CONTINUOUS
10
7.069700826771653
20
-4.9963383858267711
11
7.1024007480314957
21
-4.9592475984251969
0
LINE
8
BLACK
6
CONTINUOUS
10
7.1024007480314957
20
-4.9592475984251969
11
7.133919488188976
21
-4.9211479921259844
0
LINE
8
BLACK
6
CONTINUOUS
10
7.133919488188976
20
-4.9211479921259844
11
7.1642259055118105
21
-4.8820771653543309
0
LINE
8
BLACK
6
CONTINUOUS
10
7.1642259055118105
20
-4.8820771653543309
11
7.1932901574803152
21
-4.8420736614173228
0
LINE
8
BLACK
6
CONTINUOUS
10
7.1932901574803152
20
-4.8420736614173228
11
7.2210835039370078
21
-4.8011769685039365
0
LINE
8
BLACK
6
CONTINUOUS
10
7.2210835039370078
20
-4.8011769685039365
11
7.247578582677165
21
-4.759427440944882
0
LINE
8
BLACK
6
CONTINUOUS
10
7.247578582677165
20
-4.759427440944882
11
7.2727491732283465
21
-4.7168662992125983
0
LINE
8
BLACK
6
CONTINUOUS
10
7.2727491732283465
20
-4.7168662992125983
11
7.296570472440945
21
-4.6735355118110231
0
LINE
8
BLACK
6
CONTINUOUS
10
7.296570472440945
20
-4.6735355118110231
11
7.3190189370078738
21
-4.6294778740157483
0
LINE
8
BLACK
6
CONTINUOUS
10
7.3190189370078738
20
-4.6294778740157483
11
7.3400724803149604
21
-4.5847368503937007
0
LINE
8
BLACK
6
CONTINUOUS
10
7.3400724803149604
20
-4.5847368503937007
11
7.359710275590551
21
-4.5393566141732284
0
LINE
8
BLACK
6
CONTINUOUS
10
7.359710275590551
20
-4.5393566141732284
11
7.3779129527559055
21
-4.4933818897637794
0
LINE
8
BLACK
6
CONTINUOUS
10
7.3779129527559055
20
-4.4933818897637794
11
7.3946625196850393
21
-4.4468581102362208
0
LINE
8
BLACK
6
CONTINUOUS
10
7.3946625196850393
20
-4.4468581102362208
11
7.409942519685039
21
-4.3998311811023623
0
LINE
8
BLACK
6
CONTINUOUS
10
7.409942519685039
20
-4.3998311811023623
11
7.4237377952755903
21
-4.352347519685039
0
LINE
8
BLACK
6
CONTINUOUS
10
7.4237377952755903
20
-4.352347519685039
11
7.436034763779527
21
-4.3044539370078736
0
LINE
8
BLACK
6
CONTINUOUS
10
7.436034763779527
20
-4.3044539370078736
11
7.4468212992125986
21
-4.256197716535433
0
LINE
8
BLACK
6
CONTINUOUS
10
7.4468212992125986
20
-4.256197716535433
11
7.4560867716535428
21
-4.2076265354330706
0
LINE
8
BLACK
6
CONTINUOUS
10
7.4560867716535428
20
-4.2076265354330706
11
7.4638220078740156
21
-4.1587882677165355
0
LINE
8
BLACK
6
CONTINUOUS
10
7.4638220078740156
20
-4.1587882677165355
11
7.4700193307086611
21
-4.109731102362205
0
LINE
8
BLACK
6
CONTINUOUS
10
7.4700193307086611
20
-4.109731102362205
11
7.4746727165354327
21
-4.0605035039370074
0
LINE
8
BLACK
6
CONTINUOUS
10
7.4746727165354327
20
-4.0605035039370074
11
7.4777775196850396
21
-4.0111540551181104
0
LINE
8
BLACK
6
CONTINUOUS
10
7.4777775196850396
20
-4.0111540551181104
11
7.4793307086614176
21
-3.9617313779527557
0
LINE
8
BLACK
6
CONTINUOUS
10
7.4793307086614176
20
-3.9617313779527557
11
7.4793307086614176
21
-3.9122843700787402
0
LINE
8
BLACK
6
CONTINUOUS
10
7.4793307086614176
20
-3.9122843700787402
11
7.4777775196850396
21
-3.8628616929133859
0
LINE
8
BLACK
6
CONTINUOUS
10
7.4777775196850396
20
-3.8628616929133859
11
7.4746727165354327
21
-3.813512244094488
0
LINE
8
BLACK
6
CONTINUOUS
10
7.4746727165354327
20
-3.813512244094488
11
7.4700193307086611
21
-3.7642846456692913
0
LINE
8
BLACK
6
CONTINUOUS
10
7.4700193307086611
20
-3.7642846456692913
11
7.4638220078740156
21
-3.7152274803149608
0
LINE
8
BLACK
6
CONTINUOUS
10
7.4638220078740156
20
-3.7152274803149608
11
7.4560867716535428
21
-3.6663892125984252
0
LINE
8
BLACK
6
CONTINUOUS
10
7.4560867716535428
20
-3.6663892125984252
11
7.4468212992125986
21
-3.6178180314960628
0
LINE
8
BLACK
6
CONTINUOUS
10
7.4468212992125986
20
-3.6178180314960628
11
7.436034763779527
21
-3.5695618110236218
0
LINE
8
BLACK
6
CONTINUOUS
10
7.436034763779527
20
-3.5695618110236218
11
7.4237377952755903
21
-3.5216682283464564
0
LINE
8
BLACK
6
CONTINUOUS
10
7.4237377952755903
20
-3.5216682283464564
11
7.409942519685039
21
-3.4741845669291336
0
LINE
8
BLACK
6
CONTINUOUS
10
7.409942519685039
20
-3.4741845669291336
11
7.3946625196850393
21
-3.4271576377952755
0
LINE
8
BLACK
6
CONTINUOUS
10
7.3946625196850393
20
-3.4271576377952755
11
7.3779129527559055
21
-3.3806338582677165
0
LINE
8
BLACK
6
CONTINUOUS
10
7.3779129527559055
20
-3.3806338582677165
11
7.359710275590551
21
-3.3346591338582678
0
LINE
8
BLACK
6
CONTINUOUS
10
7.359710275590551
20
-3.3346591338582678
11
7.3400724803149604
21
-3.2892788976377951
0
LINE
8
BLACK
6
CONTINUOUS
10
7.3400724803149604
20
-3.2892788976377951
11
7.3190189370078738
21
-3.244537874015748
0
LINE
8
BLACK
6
CONTINUOUS
10
7.3190189370078738
20
-3.244537874015748
11
7.296570472440945
21
-3.2004802362204723
0
LINE
8
BLACK
6
CONTINUOUS
10
7.296570472440945
20
-3.2004802362204723
11
7.2727491732283465
21
-3.1571494488188976
0
LINE
8
BLACK
6
CONTINUOUS
10
7.2727491732283465
20
-3.1571494488188976
11
7.247578582677165
21
-3.1145883070866143
0
LINE
8
BLACK
6
CONTINUOUS
10
7.247578582677165
20
-3.1145883070866143
11
7.2210835039370078
21
-3.0728387795275589
0
LINE
8
BLACK
6
CONTINUOUS
10
7.2210835039370078
20
-3.0728387795275589
11
7.1932901574803152
21
-3.0319420866141731
0
LINE
8
BLACK
6
CONTINUOUS
10
7.1932901574803152
20
-3.0319420866141731
11
7.1642259055118105
21
-2.9919385826771654
0
LINE
8
BLACK
6
CONTINUOUS
10
7.1642259055118105
20
-2.9919385826771654
11
7.133919488188976
21
-2.9528677559055119
0
LINE
8
BLACK
6
CONTINUOUS
10
7.133919488188976
20
-2.9528677559055119
11
7.1024007480314957
21
-2.9147681496062989
0
LINE
8
BLACK
6
CONTINUOUS
10
7.1024007480314957
20
-2.9147681496062989
11
7.069700826771653
21
-2.8776773622047243
0
LINE
8
BLACK
6
CONTINUOUS
10
7.069700826771653
20
-2.8776773622047243
11
7.0358520078740154
21
-2.8416320472440946
0
LINE
8
BLACK
6
CONTINUOUS
10
7.0358520078740154
20
-2.8416320472440946
11
7.0008876377952758
21
-2.8066676771653545
0
LINE
8
BLACK
6
CONTINUOUS
10
7.0008876377952758
20
-2.8066676771653545
11
6.9648423228346452
21
-2.7728188582677165
0
LINE
8
BLACK
6
CONTINUOUS
10
6.9648423228346452
20
-2.7728188582677165
11
6.927751535433071
21
-2.7401189370078738
0
LINE
8
BLACK
6
CONTINUOUS
10
6.927751535433071
20
-2.7401189370078738
11
6.8896519291338585
21
-2.7086001968503934
0
LINE
8
BLACK
6
CONTINUOUS
10
6.8896519291338585
20
-2.7086001968503934
11
6.850581102362205
21
-2.678293779527559
0
LINE
8
BLACK
6
CONTINUOUS
10
6.850581102362205
20
-2.678293779527559
11
6.8105775984251968
21
-2.6492295275590552
0
LINE
8
BLACK
6
CONTINUOUS
10
6.8105775984251968
20
-2.6492295275590552
11
6.7696809055118106
21
-2.6214361811023621
0
LINE
8
BLACK
6
CONTINUOUS
10
6.7696809055118106
20
-2.6214361811023621
11
6.7279313779527561
21
-2.5949411023622049
0
LINE
8
BLACK
6
CONTINUOUS
10
6.7279313779527561
20
-2.5949411023622049
11
6.6853702362204723
21
-2.5697705118110235
0
LINE
8
BLACK
6
CONTINUOUS
10
6.6853702362204723
20
-2.5697705118110235
11
6.6420394488188972
21
-2.5459492125984253
0
LINE
8
BLACK
6
CONTINUOUS
10
6.6420394488188972
20
-2.5459492125984253
11
6.5979818110236215
21
-2.5235007480314962
0
LINE
8
BLACK
6
CONTINUOUS
10
6.5979818110236215
20
-2.5235007480314962
11
6.5532407874015748
21
-2.5024472047244095
0
LINE
8
BLACK
6
CONTINUOUS
10
6.5532407874015748
20
-2.5024472047244095
11
6.5078605511811025
21
-2.4828094094488189
0
LINE
8
BLACK
6
CONTINUOUS
10
6.5078605511811025
20
-2.4828094094488189
11
6.4618858267716535
21
-2.4646067322834644
0
LINE
8
BLACK
6
CONTINUOUS
10
6.4618858267716535
20
-2.4646067322834644
11
6.415362047244094
21
-2.4478571653543306
0
LINE
8
BLACK
6
CONTINUOUS
10
6.415362047244094
20
-2.4478571653543306
11
6.3683351181102363
21
-2.4325771653543304
0
LINE
8
BLACK
6
CONTINUOUS
10
6.3683351181102363
20
-2.4325771653543304
11
6.320851456692913
21
-2.4187818897637796
0
LINE
8
BLACK
6
CONTINUOUS
10
6.320851456692913
20
-2.4187818897637796
11
6.2729578740157477
21
-2.4064849212598425
0
LINE
8
BLACK
6
CONTINUOUS
10
6.2729578740157477
20
-2.4064849212598425
11
6.2247016535433071
21
-2.3956983858267717
0
LINE
8
BLACK
6
CONTINUOUS
10
6.2247016535433071
20
-2.3956983858267717
11
6.1761304724409447
21
-2.3864329133858266
0
LINE
8
BLACK
6
CONTINUOUS
10
6.1761304724409447
20
-2.3864329133858266
11
6.1272922047244096
21
-2.3786976771653543
0
LINE
8
BLACK
6
CONTINUOUS
10
6.1272922047244096
20
-2.3786976771653543
11
6.078235039370079
21
-2.3725003543307088
0
LINE
8
BLACK
6
CONTINUOUS
10
6.078235039370079
20
-2.3725003543307088
11
6.0290074409448815
21
-2.3678469685039372
0
LINE
8
BLACK
6
CONTINUOUS
10
6.0290074409448815
20
-2.3678469685039372
11
5.9796579921259845
21
-2.3647421653543308
0
LINE
8
BLACK
6
CONTINUOUS
10
5.9796579921259845
20
-2.3647421653543308
11
5.9302353149606297
21
-2.3631889763779528
0
LINE
8
BLACK
6
CONTINUOUS
10
5.9302353149606297
20
-2.3631889763779528
11
5.8807883070866138
21
-2.3631889763779528
0
LINE
8
BLACK
6
CONTINUOUS
10
5.8807883070866138
20
-2.3631889763779528
11
5.83136562992126
21
-2.3647421653543308
0
LINE
8
BLACK
6
CONTINUOUS
10
5.83136562992126
20
-2.3647421653543308
11
5.782016181102362
21
-2.3678469685039372
0
LINE
8
BLACK
6
CONTINUOUS
10
5.782016181102362
20
-2.3678469685039372
11
5.7327885826771654
21
-2.3725003543307088
0
LINE
8
BLACK
6
CONTINUOUS
10
5.7327885826771654
20
-2.3725003543307088
11
5.6837314173228348
21
-2.3786976771653543
0
LINE
8
BLACK
6
CONTINUOUS
10
5.6837314173228348
20
-2.3786976771653543
11
5.6348931496062988
21
-2.3864329133858266
0
LINE
8
BLACK
6
CONTINUOUS
10
5.6348931496062988
20
-2.3864329133858266
11
5.5863219685039365
21
-2.3956983858267717
0
LINE
8
BLACK
6
CONTINUOUS
10
5.5863219685039365
20
-2.3956983858267717
11
5.5380657480314959
21
-2.4064849212598425
0
LINE
8
BLACK
6
CONTINUOUS
10
5.5380657480314959
20
-2.4064849212598425
11
5.4901721653543305
21
-2.4187818897637796
0
LINE
8
BLACK
6
CONTINUOUS
10
5.4901721653543305
20
-2.4187818897637796
11
5.4426885039370081
21
-2.4325771653543304
0
LINE
8
BLACK
6
CONTINUOUS
10
5.4426885039370081
20
-2.4325771653543304
11
5.3956615748031496
21
-2.4478571653543306
0
LINE
8
BLACK
6
CONTINUOUS
10
5.3956615748031496
20
-2.4478571653543306
11
5.3491377952755901
21
-2.4646067322834644
0
LINE
8
BLACK
6
CONTINUOUS
10
5.3491377952755901
20
-2.4646067322834644
11
5.3031630708661419
21
-2.4828094094488189
0
LINE
8
BLACK
6
CONTINUOUS
10
5.3031630708661419
20
-2.4828094094488189
11
5.2577828346456688
21
-2.5024472047244095
0
LINE
8
BLACK
6
CONTINUOUS
10
5.2577828346456688
20
-2.5024472047244095
11
5.2130418110236221
21
-2.5235007480314962
0
LINE
8
BLACK
6
CONTINUOUS
10
5.2130418110236221
20
-2.5235007480314962
11
5.1689841732283464
21
-2.5459492125984253
0
LINE
8
BLACK
6
CONTINUOUS
10
5.1689841732283464
20
-2.5459492125984253
11
5.1256533858267712
21
-2.5697705118110235
0
LINE
8
BLACK
6
CONTINUOUS
10
5.1256533858267712
20
-2.5697705118110235
11
5.0830922440944883
21
-2.5949411023622049
0
LINE
8
BLACK
6
CONTINUOUS
10
5.0830922440944883
20
-2.5949411023622049
11
5.041342716535433
21
-2.6214361811023621
0
LINE
8
BLACK
6
CONTINUOUS
10
5.041342716535433
20
-2.6214361811023621
11
5.0004460236220467
21
-2.6492295275590552
0
LINE
8
BLACK
6
CONTINUOUS
10
5.0004460236220467
20
-2.6492295275590552
11
4.9604425196850395
21
-2.678293779527559
0
LINE
8
BLACK
6
CONTINUOUS
10
4.9604425196850395
20
-2.678293779527559
11
4.9213716929133859
21
-2.7086001968503934
0
LINE
8
BLACK
6
CONTINUOUS
10
4.9213716929133859
20
-2.7086001968503934
11
4.8832720866141734
21
-2.7401189370078738
0
LINE
8
BLACK
6
CONTINUOUS
10
4.8832720866141734
20
-2.7401189370078738
11
4.8461812992125983
21
-2.7728188582677165
0
LINE
8
BLACK
6
CONTINUOUS
10
4.8461812992125983
20
-2.7728188582677165
11
4.8101359842519686
21
-2.8066676771653545
0
LINE
8
BLACK
6
CONTINUOUS
10
4.8101359842519686
20
-2.8066676771653545
11
4.7751716141732281
21
-2.8416320472440946
0
LINE
8
BLACK
6
CONTINUOUS
10
4.7751716141732281
20
-2.8416320472440946
11
4.7413227952755905
21
-2.8776773622047243
0
LINE
8
BLACK
6
CONTINUOUS
10
4.7413227952755905
20
-2.8776773622047243
11
4.7086228740157479
21
-2.9147681496062989
0
LINE
8
BLACK
6
CONTINUOUS
10
4.7086228740157479
20
-2.9147681496062989
11
4.6771041338582675
21
-2.9528677559055119
0
LINE
8
BLACK
6
CONTINUOUS
10
4.6771041338582675
20
-2.9528677559055119
11
4.6467977165354331
21
-2.9919385826771654
0
LINE
8
BLACK
6
CONTINUOUS
10
4.6467977165354331
20
-2.9919385826771654
11
4.6177334645669292
21
-3.0319420866141731
0
LINE
8
BLACK
6
CONTINUOUS
10
4.6177334645669292
20
-3.0319420866141731
11
4.5899401181102357
21
-3.0728387795275589
0
LINE
8
BLACK
6
CONTINUOUS
10
4.5899401181102357
20
-3.0728387795275589
11
4.5634450393700785
21
-3.1145883070866143
0
LINE
8
BLACK
6
CONTINUOUS
10
4.5634450393700785
20
-3.1145883070866143
11
4.538274448818898
21
-3.1571494488188976
0
LINE
8
BLACK
6
CONTINUOUS
10
4.538274448818898
20
-3.1571494488188976
11
4.5144531496062994
21
-3.2004802362204723
0
LINE
8
BLACK
6
CONTINUOUS
10
4.5144531496062994
20
-3.2004802362204723
11
4.4920046850393698
21
-3.244537874015748
0
LINE
8
BLACK
6
CONTINUOUS
10
4.4920046850393698
20
-3.244537874015748
11
4.4709511417322831
21
-3.2892788976377951
0
LINE
8
BLACK
6
CONTINUOUS
10
4.4709511417322831
20
-3.2892788976377951
11
4.4513133464566925
21
-3.3346591338582678
0
LINE
8
BLACK
6
CONTINUOUS
10
4.4513133464566925
20
-3.3346591338582678
11
4.4331106692913389
21
-3.3806338582677165
0
LINE
8
BLACK
6
CONTINUOUS
10
4.4331106692913389
20
-3.3806338582677165
11
4.4163611023622042
21
-3.4271576377952755
0
LINE
8
BLACK
6
CONTINUOUS
10
4.4163611023622042
20
-3.4271576377952755
11
4.4010811023622045
21
-3.4741845669291336
0
LINE
8
BLACK
6
CONTINUOUS
10
4.4010811023622045
20
-3.4741845669291336
11
4.3872858267716532
21
-3.5216682283464564
0
LINE
8
BLACK
6
CONTINUOUS
10
4.3872858267716532
20
-3.5216682283464564
11
4.3749888582677166
21
-3.5695618110236218
0
LINE
8
BLACK
6
CONTINUOUS
10
4.3749888582677166
20
-3.5695618110236218
11
4.3642023228346458
21
-3.6178180314960628
0
LINE
8
BLACK
6
CONTINUOUS
10
4.3642023228346458
20
-3.6178180314960628
11
4.3549368503937007
21
-3.6663892125984252
0
LINE
8
BLACK
6
CONTINUOUS
10
4.3549368503937007
20
-3.6663892125984252
11
4.3472016141732279
21
-3.7152274803149608
0
LINE
8
BLACK
6
CONTINUOUS
10
4.3472016141732279
20
-3.7152274803149608
11
4.3410042913385825
21
-3.7642846456692913
0
LINE
8
BLACK
6
CONTINUOUS
10
4.3410042913385825
20
-3.7642846456692913
11
4.3363509055118108
21
-3.813512244094488
0
LINE
8
BLACK
6
CONTINUOUS
10
4.3363509055118108
20
-3.813512244094488
11
4.3332461023622049
21
-3.8628616929133859
0
LINE
8
BLACK
6
CONTINUOUS
10
4.3332461023622049
20
-3.8628616929133859
11
4.3316929133858268
21
-3.9122843700787402
0
LINE
8
BLACK
6
CONTINUOUS
10
4.3316929133858268
20
-3.9122843700787402
11
4.3316929133858268
21
-3.9617313779527557
  0
ENDSEC
  0
EOF
